<?xml version="1.0" encoding="UTF-8"?>
<!-- Generator: visioncortex VTracer 0.6.1 -->
<svg version="1.1" xmlns="http://www.w3.org/2000/svg" width="1280" height="189">
<path d="M0 0 C3.37477771 2.13452029 6.88112216 3.83526831 10.4765625 5.56640625 C10.4765625 6.22640625 10.4765625 6.88640625 10.4765625 7.56640625 C11.17265625 7.6540625 11.86875 7.74171875 12.5859375 7.83203125 C16.14787367 8.73695557 18.63695407 10.33129552 21.7265625 12.31640625 C25.59403019 14.78221189 29.46555138 17.1394635 33.5390625 19.25390625 C37.06161305 21.1864615 39.36779809 23.05179889 41.4765625 26.56640625 C42.3019559 29.88863783 42.6058972 32.99718679 42.62182617 36.41333008 C42.62820602 37.34812698 42.63458588 38.28292389 42.64115906 39.24604797 C42.64227188 40.24508652 42.6433847 41.24412506 42.64453125 42.2734375 C42.64952385 43.83248055 42.64952385 43.83248055 42.65461731 45.42301941 C42.65967302 47.61932941 42.66202605 49.81564707 42.66186523 52.01196289 C42.66404782 55.35641273 42.68220743 58.70053051 42.70117188 62.04492188 C42.70410693 64.18359263 42.70609097 66.32226494 42.70703125 68.4609375 C42.71421677 69.45390335 42.72140228 70.4468692 42.72880554 71.46992493 C42.70574887 78.54628515 42.52699525 84.86846842 38.1015625 90.69140625 C34.36205397 94.08091152 29.85465842 96.04248872 25.32421875 98.17578125 C23.01349182 99.30420208 20.99981921 100.45680749 18.9140625 101.94140625 C16.4765625 103.56640625 16.4765625 103.56640625 13.4765625 103.56640625 C13.4765625 104.22640625 13.4765625 104.88640625 13.4765625 105.56640625 C12.52394531 106.10910156 11.57132812 106.65179688 10.58984375 107.2109375 C9.32290006 107.93356464 8.05597391 108.65622252 6.7890625 109.37890625 C6.16322266 109.73533203 5.53738281 110.09175781 4.89257812 110.45898438 C3.96928711 110.98588867 3.96928711 110.98588867 3.02734375 111.5234375 C2.41858398 111.86947021 1.80982422 112.21550293 1.18261719 112.57202148 C-0.29468134 113.43307427 -1.73887989 114.35044714 -3.17578125 115.27734375 C-8.24322159 118.05979852 -13.86410984 117.91432979 -19.3984375 116.75390625 C-21.8778618 115.81172502 -24.21173616 114.860959 -26.5234375 113.56640625 C-26.5234375 112.90640625 -26.5234375 112.24640625 -26.5234375 111.56640625 C-27.38473267 111.38984497 -27.38473267 111.38984497 -28.26342773 111.2097168 C-30.68841943 110.51944423 -32.51639064 109.55652278 -34.68359375 108.2734375 C-35.86646973 107.57976074 -35.86646973 107.57976074 -37.07324219 106.87207031 C-37.90243164 106.37932617 -38.73162109 105.88658203 -39.5859375 105.37890625 C-44.92611303 102.2306089 -50.25306768 99.14203488 -55.7734375 96.31640625 C-61.31937441 93.31487274 -66.02946165 89.83230696 -68.69921875 83.99609375 C-69.81570227 79.35025239 -69.73666297 74.9487952 -69.6484375 70.19140625 C-69.63941406 69.26457031 -69.63039062 68.33773437 -69.62109375 67.3828125 C-69.59766687 65.11040548 -69.56486498 62.83854445 -69.5234375 60.56640625 C-67.54296875 59.75390625 -67.54296875 59.75390625 -64.5234375 59.56640625 C-61.53604748 60.89018891 -58.91035969 62.73752866 -56.2109375 64.56640625 C-54.52414738 65.67035626 -52.8366093 66.77316403 -51.1484375 67.875 C-50.24738281 68.46909668 -49.34632812 69.06319336 -48.41796875 69.67529297 C-43.22819766 73.06597843 -37.96753129 76.34318383 -32.7109375 79.62890625 C-31.69153076 80.27150391 -30.67212402 80.91410156 -29.62182617 81.57617188 C-21.33154859 87.40371176 -21.33154859 87.40371176 -11.8359375 89.37890625 C-8.41279015 88.73857141 -8.41279015 88.73857141 -5.5234375 86.56640625 C-4.5334375 86.56640625 -3.5434375 86.56640625 -2.5234375 86.56640625 C-2.5234375 85.90640625 -2.5234375 85.24640625 -2.5234375 84.56640625 C0.45067374 83.32719323 3.32919068 82.26582221 6.4765625 81.56640625 C6.4765625 80.90640625 6.4765625 80.24640625 6.4765625 79.56640625 C7.11464844 79.21707031 7.75273438 78.86773437 8.41015625 78.5078125 C9.23644531 78.05277344 10.06273438 77.59773438 10.9140625 77.12890625 C11.73777344 76.67644531 12.56148438 76.22398437 13.41015625 75.7578125 C15.39965048 74.72978228 15.39965048 74.72978228 16.4765625 73.56640625 C16.56511411 70.90014595 16.59180923 68.25993511 16.57421875 65.59375 C16.5728038 64.79610733 16.57138885 63.99846466 16.56993103 63.176651 C16.56431566 60.6190319 16.55176062 58.06149907 16.5390625 55.50390625 C16.53404948 53.7740898 16.52948623 52.04427199 16.52539062 50.31445312 C16.51434125 46.06507072 16.49706636 41.81575313 16.4765625 37.56640625 C14.20434201 36.42618683 11.92748383 35.30206301 9.63671875 34.19921875 C8.61449219 33.70164063 7.59226562 33.2040625 6.5390625 32.69140625 C5.00958984 31.95277344 5.00958984 31.95277344 3.44921875 31.19921875 C0.48746162 29.57239289 -1.92982977 27.72041945 -4.5234375 25.56640625 C-8.70015885 23.07814672 -11.65997603 21.78825242 -16.5234375 22.56640625 C-19.34891434 24.01950862 -21.9278459 25.74008381 -24.5234375 27.56640625 C-27.5234375 29.56640625 -27.5234375 29.56640625 -30.5234375 29.56640625 C-30.5234375 30.22640625 -30.5234375 30.88640625 -30.5234375 31.56640625 C-32.8334375 32.22640625 -35.1434375 32.88640625 -37.5234375 33.56640625 C-40.06908004 31.02076371 -38.85495212 24.23198517 -38.8984375 20.81640625 C-38.93582031 19.718125 -38.97320312 18.61984375 -39.01171875 17.48828125 C-39.10046041 9.36348887 -39.10046041 9.36348887 -36.30078125 5.49609375 C-35.38425781 4.85929687 -34.46773437 4.2225 -33.5234375 3.56640625 C-32.73324219 3.00695313 -31.94304687 2.4475 -31.12890625 1.87109375 C-19.37732418 -5.07733765 -12.10559781 -7.77681593 0 0 Z " fill="#FEFEFE" transform="translate(107.5234375,55.43359375)"/>
<path d="M0 0 C7.52859293 3.28314579 14.14310526 8.03759685 20.890625 12.6796875 C24.40160217 14.87729914 28.16434138 16.45848235 32 18 C32 18.66 32 19.32 32 20 C32.5775 20.12375 33.155 20.2475 33.75 20.375 C36.02335767 21.00648824 37.9253529 21.88858191 40 23 C40 23.66 40 24.32 40 25 C40.763125 25.0825 41.52625 25.165 42.3125 25.25 C45.59282427 26.16543933 46.3341214 27.08471245 48 30 C48.98447571 33.1177165 49.11660629 35.94371818 49.09765625 39.203125 C49.09282227 40.67265625 49.09282227 40.67265625 49.08789062 42.171875 C49.07532227 43.69554688 49.07532227 43.69554688 49.0625 45.25 C49.05798828 46.28125 49.05347656 47.3125 49.04882812 48.375 C49.03706088 50.91672573 49.02062011 53.45833319 49 56 C47.30981445 56.67651367 47.30981445 56.67651367 45 57 C42.63745117 55.8918457 42.63745117 55.8918457 40.04296875 54.17578125 C39.09486328 53.55896484 38.14675781 52.94214844 37.16992188 52.30664062 C36.18572266 51.64857422 35.20152344 50.99050781 34.1875 50.3125 C32.24438072 49.03640245 30.30038947 47.76163151 28.35546875 46.48828125 C26.96013916 45.57042847 26.96013916 45.57042847 25.53662109 44.6340332 C23.52412207 43.33762743 21.5125376 42.1074409 19.42578125 40.9375 C16.61407917 39.34730133 13.90741759 37.68746432 11.1875 35.94921875 C9.91519531 35.14967773 9.91519531 35.14967773 8.6171875 34.33398438 C6.86353685 33.2307549 5.11872538 32.11335616 3.3828125 30.98242188 C-0.62235356 28.495932 -3.03696245 27.00589615 -7.828125 26.9765625 C-10.82855879 27.94468276 -13.12383219 28.96237942 -15.75 30.6875 C-20.24971902 33.54970659 -24.84186176 36.11165572 -29.5546875 38.60546875 C-33.94298017 40.84660653 -33.94298017 40.84660653 -36.59838867 44.71582031 C-37.50619786 49.87901954 -37.18476507 55.21104847 -37.1875 60.4375 C-37.20586914 62.27924805 -37.20586914 62.27924805 -37.22460938 64.15820312 C-37.22654297 65.34220703 -37.22847656 66.52621094 -37.23046875 67.74609375 C-37.23663208 69.36535767 -37.23663208 69.36535767 -37.24291992 71.01733398 C-36.98961616 74.12749682 -36.45600103 76.24642136 -35 79 C-32.61927332 80.63567912 -30.4131829 81.9881214 -27.875 83.3125 C-27.21628906 83.67150391 -26.55757812 84.03050781 -25.87890625 84.40039062 C-24.25981704 85.28033041 -22.6308255 86.14200695 -21 87 C-21 87.66 -21 88.32 -21 89 C-20.443125 89.103125 -19.88625 89.20625 -19.3125 89.3125 C-17 90 -17 90 -14.6875 91.5 C-10.29305749 93.9527121 -5.95583548 94 -1 94 C-1 93.34 -1 92.68 -1 92 C-0.24074219 91.59007813 0.51851562 91.18015625 1.30078125 90.7578125 C2.29464844 90.21898438 3.28851563 89.68015625 4.3125 89.125 C5.29863281 88.59132813 6.28476563 88.05765625 7.30078125 87.5078125 C10.09586458 85.99277874 10.09586458 85.99277874 13 84 C16.1875 83.875 16.1875 83.875 19 84 C19.14553599 87.89543877 19.23415059 91.79017651 19.3125 95.6875 C19.35439453 96.79029297 19.39628906 97.89308594 19.43945312 99.02929688 C19.56274353 107.19112191 19.56274353 107.19112191 16.91015625 111.00390625 C13.70298717 113.20372289 10.51162978 115.33997019 7.125 117.25 C6.53847656 117.600625 5.95195313 117.95125 5.34765625 118.3125 C0.16509966 121.27396091 -4.41685734 122.48738541 -10.3125 121.375 C-15.07245636 119.60010102 -19.5028895 117.3502487 -24 115 C-25.33197372 114.33062102 -26.66483014 113.6629809 -28 113 C-28 112.34 -28 111.68 -28 111 C-28.58394531 110.87496094 -29.16789062 110.74992187 -29.76953125 110.62109375 C-33.86014848 109.48202521 -37.34431193 107.11771183 -41 105 C-42.42051593 104.19521191 -43.84109406 103.3905336 -45.26171875 102.5859375 C-46.79992487 101.70390182 -48.33768138 100.82108161 -49.875 99.9375 C-50.62483154 99.51412354 -51.37466309 99.09074707 -52.1472168 98.65454102 C-58.36162878 95.04769264 -61.09745786 92.08862979 -63 85 C-63.31103384 81.41050967 -63.32784695 77.83195372 -63.3359375 74.23046875 C-63.3425943 73.19489334 -63.3492511 72.15931793 -63.35610962 71.09236145 C-63.36621128 68.90623748 -63.37092741 66.72008283 -63.37060547 64.53393555 C-63.37497183 61.20894912 -63.41130038 57.88529817 -63.44921875 54.56054688 C-63.45508896 52.42969201 -63.45905698 50.29883088 -63.4609375 48.16796875 C-63.47530853 47.18330124 -63.48967957 46.19863373 -63.50448608 45.18412781 C-63.45386381 37.44302092 -61.67699948 31.48821144 -56.9375 25.3125 C-53.49155415 22.59973412 -49.90645601 20.63223872 -46.02734375 18.6015625 C-42.96472751 16.98133971 -39.98341532 15.26134012 -37 13.5 C-32.20042837 10.68001822 -27.35889059 7.9646034 -22.44140625 5.35546875 C-20.0615251 4.09176979 -20.0615251 4.09176979 -18.21484375 2.73828125 C-12.62515145 -1.17587675 -6.48796411 -1.18743334 0 0 Z " fill="#FEFEFE" transform="translate(101,15)"/>
<path d="M0 0 C0.08858646 2.73894085 0.11523479 5.4525327 0.09765625 8.19140625 C0.0962413 9.01124496 0.09482635 9.83108368 0.09336853 10.67576599 C0.08775289 13.30471382 0.07519779 15.93357773 0.0625 18.5625 C0.05748701 20.34049357 0.05292376 22.11848846 0.04882812 23.89648438 C0.03777839 28.26435545 0.02050331 32.63216348 0 37 C0.53231735 36.78806 1.0646347 36.57612 1.61308289 36.35775757 C2.32044083 36.08291534 3.02779877 35.80807312 3.7565918 35.52490234 C4.45390915 35.25108734 5.1512265 34.97727234 5.86967468 34.69515991 C14.58469082 31.85130794 26.72355786 33.37267042 35 37 C41.00668377 40.41759594 46.03487062 44.31664788 50 50 C50 50.66 50 51.32 50 52 C50.66 52 51.32 52 52 52 C59.67073284 65.5555317 60.43848255 81.01011754 57 96 C55.60325453 99.83778663 53.98132899 103.43058289 52 107 C51.34 107 50.68 107 50 107 C49.76410156 107.74121094 49.52820313 108.48242188 49.28515625 109.24609375 C45.69561137 116.93797564 36.58485731 121.10663848 29 124 C28.01 124.495 28.01 124.495 27 125 C23.81965947 125.29316553 20.62977814 125.27807572 17.4375 125.3125 C16.13329102 125.35600586 16.13329102 125.35600586 14.80273438 125.40039062 C6.31531964 125.48266981 0.05642009 122.55252909 -7 118 C-7 118.66 -7 119.32 -7 120 C-7.66 120 -8.32 120 -9 120 C-9 120.66 -9 121.32 -9 122 C-12.13641748 123.56820874 -15.57179483 123.38163039 -19 123 C-20.34580516 122.35888324 -21.68115184 121.69488254 -23 121 C-23.0700716 105.68383234 -23.1229791 90.36767208 -23.15543652 75.05138016 C-23.17090744 67.9397979 -23.19200115 60.82831522 -23.22631836 53.71679688 C-23.25940581 46.85685021 -23.27684164 39.9970072 -23.28463173 33.13698578 C-23.29018499 30.51665364 -23.3010288 27.89632731 -23.31719017 25.27603912 C-23.33889161 21.61261133 -23.34196991 17.94961429 -23.34057617 14.28613281 C-23.351362 13.19712677 -23.36214783 12.10812073 -23.3732605 10.9861145 C-23.36913651 9.98774567 -23.36501251 8.98937683 -23.36076355 7.96075439 C-23.36352893 7.09426899 -23.36629431 6.22778358 -23.36914349 5.33504105 C-22.91425925 2.45764133 -22.00556815 1.09003065 -20 -1 C-17.07421875 -1.64453125 -17.07421875 -1.64453125 -13.6875 -1.8125 C-12.02267578 -1.91498047 -12.02267578 -1.91498047 -10.32421875 -2.01953125 C-1.97044917 -1.97044917 -1.97044917 -1.97044917 0 0 Z M0 59 C-0.30461028 60.88299123 -0.30461028 60.88299123 -0.25878906 63.05078125 C-0.26509338 63.88504639 -0.27139771 64.71931152 -0.27789307 65.57885742 C-0.2738446 66.48095947 -0.26979614 67.38306152 -0.265625 68.3125 C-0.26753845 69.23716064 -0.2694519 70.16182129 -0.27142334 71.11450195 C-0.27278566 73.07145459 -0.26908596 75.02841624 -0.26074219 76.98535156 C-0.25004334 79.9878359 -0.26063591 82.98972187 -0.2734375 85.9921875 C-0.27211591 87.89062633 -0.26955354 89.78906478 -0.265625 91.6875 C-0.26967346 92.58960205 -0.27372192 93.4917041 -0.27789307 94.42114258 C-0.27158875 95.25540771 -0.26528442 96.08967285 -0.25878906 96.94921875 C-0.25719788 97.68487061 -0.25560669 98.42052246 -0.25396729 99.1784668 C-0.15165031 101.25014214 -0.15165031 101.25014214 2 103 C7.65153705 106.06124924 12.60336343 106.88367978 19 106 C25.18818409 104.15997358 29.55908806 100.40255333 33 95 C37.18534511 86.78724734 37.12346235 77.40665694 34.8125 68.625 C32.65914726 62.37526925 29.16636523 57.83659473 23.15234375 54.69140625 C15.37476816 52.1929836 5.91797971 53.08202029 0 59 Z " fill="#FEFEFE" transform="translate(554,34)"/>
<path d="M0 0 C7.22236996 -0.10194982 14.4445523 -0.17169539 21.66748047 -0.21972656 C24.12132706 -0.23976324 26.57512637 -0.26700032 29.02880859 -0.30175781 C32.56880403 -0.35062498 36.10816468 -0.3730492 39.6484375 -0.390625 C41.277173 -0.42159271 41.277173 -0.42159271 42.93881226 -0.45318604 C50.12280907 -0.45527236 55.55933063 0.8423774 62 4 C63.1800209 4.56820465 63.1800209 4.56820465 64.38388062 5.14788818 C66.26799345 6.07443544 68.13605984 7.03351251 70 8 C70 8.66 70 9.32 70 10 C70.639375 10.268125 71.27875 10.53625 71.9375 10.8125 C74 12 74 12 75 15 C75.66 15 76.32 15 77 15 C82.56200302 22.01296033 83.91203942 32.33562554 83 41 C81.77215317 50.06439863 78.63315213 56.60874786 72 63 C69.74609375 64.2734375 69.74609375 64.2734375 68 65 C68 65.66 68 66.32 68 67 C53.80813479 76.65046835 38.55708004 75.75410277 22 76 C21.67 89.86 21.34 103.72 21 118 C17.11436275 119.29521242 13.42199731 119.14503464 9.375 119.125 C8.58609375 119.12886719 7.7971875 119.13273437 6.984375 119.13671875 C1.12665394 119.12665394 1.12665394 119.12665394 0 118 C-0.09581822 116.46914161 -0.12188108 114.93386244 -0.12025452 113.40000916 C-0.12162918 112.40576431 -0.12300385 111.41151947 -0.12442017 110.387146 C-0.12082489 109.28735413 -0.11722961 108.18756226 -0.11352539 107.05444336 C-0.11367142 105.90337601 -0.11381744 104.75230865 -0.1139679 103.56636047 C-0.11326818 99.74083609 -0.10547302 95.91535969 -0.09765625 92.08984375 C-0.09579228 89.44568407 -0.09436828 86.80152404 -0.09336853 84.15736389 C-0.09025549 77.89584583 -0.08204248 71.63434514 -0.07201904 65.37283474 C-0.06085705 58.24598463 -0.05534724 51.1191337 -0.05032361 43.99227703 C-0.03985984 29.3281757 -0.02226093 14.66408809 0 0 Z M21 17 C20.91128727 20.02977804 20.8848065 23.03667022 20.90234375 26.06640625 C20.9037587 26.97502914 20.90517365 27.88365204 20.90663147 28.81980896 C20.91224807 31.73407221 20.92480335 34.64825981 20.9375 37.5625 C20.94251286 39.53320202 20.94707614 41.50390524 20.95117188 43.47460938 C20.96222289 48.31643559 20.97949862 53.15820495 21 58 C21.98492432 58.01846733 21.98492432 58.01846733 22.98974609 58.03730774 C23.86711426 58.05375839 24.74448242 58.07020905 25.6484375 58.0871582 C26.56334961 58.10380524 27.47826172 58.12045227 28.42089844 58.13760376 C30.31461503 58.17424029 32.20816554 58.2197393 34.1015625 58.27026367 C42.47853142 58.34563694 49.4172187 56.51116574 56 51 C60.11717794 44.68699382 59.66650571 37.32290685 59 30 C57.7240732 26.02735456 56.20905016 23.70763608 53 21 C52.34 21 51.68 21 51 21 C51 20.34 51 19.68 51 19 C45.25878831 16.52050498 26.06272669 11.93727331 21 17 Z " fill="#FEFEFE" transform="translate(181,38)"/>
<path d="M0 0 C1 1 1 1 1.12025452 3.58790588 C1.1169236 5.31665199 1.1169236 5.31665199 1.11352539 7.08032227 C1.11344986 8.38159561 1.11337433 9.68286896 1.11329651 11.02357483 C1.10818909 12.45451902 1.10297308 13.88546282 1.09765625 15.31640625 C1.09579203 16.7722926 1.09436815 18.22817957 1.09336853 19.68406677 C1.08954365 23.52279379 1.07971364 27.36148319 1.06866455 31.20019531 C1.05844978 35.11457816 1.05387077 39.02896706 1.04882812 42.94335938 C1.03809134 50.62892343 1.02101529 58.31445645 1 66 C1.78375 65.505 2.5675 65.01 3.375 64.5 C6 63 6 63 8 63 C8.33 62.01 8.66 61.02 9 60 C9.66 60 10.32 60 11 60 C11 59.34 11 58.68 11 58 C12.64453125 56.37890625 12.64453125 56.37890625 14.8125 54.5625 C17.82463265 52.02660668 17.82463265 52.02660668 20.63671875 49.27734375 C22 48 22 48 24 48 C24.268125 47.360625 24.53625 46.72125 24.8125 46.0625 C26 44 26 44 29 43 C29 42.34 29 41.68 29 41 C34.35714286 36 34.35714286 36 38 36 C38 36.66 38 37.32 38 38 C38.99 38.33 39.98 38.66 41 39 C42.82421875 40.92578125 42.82421875 40.92578125 44.6875 43.3125 C45.62142578 44.48232422 45.62142578 44.48232422 46.57421875 45.67578125 C48 48 48 48 48 52 C46.35546875 53.81640625 46.35546875 53.81640625 44.1875 55.5625 C41.16576154 58.0195301 41.16576154 58.0195301 38.36328125 60.71484375 C37 62 37 62 35 62 C35 62.66 35 63.32 35 64 C32.99182253 65.81991083 30.87813661 67.47105205 28.75 69.1484375 C26.54207092 71.05988838 26.54207092 71.05988838 27 75 C27.2981424 76.34164079 27.62243192 77.67851173 28 79 C28.66 79 29.32 79 30 79 C32.04169485 81.90548882 33 83.40142046 33 87 C33.66 87 34.32 87 35 87 C36.6715578 89.45021512 38.22646572 91.89724437 39.75 94.4375 C40.64719698 95.90961093 41.54562898 97.3809699 42.4453125 98.8515625 C43.09935059 99.92325684 43.09935059 99.92325684 43.76660156 101.01660156 C45.74127629 104.19202861 47.87239792 107.25428327 50.0390625 110.30078125 C51 112 51 112 51 115 C51.66 115 52.32 115 53 115 C55.04169485 117.90548882 56 119.40142046 56 123 C51.70363247 124.43212251 47.56431635 124.30490803 43.0625 124.375 C41.7022168 124.43107422 41.7022168 124.43107422 40.31445312 124.48828125 C39.43853516 124.49988281 38.56261719 124.51148438 37.66015625 124.5234375 C36.46338257 124.5531665 36.46338257 124.5531665 35.24243164 124.58349609 C30.2391333 123.28160355 27.74136315 117.14951258 25.1796875 113 C24.83495392 112.44183594 24.49022034 111.88367188 24.13504028 111.30859375 C23.41242087 110.13643963 22.69148481 108.96324621 21.97216797 107.7890625 C20.87613013 106.00184282 19.77241636 104.21953185 18.66796875 102.4375 C17.96307439 101.29195407 17.25863183 100.14612998 16.5546875 99 C15.92030762 97.96875 15.28592773 96.9375 14.63232422 95.875 C13.16588509 93.29217212 12.0192098 90.78443254 11 88 C6.54416481 89.3615052 4.56126778 91.1253133 2 95 C1.41260644 98.04943725 1.41260644 98.04943725 1.49609375 101.32421875 C1.47740234 102.51724609 1.45871094 103.71027344 1.43945312 104.93945312 C1.43880859 106.17630859 1.43816406 107.41316406 1.4375 108.6875 C1.42860157 111.149823 1.40712412 113.61214329 1.37109375 116.07421875 C1.3700061 117.70750122 1.3700061 117.70750122 1.36889648 119.3737793 C1.24716064 120.24043213 1.1254248 121.10708496 1 122 C-2.74426746 124.49617831 -5.67375072 124.26063055 -10 124.1875 C-10.72445312 124.18685547 -11.44890625 124.18621094 -12.1953125 124.18554688 C-15.38339447 124.15907756 -17.95665629 124.0144479 -21 123 C-21.04667656 107.25811163 -21.08196748 91.51624188 -21.10362434 75.77430153 C-21.11394632 68.46539627 -21.12802417 61.15653395 -21.15087891 53.84765625 C-21.17078467 47.4788254 -21.18370973 41.11002565 -21.18817699 34.74116457 C-21.19078916 31.3674595 -21.19694785 27.99384339 -21.21146011 24.62016678 C-21.22589009 20.85821413 -21.22798151 17.09644833 -21.22705078 13.33447266 C-21.23424133 12.21022385 -21.24143188 11.08597504 -21.24884033 9.92765808 C-21.246091 8.90679611 -21.24334167 7.88593414 -21.24050903 6.83413696 C-21.24235262 5.94368494 -21.24419621 5.05323292 -21.24609566 4.1357975 C-21 2 -21 2 -19 0 C-16.171875 -0.44921875 -16.171875 -0.44921875 -12.75 -0.6875 C-11.63109375 -0.77386719 -10.5121875 -0.86023437 -9.359375 -0.94921875 C-6.08033857 -0.99878558 -3.19816199 -0.70492032 0 0 Z " fill="#FEFEFE" transform="translate(867,33)"/>
<path d="M0 0 C8.38806515 7.14796914 15.56604955 16.8581492 16.54443359 28.24951172 C17.03230097 44.12442051 16.84017549 57.76827582 5.3515625 70.00390625 C-0.33105204 75.73602092 -0.33105204 75.73602092 -3.6484375 78.00390625 C-4.9684375 78.00390625 -6.2884375 78.00390625 -7.6484375 78.00390625 C-7.6484375 78.66390625 -7.6484375 79.32390625 -7.6484375 80.00390625 C-14.62475512 82.87205758 -20.95569656 83.54948583 -28.4609375 83.50390625 C-29.52175537 83.49963623 -30.58257324 83.49536621 -31.67553711 83.4909668 C-39.67912635 83.31685535 -45.76372328 82.32004736 -52.6484375 78.00390625 C-53.76798828 77.32328125 -53.76798828 77.32328125 -54.91015625 76.62890625 C-56.8984375 75.31640625 -56.8984375 75.31640625 -59.6484375 73.00390625 C-59.6484375 72.34390625 -59.6484375 71.68390625 -59.6484375 71.00390625 C-60.3084375 71.00390625 -60.9684375 71.00390625 -61.6484375 71.00390625 C-63.5234375 68.58984375 -63.5234375 68.58984375 -65.6484375 65.37890625 C-66.3496875 64.33476562 -67.0509375 63.290625 -67.7734375 62.21484375 C-73.18795499 52.94248254 -72.93496927 42.45477551 -72.6484375 32.00390625 C-72.65488281 31.20339844 -72.66132812 30.40289062 -72.66796875 29.578125 C-72.38422964 21.32266796 -68.36332426 12.43458826 -63.046875 6.09375 C-61.6484375 5.00390625 -61.6484375 5.00390625 -59.6484375 5.00390625 C-59.4009375 4.36453125 -59.1534375 3.72515625 -58.8984375 3.06640625 C-57.6484375 1.00390625 -57.6484375 1.00390625 -55.5234375 0.25390625 C-54.5953125 0.13015625 -54.5953125 0.13015625 -53.6484375 0.00390625 C-53.6484375 -0.65609375 -53.6484375 -1.31609375 -53.6484375 -1.99609375 C-51.92242371 -2.81527017 -50.1924728 -3.62615391 -48.4609375 -4.43359375 C-47.49800781 -4.88605469 -46.53507813 -5.33851562 -45.54296875 -5.8046875 C-31.39097069 -11.62973393 -12.00222814 -9.12550362 0 0 Z M-44.9609375 19.19140625 C-50.64361148 26.49991338 -51.74108452 34.95725891 -50.6484375 44.00390625 C-49.27080899 48.77709799 -47.40100136 52.87506046 -44.6484375 57.00390625 C-43.9884375 57.00390625 -43.3284375 57.00390625 -42.6484375 57.00390625 C-42.6484375 57.66390625 -42.6484375 58.32390625 -42.6484375 59.00390625 C-36.42759113 62.64030914 -30.9537209 65.57639946 -23.6484375 64.00390625 C-16.38272023 61.21836158 -11.4786036 58.237302 -7.9609375 51.19140625 C-4.73096501 43.8016207 -4.32136342 36.21852676 -6.3125 28.39453125 C-8.86643706 21.95416822 -13.26136849 15.85139843 -19.3984375 12.50390625 C-29.56805043 10.93935041 -37.61594966 11.45036515 -44.9609375 19.19140625 Z " fill="#FEFEFE" transform="translate(735.6484375,75.99609375)"/>
<path d="M0 0 C9.75956028 7.80764822 15.82206746 16.71184228 17.8125 29.25 C18.16373522 34.24534539 18.15161932 39.2545116 17.8125 44.25 C16.8125 45.25 16.8125 45.25 14.49034119 45.37025452 C13.46219803 45.36803391 12.43405487 45.36581329 11.37475586 45.36352539 C10.21362778 45.36344986 9.05249969 45.36337433 7.85618591 45.36329651 C5.96090904 45.35555458 5.96090904 45.35555458 4.02734375 45.34765625 C2.74138809 45.3462413 1.45543243 45.34482635 0.13050842 45.34336853 C-3.29393443 45.33954418 -6.71833509 45.32971462 -10.14276123 45.31866455 C-13.63488189 45.30844864 -17.12700934 45.30387053 -20.61914062 45.29882812 C-27.47527778 45.28809227 -34.33138687 45.27101684 -41.1875 45.25 C-40.5745279 47.18706706 -39.95311527 49.12146461 -39.328125 51.0546875 C-38.98297852 52.13218262 -38.63783203 53.20967773 -38.28222656 54.31982422 C-37.08255133 57.53090856 -35.51997309 59.75092169 -33.1875 62.25 C-33.1875 62.91 -33.1875 63.57 -33.1875 64.25 C-32.48882812 64.45496094 -31.79015625 64.65992188 -31.0703125 64.87109375 C-30.16023438 65.14050781 -29.25015625 65.40992188 -28.3125 65.6875 C-27.40757812 65.95433594 -26.50265625 66.22117187 -25.5703125 66.49609375 C-23.1875 67.25 -23.1875 67.25 -21.1875 68.25 C-12.40606717 69.19279187 -5.42413829 67.71910555 2.71875 64.44140625 C5.44433889 63.39177922 7.93888333 62.71642659 10.8125 62.25 C13.93633293 67.24813269 15.5981166 71.48167884 16.8125 77.25 C11.3125 81.25 11.3125 81.25 6.8125 81.25 C6.8125 81.91 6.8125 82.57 6.8125 83.25 C-0.95373285 86.41340088 -7.85597366 86.70426399 -16.1875 86.625 C-18.01667969 86.64240234 -18.01667969 86.64240234 -19.8828125 86.66015625 C-26.97614664 86.63717569 -32.60801703 85.93000492 -39.1875 83.25 C-39.1875 82.59 -39.1875 81.93 -39.1875 81.25 C-39.88875 81.1675 -40.59 81.085 -41.3125 81 C-44.8778452 80.06990995 -47.27765572 78.48313631 -50.1875 76.25 C-50.1875 75.59 -50.1875 74.93 -50.1875 74.25 C-51.1775 73.92 -52.1675 73.59 -53.1875 73.25 C-63.87712103 60.36763619 -64.33775051 45.28786005 -63.1875 29.25 C-62.22502419 23.4841643 -59.82403721 18.41618778 -57.1875 13.25 C-56.5275 13.25 -55.8675 13.25 -55.1875 13.25 C-55.11015625 12.67378906 -55.0328125 12.09757812 -54.953125 11.50390625 C-53.93091658 8.49464984 -52.33583867 7.24832412 -49.9375 5.1875 C-49.16921875 4.51589844 -48.4009375 3.84429687 -47.609375 3.15234375 C-34.3573541 -7.25690492 -14.64625543 -8.04108141 0 0 Z M-35.9375 19.875 C-38.78589851 23.73768778 -38.78589851 23.73768778 -40.1875 31.25 C-28.3075 31.25 -16.4275 31.25 -4.1875 31.25 C-4.09425966 26.17593054 -4.09425966 26.17593054 -6.5625 22.4375 C-7.00335938 21.83292969 -7.44421875 21.22835937 -7.8984375 20.60546875 C-8.32382812 20.15816406 -8.74921875 19.71085937 -9.1875 19.25 C-9.8475 19.25 -10.5075 19.25 -11.1875 19.25 C-11.1875 18.59 -11.1875 17.93 -11.1875 17.25 C-19.19776659 13.59975193 -29.38030393 13.61585829 -35.9375 19.875 Z " fill="#FEFEFE" transform="translate(458.1875,72.75)"/>
<path d="M0 0 C7.02268715 4.31926334 13.61745654 10.36600284 17 18 C18.27982197 25.63480605 18.17502386 33.43949181 18.203125 41.15625 C18.20882507 42.38033569 18.21452515 43.60442139 18.22039795 44.86560059 C18.22979021 47.43382923 18.23635876 50.00206961 18.24023438 52.5703125 C18.25003934 56.51583162 18.28115621 60.46085063 18.3125 64.40625 C18.31902145 66.90624692 18.32427528 69.40624754 18.328125 71.90625 C18.3404718 73.08948853 18.3528186 74.27272705 18.36553955 75.49182129 C18.36253845 76.58055542 18.35953735 77.66928955 18.35644531 78.79101562 C18.36191376 80.23136169 18.36191376 80.23136169 18.36749268 81.70080566 C18.24622009 82.45953979 18.12494751 83.21827393 18 84 C13.56602262 86.95598492 9.19569851 86.91019536 4 86 C1.55209783 84.20452378 0.60140584 82.65060277 -1 80 C-1.433125 80.495 -1.86625 80.99 -2.3125 81.5 C-4 83 -4 83 -7 83 C-7 83.66 -7 84.32 -7 85 C-12.97170668 87.56906375 -17.88971988 88.55227957 -24.375 88.5 C-25.62845215 88.49033203 -25.62845215 88.49033203 -26.90722656 88.48046875 C-34.77212875 88.24761617 -40.29461702 86.51732783 -46.078125 81.02734375 C-52.93911799 73.56671113 -53.86904493 67.33348388 -54.046875 57.375 C-53.72007035 49.90517939 -50.73935248 44.57871204 -45.36328125 39.43359375 C-37.0762279 32.96235163 -27.58668588 32.5090808 -17.4375 32.3125 C-15.63829102 32.26125977 -15.63829102 32.26125977 -13.80273438 32.20898438 C-10.86858316 32.12715546 -7.93470636 32.0577937 -5 32 C-5.29921663 25.582204 -5.29921663 25.582204 -8.75 20.5 C-13.91062401 16.59236701 -19.85448233 17.35859888 -26 18 C-29.77606948 18.58005887 -33.36829183 19.47096962 -37 20.6484375 C-38.64394686 21.17587045 -40.32118894 21.59708535 -42 22 C-45.89567982 19.40288012 -46.89926954 16.38763394 -48 12 C-48.22194927 9.27187359 -48.14699813 6.7439651 -48 4 C-42.94588366 1.1775714 -38.82171408 -0.35314288 -33 -1 C-32.09894531 -1.33128906 -31.19789062 -1.66257812 -30.26953125 -2.00390625 C-21.1608289 -4.77895894 -8.68386953 -3.99242918 0 0 Z M-32 52 C-34.13749925 55.20624887 -34.29574999 56.22458103 -34.3125 59.9375 C-34.32925781 60.79214844 -34.34601563 61.64679688 -34.36328125 62.52734375 C-33.92165181 65.53327317 -33.08982469 66.81582656 -31 69 C-26.82920588 71.64262866 -22.79409195 71.75186846 -18 71 C-13.33168172 69.18529246 -9.15884943 66.77256629 -5 64 C-3.86869116 60.60607349 -3.8670806 57.94665128 -3.875 54.375 C-3.87242188 53.20710938 -3.86984375 52.03921875 -3.8671875 50.8359375 C-3.67644156 48.09914054 -3.67644156 48.09914054 -5 47 C-8.19788407 46.66449822 -11.41179332 46.67485229 -14.625 46.625 C-15.96111328 46.56892578 -15.96111328 46.56892578 -17.32421875 46.51171875 C-23.89134465 46.4246729 -27.08733478 47.60310015 -32 52 Z " fill="#FEFEFE" transform="translate(1136,71)"/>
<path d="M0 0 C2.9375 2.5625 2.9375 2.5625 5 5 C5.99 5.99 5.99 5.99 7 7 C7 7.99 7 8.98 7 10 C7.66 10 8.32 10 9 10 C12.38100451 18.08399348 12.39036743 25.70342205 12.29296875 34.31640625 C12.28736283 35.78327497 12.28309745 37.25014937 12.28010559 38.71702576 C12.26873501 42.54920376 12.23933665 46.38103233 12.20599365 50.21307373 C12.17512323 54.13483963 12.16156425 58.05666284 12.14648438 61.97851562 C12.114458 69.65250183 12.06335808 77.32620167 12 85 C8.73188198 86.63405901 5.15000593 86.18453757 1.5625 86.1875 C0.78583984 86.19974609 0.00917969 86.21199219 -0.79101562 86.22460938 C-4.71232309 86.23474195 -6.66618745 86.2225417 -10 84 C-10.38526917 81.43937683 -10.38526917 81.43937683 -10.40063477 78.16088867 C-10.42064293 76.32339302 -10.42064293 76.32339302 -10.4410553 74.44877625 C-10.44119055 73.10517375 -10.44130707 71.76157125 -10.44140625 70.41796875 C-10.45317614 69.04273569 -10.46653942 67.66751543 -10.48143005 66.29231262 C-10.5176818 62.66597484 -10.53783205 59.03975026 -10.55297852 55.41326904 C-10.57776426 49.61928297 -10.61758913 43.82554755 -10.67487907 38.03179359 C-10.69116437 36.01049031 -10.69498254 33.98942407 -10.69789124 31.96806335 C-10.70807785 30.73360977 -10.71826447 29.49915619 -10.72875977 28.22729492 C-10.73517235 26.60086311 -10.73517235 26.60086311 -10.74171448 24.9415741 C-11.00912073 21.89612538 -11.63183511 19.72439474 -13 17 C-17.0495597 14.23280088 -21.28256761 14.18472734 -26 15 C-31.0542693 17.01029281 -35.89389083 19.39552103 -40.23046875 22.69921875 C-42 24 -42 24 -44 24 C-44 43.8 -44 63.6 -44 84 C-48.33018956 86.16509478 -51.43986244 86.26712219 -56.125 86.1875 C-57.21748047 86.1865332 -57.21748047 86.1865332 -58.33203125 86.18554688 C-63.71851504 86.14074248 -63.71851504 86.14074248 -66 85 C-66.02312269 73.80426756 -66.04091471 62.60854076 -66.05181217 51.41278934 C-66.05704116 46.21471885 -66.0641391 41.01666464 -66.07543945 35.81860352 C-66.08626776 30.80657732 -66.09227671 25.79456682 -66.09487724 20.78252983 C-66.09673159 18.86587718 -66.1003524 16.94922543 -66.10573006 15.03257942 C-66.11293975 12.35771928 -66.11399097 9.68292486 -66.11352539 7.00805664 C-66.11712067 6.2074884 -66.12071594 5.40692017 -66.12442017 4.58209229 C-66.11405216 -0.88594784 -66.11405216 -0.88594784 -65 -2 C-63.04577134 -2.15167148 -61.08490271 -2.22179996 -59.125 -2.25 C-57.52011719 -2.28867188 -57.52011719 -2.28867188 -55.8828125 -2.328125 C-53 -2 -53 -2 -51.1796875 -0.859375 C-49.57240478 1.67395803 -49.32792211 4.048701 -49 7 C-48.10539062 6.52949219 -47.21078125 6.05898437 -46.2890625 5.57421875 C-32.54905526 -1.55539045 -14.92944416 -8.38955491 0 0 Z " fill="#FEFEFE" transform="translate(1238,71)"/>
<path d="M0 0 C1.80078125 2.05859375 1.80078125 2.05859375 3.3125 4.4375 C3.82425781 5.21996094 4.33601563 6.00242187 4.86328125 6.80859375 C6 9 6 9 6 12 C6.66 12 7.32 12 8 12 C8.5775 13.03125 9.155 14.0625 9.75 15.125 C11.15518443 17.5991283 12.63215318 19.97240014 14.25 22.3125 C16 25 16 25 16 27 C17.32 27 18.64 27 20 27 C20.185625 26.13375 20.185625 26.13375 20.375 25.25 C21.00648824 22.97664233 21.88858191 21.0746471 23 19 C23.66 19 24.32 19 25 19 C25.08378906 18.46632813 25.16757812 17.93265625 25.25390625 17.3828125 C26.27259932 14.12939483 28.02486777 11.69033931 29.9375 8.875 C30.64777344 7.82054688 31.35804688 6.76609375 32.08984375 5.6796875 C34 3 34 3 36 1 C38.24658203 0.77294922 38.24658203 0.77294922 41.0078125 0.8046875 C41.99394531 0.81113281 42.98007812 0.81757812 43.99609375 0.82421875 C45.02863281 0.84097656 46.06117188 0.85773438 47.125 0.875 C48.16527344 0.88402344 49.20554687 0.89304687 50.27734375 0.90234375 C52.85179092 0.92596253 55.42578212 0.95889851 58 1 C58.495 2.485 58.495 2.485 59 4 C58.34 4 57.68 4 57 4 C56.731875 4.72445312 56.46375 5.44890625 56.1875 6.1953125 C55.00709345 8.98324639 53.64479263 11.33664215 52 13.875 C51.38253906 14.82890625 50.76507813 15.7828125 50.12890625 16.765625 C47.74184653 20.39220381 45.34404938 24.01133448 42.9375 27.625 C42.29880981 28.58744629 42.29880981 28.58744629 41.6472168 29.56933594 C39.80248897 32.34052391 37.94113804 35.08153641 35.9921875 37.78125 C35.43789063 38.5546875 34.88359375 39.328125 34.3125 40.125 C33.59513672 41.08792969 33.59513672 41.08792969 32.86328125 42.0703125 C31.64991697 44.78253854 32.09514443 46.20006955 33 49 C34.26791511 51.43450112 34.26791511 51.43450112 35.9375 53.875 C36.56398438 54.83019531 37.19046875 55.78539062 37.8359375 56.76953125 C38.90714844 58.36861328 38.90714844 58.36861328 40 60 C41.25494809 61.87433222 42.50973165 63.74877441 43.7644043 65.62329102 C44.62709056 66.91204727 45.4905301 68.20029962 46.35473633 69.48803711 C49.74333136 74.55819058 52.9446109 79.72138062 56 85 C51.84466695 87.77022203 48.44585149 87.36770597 43.5625 87.375 C42.27375977 87.41173828 42.27375977 87.41173828 40.95898438 87.44921875 C34.69319318 87.47838457 34.69319318 87.47838457 31.66796875 85.390625 C29.60513569 82.43405865 27.61046058 79.46198644 25.75 76.375 C25.38648438 75.78976563 25.02296875 75.20453125 24.6484375 74.6015625 C22 70.26051457 22 70.26051457 22 68 C21.34 68 20.68 68 20 68 C19.01 66.02 18.02 64.04 17 62 C12.99027798 65.67557852 10.54664585 69.18966896 8 74 C7.34 74 6.68 74 6 74 C5.88398438 74.57363281 5.76796875 75.14726562 5.6484375 75.73828125 C4.945515 78.19004104 3.96561076 80.02221049 2.625 82.1875 C2.20476562 82.88230469 1.78453125 83.57710938 1.3515625 84.29296875 C0 86 0 86 -3 87 C-4.45741472 87.09185751 -5.9186012 87.13066657 -7.37890625 87.1328125 C-8.21744141 87.13410156 -9.05597656 87.13539063 -9.91992188 87.13671875 C-11.22799805 87.13091797 -11.22799805 87.13091797 -12.5625 87.125 C-13.87637695 87.13080078 -13.87637695 87.13080078 -15.21679688 87.13671875 C-16.05404297 87.13542969 -16.89128906 87.13414062 -17.75390625 87.1328125 C-18.52033447 87.13168457 -19.2867627 87.13055664 -20.07641602 87.12939453 C-22 87 -22 87 -24 86 C-23.36827938 82.09819615 -21.46997952 79.47147405 -19.25 76.25 C-16.77562641 72.6315612 -14.37033872 69.01463978 -12.125 65.25 C-11.42375 64.1775 -10.7225 63.105 -10 62 C-9.34 62 -8.68 62 -8 62 C-7.85884766 61.18789062 -7.85884766 61.18789062 -7.71484375 60.359375 C-6.78860747 57.30228912 -5.2754644 54.94230995 -3.5625 52.25 C-2.94503906 51.26515625 -2.32757813 50.2803125 -1.69140625 49.265625 C-1.13324219 48.51796875 -0.57507813 47.7703125 0 47 C0.66 47 1.32 47 2 47 C1.84400543 39.82424967 -1.7570411 35.56497557 -6 30 C-11 23.36228288 -11 23.36228288 -11 20 C-11.66 20 -12.32 20 -13 20 C-14.69140625 17.76953125 -14.69140625 17.76953125 -16.5625 14.8125 C-17.18253906 13.84957031 -17.80257813 12.88664062 -18.44140625 11.89453125 C-19.91166708 9.16404685 -20.59289154 7.050525 -21 4 C-17.16752709 2.28761848 -13.30554804 0.6622785 -9.375 -0.8125 C-8.66085937 -1.08707031 -7.94671875 -1.36164063 -7.2109375 -1.64453125 C-4.17480962 -2.13267195 -2.67257744 -1.4842886 0 0 Z " fill="#FEFEFE" transform="translate(332,70)"/>
<path d="M0 0 C1.921875 1.18359375 1.921875 1.18359375 3.25 2.5625 C3.25 6.72661215 2.63740919 8.22642253 0.75 11.8125 C0.2859375 12.70453125 -0.178125 13.5965625 -0.65625 14.515625 C-1.0171875 15.19109375 -1.378125 15.8665625 -1.75 16.5625 C-7.84752974 17.03154075 -13.33282324 15.27108838 -18.75 12.5625 C-23.64547698 12.15257278 -28.22487451 12.01345482 -32.875 13.6875 C-35.38069035 16.19319035 -35.52791088 18.08310371 -35.75 21.5625 C-35.75 22.2225 -35.75 22.8825 -35.75 23.5625 C-34.925 23.830625 -34.1 24.09875 -33.25 24.375 C-29.38084439 25.68774922 -25.57005706 27.11351284 -21.75 28.5625 C-21.75 29.2225 -21.75 29.8825 -21.75 30.5625 C-20.4196875 30.748125 -20.4196875 30.748125 -19.0625 30.9375 C-16.04612498 31.50662736 -13.54673946 32.32864436 -10.75 33.5625 C-10.75 34.2225 -10.75 34.8825 -10.75 35.5625 C-10.21375 35.645 -9.6775 35.7275 -9.125 35.8125 C-1.61047835 38.18550684 2.4576913 44.0071295 6.39453125 50.4296875 C8.6086195 55.94974314 8.04508729 62.76811553 6.4453125 68.390625 C2.97395752 76.19518862 -2.66106191 80.60731908 -10.23828125 84.23046875 C-15.9028854 86.24914932 -21.68065636 85.99864182 -27.625 85.9375 C-28.74519531 85.94910156 -29.86539063 85.96070313 -31.01953125 85.97265625 C-40.26805682 85.94028101 -49.54872933 84.84053084 -56.75 78.5625 C-57.91797103 75.34785076 -57.96377425 74.03335325 -56.53515625 70.88671875 C-55.96667969 70.01660156 -55.39820313 69.14648438 -54.8125 68.25 C-53.96365234 66.92548828 -53.96365234 66.92548828 -53.09765625 65.57421875 C-52.65292969 64.91035156 -52.20820312 64.24648437 -51.75 63.5625 C-47.74367024 63.98870529 -44.37810715 64.65428149 -40.625 66.125 C-34.38697282 68.29707465 -26.99913297 68.84893475 -20.62109375 66.91796875 C-18.78541718 66.02003539 -17.20108708 65.01358708 -15.75 63.5625 C-15.21884771 59.0028535 -15.21884771 59.0028535 -16.953125 54.98828125 C-19.10840697 53.27811186 -21.2337229 52.24050075 -23.75 51.125 C-24.72839844 50.69058594 -25.70679688 50.25617188 -26.71484375 49.80859375 C-29.55372994 48.64307934 -32.40069988 47.65257742 -35.3125 46.6875 C-43.56741262 43.77052801 -51.86010643 38.28698876 -56.8515625 30.94140625 C-58.18605384 27.40790526 -58.11859797 23.91348236 -58.125 20.1875 C-58.14949219 19.445 -58.17398438 18.7025 -58.19921875 17.9375 C-58.22723014 12.65268438 -57.14844868 9.79653055 -53.75 5.5625 C-52.945625 4.551875 -52.14125 3.54125 -51.3125 2.5 C-38.51593694 -9.53448486 -14.45264265 -8.15793766 0 0 Z " fill="#FEFEFE" transform="translate(984.75,73.4375)"/>
<path d="M0 0 C0 0.66 0 1.32 0 2 C0.99 2 1.98 2 3 2 C3.51332083 8.03151977 2.36872319 12.88695412 -1 18 C-3.5 19.1875 -3.5 19.1875 -6 19 C-7.35085807 18.36959957 -8.68252676 17.69748583 -10 17 C-12.33006911 16.64456573 -14.66327016 16.3086247 -17 16 C-17.33 15.67 -17.66 15.34 -18 15 C-25.54616138 14.32405897 -32.89865435 13.9966186 -39 19 C-41.29268213 21.50297288 -43.2264688 24.10812746 -45 27 C-45.37511719 27.57492188 -45.75023437 28.14984375 -46.13671875 28.7421875 C-48.62523711 35.25062013 -48.0216113 44.62990375 -46.01953125 51.234375 C-43.89283474 55.65790375 -41.912455 58.0740187 -38 61 C-38 61.66 -38 62.32 -38 63 C-36.576875 63.2165625 -36.576875 63.2165625 -35.125 63.4375 C-32 64 -32 64 -30 65 C-22.7876268 65.50675171 -17.11130075 64.85008534 -10.5 61.875 C-7.4056967 60.79199385 -5.25097 60.50528717 -2 61 C-0.25 63.1875 -0.25 63.1875 1 66 C1.391875 66.804375 1.78375 67.60875 2.1875 68.4375 C3.16465466 71.51929547 3.41897022 73.78789497 3 77 C-0.01947866 79.85373162 -3.26483699 80.9114112 -7.1875 82.125 C-10.88461356 83.03863015 -10.88461356 83.03863015 -14 85 C-31.45178061 86.58306427 -44.47679839 85.08275855 -58.234375 73.76953125 C-60 72 -60 72 -60 70 C-60.66 70 -61.32 70 -62 70 C-62 69.01 -62 68.02 -62 67 C-62.66 67 -63.32 67 -64 67 C-64.81604999 65.0848421 -65.62770632 63.16781166 -66.4375 61.25 C-66.88996094 60.18265625 -67.34242188 59.1153125 -67.80859375 58.015625 C-70.22045341 51.91085236 -70.21702779 46.38701202 -70.25 39.875 C-70.270625 38.87984375 -70.29125 37.8846875 -70.3125 36.859375 C-70.37251319 25.36684856 -67.45665415 16.79024806 -60 8 C-44.28428707 -7.85026527 -19.73827998 -11.51399665 0 0 Z " fill="#FEFEFE" transform="translate(1068,74)"/>
<path d="M0 0 C0.51332083 6.03151977 -0.63127681 10.88695412 -4 16 C-6.5 17.1875 -6.5 17.1875 -9 17 C-10.35085807 16.36959957 -11.68252676 15.69748583 -13 15 C-15.33006911 14.64456573 -17.66327016 14.3086247 -20 14 C-20.33 13.67 -20.66 13.34 -21 13 C-28.34829828 12.4462152 -34.47730412 12.45505659 -41 16 C-41.99 16.33 -42.98 16.66 -44 17 C-44 17.66 -44 18.32 -44 19 C-44.66 19 -45.32 19 -46 19 C-46.103125 19.53625 -46.20625 20.0725 -46.3125 20.625 C-47 23 -47 23 -48.51171875 25.6328125 C-50.25611572 29.57945341 -50.53603126 33.00874129 -50.5 37.25 C-50.49645508 37.99781738 -50.49291016 38.74563477 -50.48925781 39.51611328 C-50.30232046 45.77851475 -48.94960828 50.9902337 -45 56 C-43.66781763 57.00153279 -42.33470101 58.00182617 -41 59 C-41 59.66 -41 60.32 -41 61 C-39.576875 61.2165625 -39.576875 61.2165625 -38.125 61.4375 C-35 62 -35 62 -33 63 C-31.23229673 63.12240135 -29.45939538 63.17551153 -27.6875 63.1875 C-26.74261719 63.20167969 -25.79773438 63.21585937 -24.82421875 63.23046875 C-21.82847521 62.98600282 -19.72244267 62.2378892 -17 61 C-12.80528893 59.39351491 -9.49510531 58.78594737 -5 59 C1.09454908 70.01372084 1.09454908 70.01372084 0 75 C-3.05210734 77.8279004 -6.25347066 78.9078947 -10.1875 80.125 C-13.88461356 81.03863015 -13.88461356 81.03863015 -17 83 C-29.11542905 84.10726388 -43.42916797 84.98816643 -54 78 C-54.33 77.01 -54.66 76.02 -55 75 C-55.99 75 -56.98 75 -58 75 C-58 74.34 -58 73.68 -58 73 C-58.9590625 72.5978125 -58.9590625 72.5978125 -59.9375 72.1875 C-62 71 -62 71 -63 68 C-63.66 68 -64.32 68 -65 68 C-65.77831471 66.67101994 -66.54717244 65.33650123 -67.3125 64 C-67.74175781 63.2575 -68.17101562 62.515 -68.61328125 61.75 C-72.67593262 53.69336178 -73.55164276 47.29834039 -73.5 38.3125 C-73.49355469 37.15363281 -73.48710938 35.99476562 -73.48046875 34.80078125 C-73.19257148 21.34537204 -69.54099688 11.79786987 -60 2 C-44.10365656 -12.66798963 -17.21436361 -10.99806564 0 0 Z " fill="#FEFEFE" transform="translate(831,76)"/>
<path d="M0 0 C0 40.59 0 81.18 0 123 C-3.26811802 124.63405901 -6.84999407 124.18453757 -10.4375 124.1875 C-11.21416016 124.19974609 -11.99082031 124.21199219 -12.79101562 124.22460938 C-16.71232309 124.23474195 -18.66618745 124.2225417 -22 122 C-22.37473011 119.88540649 -22.37473011 119.88540649 -22.3742218 117.21728516 C-22.38123611 116.20772766 -22.38825043 115.19817017 -22.39547729 114.15802002 C-22.38783356 113.04626404 -22.38018982 111.93450806 -22.37231445 110.7890625 C-22.37596512 109.62155457 -22.37961578 108.45404663 -22.38337708 107.25115967 C-22.39010724 104.04449877 -22.38334966 100.83821442 -22.37004495 97.63158417 C-22.35874741 94.27994781 -22.36283664 90.92830899 -22.36479187 87.57666016 C-22.36567539 81.9475404 -22.35458251 76.31854093 -22.33618164 70.68945312 C-22.31501306 64.17628667 -22.31150376 57.6632965 -22.3177436 51.15010262 C-22.32343334 44.89128409 -22.31779623 38.63252781 -22.30657005 32.37371826 C-22.30270961 29.7070506 -22.30105244 27.04049771 -22.3031559 24.37384033 C-22.30352508 20.65276852 -22.29094754 16.93196863 -22.2746582 13.2109375 C-22.27713562 12.09918152 -22.27961304 10.98742554 -22.28216553 9.84197998 C-22.27508072 8.83242249 -22.26799591 7.82286499 -22.26069641 6.78271484 C-22.25864354 5.9022348 -22.25659067 5.02175476 -22.25447559 4.11459351 C-22 2 -22 2 -20 0 C-16.953125 -0.44921875 -16.953125 -0.44921875 -13.25 -0.6875 C-11.43242187 -0.81705078 -11.43242187 -0.81705078 -9.578125 -0.94921875 C-6 -1 -6 -1 0 0 Z " fill="#FEFEFE" transform="translate(510,33)"/>
<path d="M0 0 C1.62962803 1.62962803 1.12947012 3.45035661 1.13371277 5.70042419 C1.13797775 6.71702118 1.14224274 7.73361816 1.14663696 8.78102112 C1.14618378 9.90572311 1.14573059 11.03042511 1.14526367 12.18920898 C1.14862228 13.36632446 1.1519809 14.54343994 1.15544128 15.75622559 C1.16333684 18.99381069 1.16662022 22.23135739 1.16725707 25.46895099 C1.1682046 28.16788199 1.17188109 30.86680678 1.17542917 33.5657354 C1.18358118 39.93127795 1.18601272 46.29680635 1.18530273 52.66235352 C1.18470177 59.2373998 1.19525555 65.81236408 1.2110464 72.3873896 C1.22410486 78.0247656 1.22948735 83.66211475 1.22884732 89.29950577 C1.22859183 92.66983262 1.23147106 96.04008664 1.24202538 99.41039848 C1.25176792 103.16746802 1.24896998 106.92432388 1.24291992 110.68139648 C1.24853943 111.80407425 1.25415894 112.92675201 1.25994873 114.08345032 C1.25575424 115.10286713 1.25155975 116.12228394 1.24723816 117.17259216 C1.24778293 118.06174537 1.24832769 118.95089857 1.24888897 119.86699581 C1 122 1 122 -1 124 C-3.85277554 124.19896281 -6.58667372 124.27824931 -9.4375 124.25 C-10.60249023 124.26160156 -10.60249023 124.26160156 -11.79101562 124.2734375 C-15.70052168 124.25996806 -17.67947032 124.21368645 -21 122 C-21.37473011 119.88540649 -21.37473011 119.88540649 -21.3742218 117.21728516 C-21.38123611 116.20772766 -21.38825043 115.19817017 -21.39547729 114.15802002 C-21.38783356 113.04626404 -21.38018982 111.93450806 -21.37231445 110.7890625 C-21.37596512 109.62155457 -21.37961578 108.45404663 -21.38337708 107.25115967 C-21.39010724 104.04449877 -21.38334966 100.83821442 -21.37004495 97.63158417 C-21.35874741 94.27994781 -21.36283664 90.92830899 -21.36479187 87.57666016 C-21.36567539 81.9475404 -21.35458251 76.31854093 -21.33618164 70.68945312 C-21.31501306 64.17628667 -21.31150376 57.6632965 -21.3177436 51.15010262 C-21.32343334 44.89128409 -21.31779623 38.63252781 -21.30657005 32.37371826 C-21.30270961 29.7070506 -21.30105244 27.04049771 -21.3031559 24.37384033 C-21.30352508 20.65276852 -21.29094754 16.93196863 -21.2746582 13.2109375 C-21.27713562 12.09918152 -21.27961304 10.98742554 -21.28216553 9.84197998 C-21.27508072 8.83242249 -21.26799591 7.82286499 -21.26069641 6.78271484 C-21.25864354 5.9022348 -21.25659067 5.02175476 -21.25447559 4.11459351 C-21 2 -21 2 -19 0 C-15.91796875 -0.44921875 -15.91796875 -0.44921875 -12.1875 -0.6875 C-10.96417969 -0.77386719 -9.74085938 -0.86023437 -8.48046875 -0.94921875 C-5.42060946 -0.99386316 -2.93733191 -0.8089879 0 0 Z " fill="#FEFEFE" transform="translate(647,33)"/>
<path d="M0 0 C6.93 0 13.86 0 21 0 C22.75439163 1.75439163 22.11982963 4.05497456 22.12442017 6.39170837 C22.12082489 7.1642244 22.11722961 7.93674042 22.11352539 8.73266602 C22.11367142 9.5423584 22.11381744 10.35205078 22.1139679 11.1862793 C22.11326854 13.87551508 22.1054751 16.56468249 22.09765625 19.25390625 C22.09579215 21.11335716 22.09436821 22.97280856 22.09336853 24.83226013 C22.08954271 29.73629096 22.07971188 34.64029236 22.06866455 39.54431152 C22.05845181 44.54451092 22.05387121 49.54471506 22.04882812 54.54492188 C22.03808967 64.36329421 22.02101248 74.18164466 22 84 C17.96851319 86.2560455 14.40290611 86.2644501 9.875 86.1875 C8.78251953 86.1865332 8.78251953 86.1865332 7.66796875 86.18554688 C2.28148496 86.14074248 2.28148496 86.14074248 0 85 C0 56.95 0 28.9 0 0 Z " fill="#FEFEFE" transform="translate(275,71)"/>
<path d="M0 0 C3.76246197 2.68747284 5.97207415 5.47712627 7 10 C6.85671812 13.03450546 6.48330556 16.00219928 6 19 C5.34 19 4.68 19 4 19 C3.67 19.99 3.34 20.98 3 22 C-1.25909384 24.98136569 -4.79242832 25.55564592 -9.80859375 24.7578125 C-13.8654581 23.35490397 -16.13255534 20.80562586 -18 17 C-18.89455887 12.63157086 -18.52252485 9.20180714 -16.75 5.125 C-12.00126431 -0.64132191 -7.19368497 -1.14202417 0 0 Z " fill="#FEFEFE" transform="translate(291,35)"/>
<path d="M0 0 C4.24147614 2.36149819 8.13412433 5.06952233 12 8 C11.6324752 10.61722206 11.34662286 11.71866037 9.2578125 13.4140625 C8.55398437 13.81367187 7.85015625 14.21328125 7.125 14.625 C6.42632812 15.02976562 5.72765625 15.43453125 5.0078125 15.8515625 C4.34523438 16.23054688 3.68265625 16.60953125 3 17 C2.01 17.66 1.02 18.32 0 19 C-6.19630266 20.18202561 -10.78060836 18.61047896 -16.046875 15.37890625 C-18.29476697 13.79189452 -20.21431389 12.09624022 -22 10 C-21.67 9.01 -21.34 8.02 -21 7 C-20.01 7 -19.02 7 -18 7 C-18 6.34 -18 5.68 -18 5 C-12.27707687 1.21177665 -6.95135979 -1.97829579 0 0 Z " fill="#FEFEFE" transform="translate(99,84)"/>
</svg>
