<?xml version="1.0" encoding="UTF-8"?>
<!-- Generator: visioncortex VTracer 0.6.1 -->
<svg version="1.1" xmlns="http://www.w3.org/2000/svg" width="500" height="73">
<path d="M0 0 C0 0.66 0 1.32 0 2 C0.94875 1.95875 1.8975 1.9175 2.875 1.875 C6 2 6 2 8 4 C9.65438613 4.69658363 11.32254318 5.36096883 13 6 C14.34050052 6.65213539 15.67661368 7.31379969 17 8 C17 8.99 17 9.98 17 11 C18.051875 11.103125 19.10375 11.20625 20.1875 11.3125 C24.56745709 12.10232833 27.40948365 13.34321213 30.5 16.5625 C32.46944375 18.44988359 34.44936371 19.05092603 37 20 C39.00751815 20.98482022 41.00934459 21.98152514 43 23 C43 23.66 43 24.32 43 25 C43.763125 25.103125 44.52625 25.20625 45.3125 25.3125 C48.25501204 26.06523564 49.16632954 26.6424237 51 29 C52.0625 30.9375 52.0625 30.9375 53 33 C53.34399841 33.59759628 53.68799683 34.19519257 54.04241943 34.81089783 C55.17396642 37.3977005 55.25373925 39.2697164 55.25878906 42.08813477 C55.26509338 43.09920792 55.27139771 44.11028107 55.27789307 45.1519928 C55.2738446 46.23749924 55.26979614 47.32300568 55.265625 48.44140625 C55.26753845 49.56062973 55.2694519 50.67985321 55.27142334 51.83299255 C55.27278367 54.19750188 55.26909786 56.56201872 55.26074219 58.92651367 C55.25003075 62.55209048 55.26064806 66.17717289 55.2734375 69.80273438 C55.27211608 72.09895943 55.26955404 74.39518418 55.265625 76.69140625 C55.26967346 77.77893692 55.27372192 78.86646759 55.27789307 79.98695374 C55.26843658 81.49883522 55.26843658 81.49883522 55.25878906 83.04125977 C55.25719788 83.92854263 55.25560669 84.8158255 55.25396729 85.72999573 C55 88 55 88 53 91 C52.835 91.9075 52.67 92.815 52.5 93.75 C50.14016355 98.86297897 45.68414405 101.09962295 41 104 C40.15050781 104.56332031 39.30101562 105.12664062 38.42578125 105.70703125 C36 107 36 107 32 107 C32 107.66 32 108.32 32 109 C30.7625 109.5878125 30.7625 109.5878125 29.5 110.1875 C26.9022267 111.53277546 24.60818919 112.89429234 22.1875 114.5 C18.02557776 117.16459625 13.73222271 118.65263103 9 120 C9 120.66 9 121.32 9 122 C7.35 122 5.7 122 4 122 C4 122.66 4 123.32 4 124 C0.04 124 -3.92 124 -8 124 C-8 123.34 -8 122.68 -8 122 C-9.6396875 121.814375 -9.6396875 121.814375 -11.3125 121.625 C-15 121 -15 121 -18 119 C-18 118.34 -18 117.68 -18 117 C-19.65 116.67 -21.3 116.34 -23 116 C-23 115.34 -23 114.68 -23 114 C-23.56847656 113.84144531 -24.13695312 113.68289062 -24.72265625 113.51953125 C-29.60574822 112.04400596 -33.22587001 110.31919445 -37.23828125 107.1953125 C-39.18524508 105.87431265 -41.03042493 105.14315895 -43.25 104.375 C-46.76621134 103.08572251 -47.62628243 102.55481864 -50 100 C-50.886875 99.319375 -51.77375 98.63875 -52.6875 97.9375 C-53.450625 97.298125 -54.21375 96.65875 -55 96 C-55 95.34 -55 94.68 -55 94 C-55.66 93.67 -56.32 93.34 -57 93 C-58.50923527 88.61620219 -58.18406497 84.01640146 -58.1875 79.4375 C-58.19974609 78.57447266 -58.21199219 77.71144531 -58.22460938 76.82226562 C-58.22654297 75.99275391 -58.22847656 75.16324219 -58.23046875 74.30859375 C-58.23457764 73.55376709 -58.23868652 72.79894043 -58.24291992 72.02124023 C-58 70 -58 70 -56 67 C-54.02 67.33 -52.04 67.66 -50 68 C-49.67 68.99 -49.34 69.98 -49 71 C-47.6078125 71.4640625 -47.6078125 71.4640625 -46.1875 71.9375 C-42.66555063 73.11148312 -41.57363863 74.42636137 -39 77 C-36.68191636 78.03485877 -34.34824702 79.0355414 -32 80 C-29.95387045 81.40306026 -28.09705658 82.91967732 -26.1875 84.5 C-23.31129391 86.4722556 -20.20187013 87.6362405 -17 89 C-16.01 89.99 -16.01 89.99 -15 91 C-13.7934375 91.4640625 -13.7934375 91.4640625 -12.5625 91.9375 C-9.97017665 93.01236578 -8.9367665 94.0632335 -7 96 C-4.89667109 96.71447643 -4.89667109 96.71447643 -3 97 C-3 97.66 -3 98.32 -3 99 C-2.34 99 -1.68 99 -1 99 C-1 98.34 -1 97.68 -1 97 C-0.13375 96.7525 0.7325 96.505 1.625 96.25 C5.22423275 94.91695083 7.8742461 93.21407568 11 91 C14.38287926 88.63198452 16.98308168 86.89264852 21 86 C21.33 85.34 21.66 84.68 22 84 C24.3140622 83.26924352 26.64828869 82.59861742 29 82 C29.05504137 77.0000269 29.05736093 72.00373628 29.01220703 67.00366211 C29.00412866 65.30542787 29.01010283 63.60706334 29.03076172 61.90893555 C29.46268911 52.19680315 29.46268911 52.19680315 26.27099609 43.34936523 C24.24952873 41.55087777 22.39602216 40.24236067 20 39 C18.88625 38.401875 17.7725 37.80375 16.625 37.1875 C15.75875 36.795625 14.8925 36.40375 14 36 C13.34 35.34 12.68 34.68 12 34 C10.27223156 33.2502137 8.54260841 32.50382489 6.796875 31.796875 C5 31 5 31 2.4375 29.3125 C-0.54522448 27.70641759 -2.66180292 27.76710253 -6 28 C-6.495 29.485 -6.495 29.485 -7 31 C-8.32 31 -9.64 31 -11 31 C-11 31.66 -11 32.32 -11 33 C-12.41042956 33.84384675 -13.82864132 34.67469496 -15.25 35.5 C-16.03890625 35.9640625 -16.8278125 36.428125 -17.640625 36.90625 C-20 38 -20 38 -24 38 C-24.495 38.99 -24.495 38.99 -25 40 C-25.99 39.505 -25.99 39.505 -27 39 C-27.17492068 34.95888378 -27.28106344 30.91874546 -27.375 26.875 C-27.42527344 25.73289062 -27.47554687 24.59078125 -27.52734375 23.4140625 C-27.69313425 13.90874039 -27.69313425 13.90874039 -24.28125 10.36328125 C-21.73605769 8.34755503 -19.06962374 6.68826683 -16.125 5.3125 C-15.27035156 4.91289063 -14.41570312 4.51328125 -13.53515625 4.1015625 C-4.09574468 0 -4.09574468 0 0 0 Z " fill="#D2791C" transform="translate(90,51)"/>
<path d="M0 0 C0.804375 0.495 1.60875 0.99 2.4375 1.5 C2.4375 2.16 2.4375 2.82 2.4375 3.5 C3.200625 3.603125 3.96375 3.70625 4.75 3.8125 C7.72873061 4.57450085 8.3743354 5.35087021 10.4375 7.5 C12.98147714 8.63809504 15.55011837 9.53839263 18.1875 10.4375 C18.93 10.788125 19.6725 11.13875 20.4375 11.5 C20.9325 12.985 20.9325 12.985 21.4375 14.5 C22.13875 14.5825 22.84 14.665 23.5625 14.75 C27.12277538 15.67876749 29.50780552 17.30272914 32.4375 19.5 C32.9325 20.49 32.9325 20.49 33.4375 21.5 C34.18 21.603125 34.9225 21.70625 35.6875 21.8125 C40.53965075 23.02553769 42.77117983 26.56153807 45.5703125 30.50390625 C48.23153157 35.26299785 47.91525753 39.99120761 47.75 45.3125 C47.74033203 46.26576172 47.73066406 47.21902344 47.72070312 48.20117188 C47.60726305 55.1604739 47.60726305 55.1604739 46.4375 57.5 C41.98304121 55.90729676 38.1393148 53.64365997 34.125 51.1875 C33.46000488 50.78450684 32.79500977 50.38151367 32.10986328 49.96630859 C27.52744045 47.18368304 22.97425202 44.35647349 18.4375 41.5 C15.48879635 39.69056822 12.55282174 38.00394843 9.4375 36.5 C8.7775 36.17 8.1175 35.84 7.4375 35.5 C7.4375 34.84 7.4375 34.18 7.4375 33.5 C6.7775 33.5 6.1175 33.5 5.4375 33.5 C5.4375 32.84 5.4375 32.18 5.4375 31.5 C4.7775 31.4175 4.1175 31.335 3.4375 31.25 C0.69888474 30.56534618 -1.06742029 29.7290271 -3.5 28.375 C-6.28646103 26.94256037 -7.46711207 26.5 -10.6875 26.5 C-14.06571752 27.67503218 -16.60632778 29.50779698 -19.5625 31.5 C-20.8825 31.5 -22.2025 31.5 -23.5625 31.5 C-23.8925 32.49 -24.2225 33.48 -24.5625 34.5 C-26.20307473 35.22851683 -27.87537828 35.88694003 -29.5625 36.5 C-31.1530087 37.41109336 -32.71690844 38.37029144 -34.25 39.375 C-35.01699219 39.86742187 -35.78398438 40.35984375 -36.57421875 40.8671875 C-38.84746549 42.73401881 -39.52908687 43.75351352 -40.5625 46.5 C-40.83856779 49.99012357 -40.83856779 49.99012357 -40.7578125 53.890625 C-40.75356766 54.94754547 -40.75356766 54.94754547 -40.74923706 56.02581787 C-40.73807801 58.2673876 -40.71298193 60.50855186 -40.6875 62.75 C-40.67746464 64.27343171 -40.66833976 65.79686971 -40.66015625 67.3203125 C-40.63815291 71.04700586 -40.60365272 74.77346333 -40.5625 78.5 C-39.923125 78.78875 -39.28375 79.0775 -38.625 79.375 C-36.5625 80.5 -36.5625 80.5 -35.5625 82.5 C-34.77875 82.644375 -33.995 82.78875 -33.1875 82.9375 C-30.5625 83.5 -30.5625 83.5 -29.35546875 84.7734375 C-26.6820578 87.34783323 -23.493411 88.94444239 -20.25 90.6875 C-19.59837891 91.05552734 -18.94675781 91.42355469 -18.27539062 91.80273438 C-14.23091886 93.98488681 -11.27284214 95.08879277 -6.5625 94.5 C-4.88220006 93.52308143 -3.21321396 92.52611949 -1.5625 91.5 C-0.0775 91.995 -0.0775 91.995 1.4375 92.5 C1.1075 91.51 0.7775 90.52 0.4375 89.5 C1.39462891 89.33564453 1.39462891 89.33564453 2.37109375 89.16796875 C3.19738281 89.00941406 4.02367188 88.85085937 4.875 88.6875 C5.69871094 88.53667969 6.52242188 88.38585937 7.37109375 88.23046875 C8.39396484 87.86888672 8.39396484 87.86888672 9.4375 87.5 C9.9325 86.015 9.9325 86.015 10.4375 84.5 C12.4175 84.5 14.3975 84.5 16.4375 84.5 C16.5246142 88.58319884 16.57793048 92.66615864 16.625 96.75 C16.65013672 97.90886719 16.67527344 99.06773438 16.70117188 100.26171875 C16.71083984 101.37675781 16.72050781 102.49179688 16.73046875 103.640625 C16.7461792 104.66704102 16.76188965 105.69345703 16.77807617 106.75097656 C16.38449197 109.92786411 15.76084618 111.30800329 13.4375 113.5 C12.1175 113.5 10.7975 113.5 9.4375 113.5 C9.4375 114.16 9.4375 114.82 9.4375 115.5 C8.7775 115.726875 8.1175 115.95375 7.4375 116.1875 C4.86183497 117.31435345 2.82523614 118.51829327 0.5 120.0625 C-2.91159967 122.21148895 -5.43059594 123.5 -9.5625 123.5 C-12.35715122 122.69209174 -14.8794311 121.65649521 -17.5625 120.5 C-17.5625 119.84 -17.5625 119.18 -17.5625 118.5 C-18.614375 118.4175 -19.66625 118.335 -20.75 118.25 C-24.94887021 117.42399275 -26.39759475 116.25914816 -29.5625 113.5 C-31.54570018 112.46708324 -33.54597806 111.4662501 -35.5625 110.5 C-38.4375 108.9375 -38.4375 108.9375 -40.5625 107.5 C-40.5625 106.84 -40.5625 106.18 -40.5625 105.5 C-41.27664062 105.39171875 -41.99078125 105.2834375 -42.7265625 105.171875 C-47.80604853 103.9684706 -52.09436203 101.12718842 -56.5625 98.5 C-57.65111328 97.87544922 -57.65111328 97.87544922 -58.76171875 97.23828125 C-62.50273893 94.87759556 -64.12834434 92.93677833 -65.20275879 88.66842651 C-65.94533477 84.19237151 -65.84587084 79.68580982 -65.828125 75.16015625 C-65.83003845 74.07923203 -65.8319519 72.9983078 -65.83392334 71.8846283 C-65.83528005 69.60610724 -65.83161964 67.32757832 -65.82324219 65.04907227 C-65.81254609 61.57745846 -65.82314986 58.10636333 -65.8359375 54.63476562 C-65.83461561 52.41406137 -65.83205261 50.19335743 -65.828125 47.97265625 C-65.83217346 46.94221695 -65.83622192 45.91177765 -65.84039307 44.85011292 C-65.75412545 31.46946854 -65.75412545 31.46946854 -61.93359375 26.29296875 C-57.10391717 22.28287365 -52.67433778 19.98551613 -46.5625 18.5 C-46.5625 17.84 -46.5625 17.18 -46.5625 16.5 C-45.82 16.231875 -45.0775 15.96375 -44.3125 15.6875 C-41.60028531 14.64339562 -41.60028531 14.64339562 -39.671875 13.08203125 C-36.87132061 10.98161546 -33.86305517 9.42769386 -30.78125 7.78125 C-28.51209487 6.54242169 -28.51209487 6.54242169 -26.46875 4.84375 C-24.5625 3.5 -24.5625 3.5 -21.5625 3.5 C-21.5625 2.84 -21.5625 2.18 -21.5625 1.5 C-14.1615641 -1.4393788 -7.57141254 -3.18796317 0 0 Z M-42.5625 46.5 C-42.5625 56.4 -42.5625 66.3 -42.5625 76.5 C-42.2325 76.5 -41.9025 76.5 -41.5625 76.5 C-41.5625 66.6 -41.5625 56.7 -41.5625 46.5 C-41.8925 46.5 -42.2225 46.5 -42.5625 46.5 Z " fill="#D27A1E" transform="translate(97.5625,16.5)"/>
<path d="M0 0 C0.88042969 -0.01224609 1.76085937 -0.02449219 2.66796875 -0.03710938 C3.50972656 -0.03904297 4.35148438 -0.04097656 5.21875 -0.04296875 C5.99154297 -0.04707764 6.76433594 -0.05118652 7.56054688 -0.05541992 C9.5 0.1875 9.5 0.1875 11.5 2.1875 C11.74543141 4.83537789 11.87349386 7.38653823 11.9140625 10.0390625 C11.93342865 10.81309418 11.9527948 11.58712585 11.9727478 12.38461304 C12.0325983 14.86046275 12.07895011 17.33635883 12.125 19.8125 C12.16317482 21.48960377 12.20222625 23.16668784 12.2421875 24.84375 C12.33830409 28.95817353 12.42231439 33.07268886 12.5 37.1875 C13.985 37.6825 13.985 37.6825 15.5 38.1875 C15.83 37.5275 16.16 36.8675 16.5 36.1875 C41.98730268 35.07219458 41.98730268 35.07219458 51.5 41.1875 C52.84660594 42.84346135 54.18007041 44.51019817 55.5 46.1875 C56.34433594 46.6825 57.18867187 47.1775 58.05859375 47.6875 C61.01714336 49.50523288 61.9659246 51.12776777 63.5625 54.1875 C64.02785156 55.05375 64.49320313 55.92 64.97265625 56.8125 C69.14589556 66.03418482 71.1150035 73.506299 70.875 83.6875 C70.87371094 84.75742188 70.87242187 85.82734375 70.87109375 86.9296875 C70.782291 94.7640635 70.782291 94.7640635 68.5 98.1875 C67.83841957 100.23334079 67.83841957 100.23334079 67.375 102.375 C67.08625 103.633125 66.7975 104.89125 66.5 106.1875 C65.84 106.1875 65.18 106.1875 64.5 106.1875 C64.83 107.1775 65.16 108.1675 65.5 109.1875 C64.21802734 110.45207031 64.21802734 110.45207031 62.91015625 111.7421875 C61.79413953 112.84882593 60.67826128 113.95560402 59.5625 115.0625 C58.71655273 115.89587891 58.71655273 115.89587891 57.85351562 116.74609375 C54.80139972 119.6796571 54.80139972 119.6796571 52.5 123.1875 C50.85 123.1875 49.2 123.1875 47.5 123.1875 C47.005 124.6725 47.005 124.6725 46.5 126.1875 C41.22880985 128.930139 35.68802117 128.71447567 29.875 128.9375 C28.82570313 128.99292969 27.77640625 129.04835937 26.6953125 129.10546875 C25.18710937 129.16927734 25.18710937 129.16927734 23.6484375 129.234375 C22.27437744 129.29383301 22.27437744 129.29383301 20.87255859 129.35449219 C18.5 129.1875 18.5 129.1875 15.5 127.1875 C13.50428677 126.50810826 11.50405227 125.84188441 9.5 125.1875 C8.15278717 124.54934656 6.81252882 123.89424629 5.5 123.1875 C5.14164063 123.67734375 4.78328125 124.1671875 4.4140625 124.671875 C1.60989564 126.89231733 -0.60347095 126.51558268 -4.125 126.4375 C-5.87683594 126.41429687 -5.87683594 126.41429687 -7.6640625 126.390625 C-10.5 126.1875 -10.5 126.1875 -11.5 125.1875 C-11.59600136 123.580608 -11.62187889 121.96948231 -11.62025452 120.35972595 C-11.62162918 119.31499619 -11.62300385 118.27026642 -11.62442017 117.19387817 C-11.62082489 116.03798187 -11.61722961 114.88208557 -11.61352539 113.69116211 C-11.61367142 112.48157333 -11.61381744 111.27198456 -11.6139679 110.02574158 C-11.61338893 106.69943649 -11.60835973 103.37319281 -11.60139394 100.0468986 C-11.59515978 96.57420071 -11.59455655 93.10150207 -11.59336853 89.62879944 C-11.5902554 83.04853807 -11.58204225 76.46829324 -11.57201904 69.88803917 C-11.56085734 62.39843888 -11.55534731 54.90883782 -11.55032361 47.4192313 C-11.53985962 32.00864461 -11.52226053 16.59807443 -11.5 1.1875 C-7.9639604 -0.5805198 -3.89428745 0.00285087 0 0 Z M-10.5 2.1875 C-9.5 4.1875 -9.5 4.1875 -9.5 4.1875 Z M21.5 55.1875 C21.5 55.8475 21.5 56.5075 21.5 57.1875 C19.8603125 57.0946875 19.8603125 57.0946875 18.1875 57 C14.64771415 56.84384175 14.64771415 56.84384175 12.79676819 58.42372131 C11.17471118 60.62993644 11.10409382 61.87252452 11.06420898 64.59545898 C11.04506943 65.48325546 11.02592987 66.37105194 11.00621033 67.28575134 C11.00287186 68.24203934 10.99953339 69.19832733 10.99609375 70.18359375 C10.98610855 71.16868423 10.97612335 72.15377472 10.96583557 73.16871643 C10.95064527 75.2524902 10.94361006 77.33633694 10.9440918 79.42016602 C10.93753063 82.61010772 10.88305931 85.7969375 10.82617188 88.98632812 C10.81736975 91.01040601 10.81141557 93.03449869 10.80859375 95.05859375 C10.7870372 96.01285751 10.76548065 96.96712128 10.74327087 97.95030212 C10.76971588 100.50300289 10.84962273 102.71848522 11.5 105.1875 C17.85615135 110.85077793 24.44284701 110.32830462 32.5 110.1875 C32.5 109.5275 32.5 108.8675 32.5 108.1875 C33.180625 108.166875 33.86125 108.14625 34.5625 108.125 C38.87654348 106.74817761 41.86842942 103.85046424 44.5 100.1875 C44.5 98.8675 44.5 97.5475 44.5 96.1875 C45.16 96.1875 45.82 96.1875 46.5 96.1875 C47.54005702 92.80731469 47.58004482 89.7094721 47.5 86.1875 C47.83 86.1875 48.16 86.1875 48.5 86.1875 C48.58226668 83.14363276 48.47608217 81.11574652 47.5 78.1875 C47.603125 77.341875 47.70625 76.49625 47.8125 75.625 C47.23076309 69.22589403 43.04517206 64.3881996 39.4375 59.25 C35.11947041 56.21819199 26.55752799 52.65873601 21.5 55.1875 Z " fill="#000100" transform="translate(542.5,31.8125)"/>
<path d="M0 0 C6.6 0 13.2 0 20 0 C21.41130503 2.82261007 21.16394327 5.22081484 21.20532227 8.37744141 C21.21522186 9.03122269 21.22512146 9.68500397 21.23532104 10.3585968 C21.26694711 12.52288167 21.29169772 14.6871885 21.31640625 16.8515625 C21.33697483 18.35086645 21.35797128 19.85016459 21.37937927 21.34945679 C21.43460988 25.29825131 21.48401476 29.24709826 21.53222656 33.19598389 C21.58243439 37.22445346 21.6381242 41.25284678 21.69335938 45.28125 C21.80095303 53.18743556 21.90239529 61.09368485 22 69 C26.82550144 64.8666829 31.46205639 60.65552047 35.85546875 56.06640625 C36.89980157 54.99486829 37.94474041 53.92392069 38.99023438 52.85351562 C40.60241201 51.1978391 42.21028677 49.53869729 43.80834961 47.86938477 C45.37520164 46.23607029 46.95740403 44.61903318 48.54296875 43.00390625 C49.01703659 42.50089493 49.49110443 41.99788361 49.97953796 41.47962952 C52.16610825 39.27570646 53.58583001 38.07558177 56.67700195 37.51147461 C60.42730666 38.30016191 61.78389227 41.02575016 64 44 C64.556875 44.556875 65.11375 45.11375 65.6875 45.6875 C67 47 67 47 69 50 C69 51.32 69 52.64 69 54 C67.64991511 54.95977599 66.28537934 55.90365991 64.86669922 56.75878906 C61.02761349 59.31148483 57.84539395 62.65994662 54.5625 65.875 C53.81806641 66.56980469 53.07363281 67.26460938 52.30664062 67.98046875 C48.0261458 71.95738483 48.0261458 71.95738483 46.90234375 77.4453125 C47.73262586 80.13516204 47.73262586 80.13516204 50 81 C49.67 81.66 49.34 82.32 49 83 C49.99 83.33 50.98 83.66 52 84 C52.7006231 85.65267949 53.36257559 87.32193196 54 89 C55.11806193 90.51623964 56.28715164 91.99595777 57.5 93.4375 C60.23506907 96.83785615 62.00243483 99.67721761 63 104 C63.66 104 64.32 104 65 104 C65.38671875 104.81984375 65.7734375 105.6396875 66.171875 106.484375 C66.69265625 107.56203125 67.2134375 108.6396875 67.75 109.75 C68.26046875 110.81734375 68.7709375 111.8846875 69.296875 112.984375 C70.82293869 116.01825704 70.82293869 116.01825704 73.078125 118.015625 C75.4544998 120.46928029 76.11106663 122.74057766 77 126 C73.27098186 126.08736736 69.54222835 126.14051482 65.8125 126.1875 C64.22985352 126.22520508 64.22985352 126.22520508 62.61523438 126.26367188 C61.59365234 126.27333984 60.57207031 126.28300781 59.51953125 126.29296875 C58.11344604 126.31653442 58.11344604 126.31653442 56.67895508 126.34057617 C53.43240462 125.92784147 51.60949712 124.95395221 49 123 C47.41197055 119.8239411 46.230119 116.65967448 45.0625 113.3125 C44.11718506 110.88663394 44.11718506 110.88663394 42.0625 109.125 C39.41956949 106.40198069 38.45472202 103.47868309 37 100 C35.35507315 98.02608778 34.28731079 97.1436554 32 96 C31.375 93.4375 31.375 93.4375 31 91 C28.02574636 91.33047263 26.27424921 91.79277554 23.86621094 93.61230469 C21.36226266 96.81594338 21.45906759 98.91501232 21.390625 102.953125 C21.37408875 103.61334656 21.35755249 104.27356812 21.34051514 104.95379639 C21.29211549 107.05262626 21.27068481 109.15073222 21.25 111.25 C21.22183317 112.6771196 21.19190472 114.10420559 21.16015625 115.53125 C21.08636237 119.02067609 21.03673721 122.50996472 21 126 C17.54168414 126.02894547 14.08339928 126.04678 10.625 126.0625 C9.64015625 126.07087891 8.6553125 126.07925781 7.640625 126.08789062 C6.22910156 126.09272461 6.22910156 126.09272461 4.7890625 126.09765625 C3.91975098 126.10289307 3.05043945 126.10812988 2.15478516 126.11352539 C0 126 0 126 -2 125 C-2 84.74 -2 44.48 -2 3 C-1.01 2.67 -0.02 2.34 1 2 C0.67 1.34 0.34 0.68 0 0 Z M66 51 C65.67 51.66 65.34 52.32 65 53 C65.66 53 66.32 53 67 53 C66.67 52.34 66.34 51.68 66 51 Z " fill="#000100" transform="translate(852,32)"/>
<path d="M0 0 C7.38315162 -0.07637444 14.76620046 -0.12873584 22.1496582 -0.16479492 C24.65881152 -0.17983529 27.16793874 -0.20027272 29.67700195 -0.22631836 C33.29384825 -0.26291014 36.91034542 -0.27977448 40.52734375 -0.29296875 C42.19663185 -0.31619453 42.19663185 -0.31619453 43.89964294 -0.33988953 C52.11934237 -0.34164593 58.75785825 1.08682568 66 5 C66.495 5.515625 66.99 6.03125 67.5 6.5625 C68.89086835 8.1643612 68.89086835 8.1643612 70.90234375 8.32421875 C73.79649606 9.25659929 74.4777226 10.69745187 76.0625 13.25 C76.57167969 14.06597656 77.08085937 14.88195313 77.60546875 15.72265625 C78.06566406 16.47417969 78.52585937 17.22570312 79 18 C79.61875 18.886875 80.2375 19.77375 80.875 20.6875 C82.29952584 23.61569201 82.06474432 25.76278419 82 29 C82.350625 30.134375 82.70125 31.26875 83.0625 32.4375 C84.12175806 36.46268063 83.79662895 38.94443442 83 43 C82.835 44.216875 82.67 45.43375 82.5 46.6875 C82.12150638 49.19502023 81.68216104 51.56371057 81 54 C80.34 54 79.68 54 79 54 C78.94457031 54.70769531 78.88914062 55.41539063 78.83203125 56.14453125 C77.72807617 59.93322216 75.46939536 62.04236016 72.6875 64.6875 C72.20087891 65.17283203 71.71425781 65.65816406 71.21289062 66.15820312 C68.65292903 68.65614681 66.31456632 70.63219861 63 72 C61.8553125 72.556875 61.8553125 72.556875 60.6875 73.125 C57.36839066 74.20564025 54.46804489 74.13600176 51 74 C50.505 75.485 50.505 75.485 50 77 C49.15703369 76.99476318 48.31406738 76.98952637 47.44555664 76.98413086 C44.32772064 76.96712174 41.20990823 76.95456594 38.09204102 76.94506836 C36.74079614 76.94002943 35.38955674 76.93319823 34.03833008 76.92456055 C32.09979566 76.91247581 30.161222 76.90730172 28.22265625 76.90234375 C27.05484619 76.89710693 25.88703613 76.89187012 24.68383789 76.88647461 C22.08108449 76.69338505 22.08108449 76.69338505 21 78 C20.83958807 81.10085221 20.74036598 84.18187579 20.68359375 87.28515625 C20.66281265 88.21597519 20.64203156 89.14679413 20.62062073 90.1058197 C20.55502069 93.09130182 20.49619198 96.07687484 20.4375 99.0625 C20.3943247 101.08138976 20.35071075 103.1002702 20.30664062 105.11914062 C20.19932871 110.07933297 20.09809112 115.03961709 20 120 C16.85418577 120.02888514 13.70840531 120.04675923 10.5625 120.0625 C9.66466797 120.07087891 8.76683594 120.07925781 7.84179688 120.08789062 C6.56079102 120.09272461 6.56079102 120.09272461 5.25390625 120.09765625 C4.46314697 120.10289307 3.6723877 120.10812988 2.85766602 120.11352539 C1 120 1 120 0 119 C-0.09584998 117.45646869 -0.1218807 115.90854892 -0.12025452 114.36204529 C-0.12162918 113.35938629 -0.12300385 112.35672729 -0.12442017 111.32368469 C-0.12082489 110.21454208 -0.11722961 109.10539948 -0.11352539 107.96264648 C-0.11367142 106.80182556 -0.11381744 105.64100464 -0.1139679 104.44500732 C-0.11326817 100.58701748 -0.10547298 96.72907522 -0.09765625 92.87109375 C-0.09579228 90.20451272 -0.09431912 87.53793436 -0.09336853 84.87135315 C-0.09025548 78.5567112 -0.08204244 72.24208649 -0.07201904 65.92745215 C-0.0608571 58.74014367 -0.05534725 51.55283439 -0.05032361 44.3655194 C-0.0398598 29.57700411 -0.02226086 14.78850235 0 0 Z M21 15 C19.86507721 17.26984558 19.86779496 18.530551 19.85473633 21.05078125 C19.84835648 21.88504639 19.84197662 22.71931152 19.83540344 23.57885742 C19.83429062 24.48095947 19.8331778 25.38306152 19.83203125 26.3125 C19.82870285 27.23716064 19.82537445 28.16182129 19.82194519 29.11450195 C19.81687779 31.07144675 19.81453681 33.02840021 19.81469727 34.98535156 C19.81250891 37.98777394 19.79434614 40.98983009 19.77539062 43.9921875 C19.77245711 45.89062374 19.77047203 47.78906173 19.76953125 49.6875 C19.76234573 50.58960205 19.75516022 51.4917041 19.74775696 52.42114258 C19.7523719 53.67254028 19.7523719 53.67254028 19.75708008 54.94921875 C19.75565506 55.68487061 19.75423004 56.42052246 19.75276184 57.1784668 C19.84676461 59.25048317 19.84676461 59.25048317 22 61 C24.08164831 61.30983863 24.08164831 61.30983863 26.46484375 61.265625 C27.34720703 61.26820312 28.22957031 61.27078125 29.13867188 61.2734375 C30.06228516 61.26570313 30.98589844 61.25796875 31.9375 61.25 C32.85724609 61.25773437 33.77699219 61.26546875 34.72460938 61.2734375 C35.60826172 61.27085938 36.49191406 61.26828125 37.40234375 61.265625 C38.61651978 61.26224121 38.61651978 61.26224121 39.85522461 61.25878906 C42.29701389 61.1277371 42.29701389 61.1277371 45 59 C46.423125 58.8453125 46.423125 58.8453125 47.875 58.6875 C52.82593908 57.5982934 54.97621214 54.44742421 57.8125 50.4375 C59.29197962 47.8525695 59.29197962 47.8525695 59 44 C59.66 44 60.32 44 61 44 C61 40.7 61 37.4 61 34 C60.34 34 59.68 34 59 34 C59.2784375 32.824375 59.2784375 32.824375 59.5625 31.625 C60.25962266 29.02910225 60.25962266 29.02910225 59 27 C58.34 27 57.68 27 57 27 C56.7525 26.4225 56.505 25.845 56.25 25.25 C53.03829484 19.46893072 48.12986485 16.96485441 42 15 C38.28953623 14.55743994 34.66708703 14.6150393 30.9375 14.75 C29.97650391 14.76804687 29.01550781 14.78609375 28.02539062 14.8046875 C25.68250773 14.85131204 23.3418171 14.91671831 21 15 Z M81 32 C82 34 82 34 82 34 Z M63 66 C63 66.99 63 67.98 63 69 C63.66 68.67 64.32 68.34 65 68 C64.34 67.34 63.68 66.68 63 66 Z " fill="#000100" transform="translate(176,38)"/>
<path d="M0 0 C2.04802496 -0.00967761 4.09503432 -0.04067386 6.14282227 -0.07226562 C7.43381836 -0.07742187 8.72481445 -0.08257812 10.05493164 -0.08789062 C11.83637573 -0.10190918 11.83637573 -0.10190918 13.65380859 -0.11621094 C17.03830888 0.27290399 18.26679609 1.00429539 20.75415039 3.24023438 C22.25467737 3.97099361 23.77672162 4.65914316 25.31665039 5.30273438 C28.07355053 6.46035349 30.23986617 7.5640449 32.75415039 9.24023438 C32.75415039 9.90023437 32.75415039 10.56023437 32.75415039 11.24023438 C33.74415039 11.24023438 34.73415039 11.24023438 35.75415039 11.24023438 C36.59263843 12.69561005 37.42478973 14.15463811 38.25415039 15.61523438 C38.95024414 16.83339844 38.95024414 16.83339844 39.66040039 18.07617188 C40.75415039 20.24023437 40.75415039 20.24023437 40.75415039 22.24023438 C41.41415039 22.24023438 42.07415039 22.24023438 42.75415039 22.24023438 C44.75200474 26.36080898 44.93250554 29.69217802 44.75415039 34.24023438 C45.41415039 34.24023438 46.07415039 34.24023438 46.75415039 34.24023438 C47.98186653 38.60000441 47.93805528 42.73915868 47.94165039 47.24023438 C47.95389648 48.0471875 47.96614258 48.85414062 47.97875977 49.68554688 C47.98069336 50.46671875 47.98262695 51.24789062 47.98461914 52.05273438 C47.98872803 52.76042969 47.99283691 53.468125 47.99707031 54.19726562 C47.7139726 56.5781316 46.88221118 58.13809454 45.75415039 60.24023438 C45.07630047 62.57034347 44.40998246 64.90383262 43.75415039 67.24023438 C43.1121539 68.91655855 42.45520882 70.5877395 41.75415039 72.24023438 C41.09415039 72.24023438 40.43415039 72.24023438 39.75415039 72.24023438 C39.68583008 72.95953125 39.61750977 73.67882812 39.54711914 74.41992188 C38.51516158 78.09023398 36.78059534 79.71214021 34.06665039 82.36523438 C33.2171582 83.2134375 32.36766602 84.06164062 31.49243164 84.93554688 C25.25253181 90.18738838 18.18037364 92.41944514 10.11352539 92.68945312 C8.87860352 92.73263672 7.64368164 92.77582031 6.37133789 92.8203125 C5.09516602 92.85576172 3.81899414 92.89121094 2.50415039 92.92773438 C1.21250977 92.97478516 -0.07913086 93.02183594 -1.40991211 93.0703125 C-10.97414394 93.37608721 -10.97414394 93.37608721 -13.24584961 92.24023438 C-13.24584961 91.58023438 -13.24584961 90.92023438 -13.24584961 90.24023438 C-14.21522461 90.19898438 -15.18459961 90.15773438 -16.18334961 90.11523438 C-21.25573634 89.41882062 -25.41019223 86.51924306 -29.24584961 83.24023438 C-29.24584961 82.58023438 -29.24584961 81.92023438 -29.24584961 81.24023438 C-30.23584961 80.91023438 -31.22584961 80.58023438 -32.24584961 80.24023438 C-33.43334961 77.67773437 -33.43334961 77.67773437 -34.24584961 75.24023438 C-34.90584961 75.24023438 -35.56584961 75.24023438 -36.24584961 75.24023438 C-36.87452629 73.86691153 -37.49858852 72.49147605 -38.12084961 71.11523438 C-38.46889648 70.34953125 -38.81694336 69.58382812 -39.17553711 68.79492188 C-44.07951587 57.08980468 -44.32826498 42.73472662 -42.24584961 30.24023438 C-41.58584961 29.58023438 -40.92584961 28.92023438 -40.24584961 28.24023438 C-40.12209961 27.47710937 -39.99834961 26.71398437 -39.87084961 25.92773438 C-39.08041648 22.52887191 -37.47206355 20.9116911 -35.24584961 18.24023438 C-34.41053711 16.53867188 -34.41053711 16.53867188 -33.55834961 14.80273438 C-31.044734 10.23616578 -26.87982367 7.46747895 -22.24584961 5.24023438 C-20.92584961 5.24023438 -19.60584961 5.24023438 -18.24584961 5.24023438 C-18.24584961 4.58023438 -18.24584961 3.92023438 -18.24584961 3.24023438 C-17.44147461 2.93085937 -16.63709961 2.62148437 -15.80834961 2.30273438 C-10.38654123 0.05466748 -6.17792809 0.01770391 0 0 Z M-7.49584961 20.79882812 C-13.55727076 25.58359103 -13.55727076 25.58359103 -17.18334961 32.17773438 C-17.20397461 32.85835937 -17.22459961 33.53898437 -17.24584961 34.24023438 C-17.90584961 34.24023438 -18.56584961 34.24023438 -19.24584961 34.24023438 C-22.14887022 44.03792893 -22.41658803 53.70295141 -18.24584961 63.24023438 C-15.19578488 67.35119119 -11.87670899 70.09491788 -7.24584961 72.24023438 C-6.52397461 72.61148438 -5.80209961 72.98273438 -5.05834961 73.36523438 C-1.1076249 74.59434873 2.64950523 74.40120085 6.75415039 74.24023438 C6.75415039 73.58023438 6.75415039 72.92023438 6.75415039 72.24023438 C8.40415039 72.24023438 10.05415039 72.24023438 11.75415039 72.24023438 C12.24915039 71.25023437 12.24915039 71.25023437 12.75415039 70.24023438 C13.37290039 70.09585938 13.99165039 69.95148438 14.62915039 69.80273438 C17.88877693 68.93989206 19.18010193 67.14662668 20.94165039 64.36523438 C21.89513086 61.87151623 21.90126357 59.88827158 21.75415039 57.24023438 C22.74415039 56.91023438 23.73415039 56.58023438 24.75415039 56.24023438 C25.66081546 40.53226308 25.66081546 40.53226308 19.75415039 26.24023438 C17.26756051 24.53344305 17.26756051 24.53344305 14.75415039 23.24023438 C14.09415039 22.58023438 13.43415039 21.92023438 12.75415039 21.24023438 C2.4137823 17.78082164 2.4137823 17.78082164 -7.49584961 20.79882812 Z M-22.24584961 53.24023438 C-21.24584961 55.24023438 -21.24584961 55.24023438 -21.24584961 55.24023438 Z M36.75415039 74.24023438 C37.75415039 76.24023438 37.75415039 76.24023438 37.75415039 76.24023438 Z M26.75415039 83.24023438 C26.75415039 83.90023437 26.75415039 84.56023437 26.75415039 85.24023438 C27.41415039 84.91023438 28.07415039 84.58023438 28.75415039 84.24023438 C28.09415039 83.91023438 27.43415039 83.58023438 26.75415039 83.24023438 Z " fill="#010201" transform="translate(708.245849609375,67.759765625)"/>
<path d="M0 0 C0.96357422 -0.00128906 1.92714844 -0.00257812 2.91992188 -0.00390625 C3.92990234 -0.00003906 4.93988281 0.00382812 5.98046875 0.0078125 C6.97884766 0.00394531 7.97722656 0.00007813 9.00585938 -0.00390625 C9.97330078 -0.00261719 10.94074219 -0.00132813 11.9375 0 C12.82026611 0.00112793 13.70303223 0.00225586 14.61254883 0.00341797 C17.21861374 0.13537693 19.62600851 0.55765152 22.16796875 1.1328125 C22.16796875 1.7928125 22.16796875 2.4528125 22.16796875 3.1328125 C23.48796875 3.1328125 24.80796875 3.1328125 26.16796875 3.1328125 C27.7109375 4.46875 27.7109375 4.46875 29.16796875 6.1328125 C30.26860191 7.01225304 31.37294301 7.88706813 32.48046875 8.7578125 C40.46907786 15.56167026 43.94385732 23.73341509 44.8828125 33.9765625 C45.11649012 36.31696036 45.11649012 36.31696036 46.23046875 39.1328125 C47.49279848 43.17226764 47.33585104 46.93575513 47.16796875 51.1328125 C44.59831463 52.41763956 42.80020044 52.23915876 39.92382812 52.21459961 C38.28202576 52.20480324 38.28202576 52.20480324 36.60705566 52.19480896 C35.42059448 52.18337357 34.2341333 52.17193817 33.01171875 52.16015625 C30.52083471 52.14751243 28.02994922 52.13515129 25.5390625 52.12304688 C21.59516955 52.09817903 17.65135059 52.07017215 13.70751953 52.03686523 C9.91308093 52.00678072 6.1187381 51.98892505 2.32421875 51.97265625 C1.13775757 51.95919662 -0.04870361 51.945737 -1.27111816 51.93186951 C-2.91292053 51.92680138 -2.91292053 51.92680138 -4.58789062 51.92163086 C-5.55448608 51.91417343 -6.52108154 51.906716 -7.51696777 51.89903259 C-10.02683004 51.90595462 -10.02683004 51.90595462 -11.83203125 54.1328125 C-11.9022376 57.71333637 -11.5818771 60.17293129 -9.33984375 63.04296875 C-7.56919653 64.83261434 -5.7463296 66.49865537 -3.83203125 68.1328125 C-3.17203125 68.7309375 -2.51203125 69.3290625 -1.83203125 69.9453125 C4.65086718 73.79453344 11.82983596 73.6305092 19.16796875 73.1328125 C19.49796875 72.8028125 19.82796875 72.4728125 20.16796875 72.1328125 C22.22674555 71.85328031 24.28525307 71.68546899 26.35546875 71.51171875 C26.95359375 71.38667969 27.55171875 71.26164062 28.16796875 71.1328125 C28.49796875 70.4728125 28.82796875 69.8128125 29.16796875 69.1328125 C30.81796875 69.1328125 32.46796875 69.1328125 34.16796875 69.1328125 C34.16796875 68.4728125 34.16796875 67.8128125 34.16796875 67.1328125 C36.48046875 66.8828125 36.48046875 66.8828125 39.16796875 67.1328125 C42.52310724 70.3636866 44.03086864 74.6827008 44.2890625 79.296875 C44.29250018 81.24260319 44.23502308 83.18823703 44.16796875 85.1328125 C42.51796875 85.1328125 40.86796875 85.1328125 39.16796875 85.1328125 C38.67296875 86.6178125 38.67296875 86.6178125 38.16796875 88.1328125 C36.84796875 88.1328125 35.52796875 88.1328125 34.16796875 88.1328125 C34.16796875 88.7928125 34.16796875 89.4528125 34.16796875 90.1328125 C27.71901177 92.60098515 21.50186913 92.54058293 14.70263672 92.55834961 C12.56879133 92.57016946 10.43791746 92.61934217 8.3046875 92.66992188 C-4.06079224 92.81692326 -13.3319105 89.50587772 -23.1875 81.9765625 C-25.18553037 79.73649045 -25.31807598 78.03714466 -25.83203125 75.1328125 C-27.03859375 74.66875 -27.03859375 74.66875 -28.26953125 74.1953125 C-30.83203125 73.1328125 -30.83203125 73.1328125 -32.01953125 70.4453125 C-32.28765625 69.3521875 -32.55578125 68.2590625 -32.83203125 67.1328125 C-33.20328125 66.0603125 -33.57453125 64.9878125 -33.95703125 63.8828125 C-35.04341251 59.2268928 -35.00425268 54.88803751 -34.83203125 50.1328125 C-35.49203125 50.1328125 -36.15203125 50.1328125 -36.83203125 50.1328125 C-36.67355713 49.55756836 -36.51508301 48.98232422 -36.35180664 48.38964844 C-35.85289799 46.22341473 -35.63314801 44.23958567 -35.515625 42.0234375 C-35.47373047 41.26933594 -35.43183594 40.51523438 -35.38867188 39.73828125 C-35.34935547 38.96097656 -35.31003906 38.18367188 -35.26953125 37.3828125 C-35.22634766 36.59003906 -35.18316406 35.79726562 -35.13867188 34.98046875 C-35.03300134 33.03143435 -34.93205159 31.08214502 -34.83203125 29.1328125 C-34.17203125 29.1328125 -33.51203125 29.1328125 -32.83203125 29.1328125 C-32.83203125 27.1528125 -32.83203125 25.1728125 -32.83203125 23.1328125 C-32.17203125 22.8028125 -31.51203125 22.4728125 -30.83203125 22.1328125 C-30.12808513 20.81877974 -29.46857467 19.4807868 -28.83203125 18.1328125 C-26.19375238 12.85625476 -21.99555006 8.67166704 -16.671875 6.08203125 C-14.65514339 5.27055859 -14.65514339 5.27055859 -13.83203125 3.1328125 C-11.52203125 3.1328125 -9.21203125 3.1328125 -6.83203125 3.1328125 C-6.83203125 2.4728125 -6.83203125 1.8128125 -6.83203125 1.1328125 C-4.37511962 -0.09564332 -2.74471947 0.00352048 0 0 Z M-4.83203125 22.1328125 C-6.83968454 24.0386283 -8.23387303 25.83546006 -9.83203125 28.1328125 C-9.83203125 28.7928125 -9.83203125 29.4528125 -9.83203125 30.1328125 C-10.82203125 30.6278125 -10.82203125 30.6278125 -11.83203125 31.1328125 C-11.87457481 33.13235996 -11.87283908 35.13322886 -11.83203125 37.1328125 C-10.67534624 38.51702315 -10.67534624 38.51702315 -7.50561523 38.24633789 C-6.02977569 38.24617879 -4.55393056 38.24048564 -3.078125 38.23046875 C-2.30267838 38.2290538 -1.52723175 38.22763885 -0.72828674 38.22618103 C1.75800369 38.22056595 4.24420535 38.20801096 6.73046875 38.1953125 C8.41210808 38.19029944 10.09374881 38.1857362 11.77539062 38.18164062 C15.90628441 38.17059163 20.03711151 38.15331695 24.16796875 38.1328125 C24.22635819 34.75352382 24.11484361 32.39492158 22.66796875 29.3203125 C22.17296875 28.2684375 21.67796875 27.2165625 21.16796875 26.1328125 C20.50796875 26.1328125 19.84796875 26.1328125 19.16796875 26.1328125 C18.56984375 25.3490625 17.97171875 24.5653125 17.35546875 23.7578125 C14.22116916 19.99665299 11.48265485 19.48008807 6.85546875 18.2578125 C2.02803122 18.09417055 -0.92089163 19.37537724 -4.83203125 22.1328125 Z M-35.83203125 47.1328125 C-34.83203125 49.1328125 -34.83203125 49.1328125 -34.83203125 49.1328125 Z " fill="#030403" transform="translate(427.83203125,67.8671875)"/>
<path d="M0 0 C3.35409194 -0.05859857 6.70805017 -0.09379582 10.0625 -0.125 C11.00544922 -0.14175781 11.94839844 -0.15851563 12.91992188 -0.17578125 C25.28565567 -0.26195361 25.28565567 -0.26195361 30.25 3.875 C31.90434707 5.88385002 33.49913132 7.87376937 35 10 C35.66 10.86625 36.32 11.7325 37 12.625 C42.28714436 21.54705611 42.42632786 30.57452784 42.328125 40.72265625 C42.32506064 42.11844173 42.32318967 43.51423028 42.32244873 44.91001892 C42.31788015 47.81212354 42.30357727 50.7139453 42.28125 53.6159668 C42.25273152 57.34183483 42.24201104 61.06748349 42.2375679 64.79345036 C42.23342422 67.66466978 42.22361947 70.53584473 42.21169281 73.40704155 C42.20598882 74.78221723 42.20123054 76.15739717 42.19742584 77.53257942 C42.19058834 79.44239999 42.17606277 81.35218844 42.16113281 83.26196289 C42.15430481 84.34876846 42.14747681 85.43557404 42.14044189 86.55531311 C42 89 42 89 41 90 C39.46218409 90.09902107 37.91990556 90.13079567 36.37890625 90.1328125 C35.44369141 90.13410156 34.50847656 90.13539063 33.54492188 90.13671875 C32.06862305 90.13091797 32.06862305 90.13091797 30.5625 90.125 C29.09200195 90.13080078 29.09200195 90.13080078 27.59179688 90.13671875 C26.18704102 90.13478516 26.18704102 90.13478516 24.75390625 90.1328125 C23.45948608 90.13112061 23.45948608 90.13112061 22.13891602 90.12939453 C20 90 20 90 18 89 C18.00666183 87.87366653 18.00666183 87.87366653 18.01345825 86.72457886 C18.05360388 79.63327861 18.08401937 72.54201801 18.10362434 65.45063591 C18.11404243 61.80525726 18.12816533 58.15997286 18.15087891 54.51464844 C18.17267804 50.99387821 18.18458347 47.4731984 18.18975449 43.95236588 C18.19522478 41.96161159 18.21082641 39.97089346 18.22659302 37.98019409 C18.22674408 36.75938141 18.22689514 35.53856873 18.22705078 34.28076172 C18.23371262 32.67525955 18.23371262 32.67525955 18.24050903 31.037323 C17.97668076 27.70550765 17.32097829 25.06884133 16 22 C12.16415206 20.16925439 8.19098752 19.5987125 4 19 C3.67 19.66 3.34 20.32 3 21 C0.69 21 -1.62 21 -4 21 C-4.495 22.485 -4.495 22.485 -5 24 C-6.6635479 24.67441131 -8.33066942 25.3400321 -10 26 C-11.35251497 27.31387169 -12.68945377 28.64426252 -14 30 C-14.66 30 -15.32 30 -16 30 C-16.0154612 31.10540382 -16.0154612 31.10540382 -16.03123474 32.23313904 C-16.12904643 39.16421076 -16.23153716 46.09519902 -16.33933926 53.02612209 C-16.39460027 56.58972968 -16.44802518 60.15334543 -16.49731445 63.71704102 C-16.55400532 67.81015245 -16.61857318 71.9031061 -16.68359375 75.99609375 C-16.70866249 77.92418129 -16.70866249 77.92418129 -16.73423767 79.89122009 C-16.75418289 81.07236893 -16.77412811 82.25351776 -16.79467773 83.47045898 C-16.81022202 84.51636703 -16.8257663 85.56227509 -16.84178162 86.63987732 C-17 89 -17 89 -18 90 C-19.4887186 90.08669432 -20.981445 90.10703494 -22.47265625 90.09765625 C-23.37177734 90.09443359 -24.27089844 90.09121094 -25.19726562 90.08789062 C-26.61555664 90.07532227 -26.61555664 90.07532227 -28.0625 90.0625 C-29.01189453 90.05798828 -29.96128906 90.05347656 -30.93945312 90.04882812 C-33.29303065 90.0370011 -35.64648477 90.02052025 -38 90 C-38.02313508 78.95192216 -38.04092106 67.90385005 -38.05181217 56.85575294 C-38.05703844 51.72609224 -38.06413146 46.59644806 -38.07543945 41.46679688 C-38.0862774 36.51960461 -38.09227877 31.57242828 -38.09487724 26.62522507 C-38.09672985 24.73451868 -38.10034733 22.84381319 -38.10573006 20.95311356 C-38.1129525 18.31198467 -38.11399043 15.67092227 -38.11352539 13.02978516 C-38.11712067 12.24216293 -38.12071594 11.45454071 -38.12442017 10.64305115 C-38.11405216 5.22810432 -38.11405216 5.22810432 -37 3 C-35.2507786 2.91857073 -33.50045458 2.86061459 -31.75 2.8125 C-30.28820313 2.76029297 -30.28820313 2.76029297 -28.796875 2.70703125 C-25.58125642 3.04386281 -24.28809642 3.75427574 -22 6 C-21.25 8.6875 -21.25 8.6875 -21 11 C-20.01 10.67 -19.02 10.34 -18 10 C-17.67 9.34 -17.34 8.68 -17 8 C-15.35 8 -13.7 8 -12 8 C-12 7.34 -12 6.68 -12 6 C-10.35 5.67 -8.7 5.34 -7 5 C-7 4.34 -7 3.68 -7 3 C-3.535 2.505 -3.535 2.505 0 2 C0 1.34 0 0.68 0 0 Z M-17 26 C-17 26.99 -17 27.98 -17 29 C-16.01 28.67 -15.02 28.34 -14 28 C-14.33 27.34 -14.66 26.68 -15 26 C-15.66 26 -16.32 26 -17 26 Z " fill="#000100" transform="translate(1220,68)"/>
<path d="M0 0 C4.37487331 -0.08738991 8.74952078 -0.140524 13.125 -0.1875 C14.98125 -0.22520508 14.98125 -0.22520508 16.875 -0.26367188 C18.07382813 -0.27333984 19.27265625 -0.28300781 20.5078125 -0.29296875 C21.60754395 -0.3086792 22.70727539 -0.32438965 23.84033203 -0.34057617 C27.45528969 0.04907504 29.81457619 1.30328795 33 3 C33.99 3 34.98 3 36 3 C43.43993822 9.40661347 49.36051982 17.209782 51 27 C51.08905178 28.98773156 51.12786359 30.97804868 51.12939453 32.96777344 C51.13254669 34.14539246 51.13569885 35.32301147 51.13894653 36.53631592 C51.13591019 38.42873016 51.13591019 38.42873016 51.1328125 40.359375 C51.13376923 41.65949524 51.13472595 42.95961548 51.13571167 44.2991333 C51.13718204 47.04269608 51.13505396 49.78622619 51.13037109 52.52978516 C51.12465162 56.05288135 51.12797092 59.57590174 51.13394356 63.09899521 C51.13841352 66.45662799 51.13529059 69.81424006 51.1328125 73.171875 C51.13483673 74.44158142 51.13686096 75.71128784 51.13894653 77.01947021 C51.13421829 78.76698578 51.13421829 78.76698578 51.12939453 80.54980469 C51.12859894 81.58063171 51.12780334 82.61145874 51.12698364 83.67352295 C51 86 51 86 50 87 C47.89868079 87.12602054 45.79256212 87.1757922 43.6875 87.1875 C42.53636719 87.20167969 41.38523437 87.21585937 40.19921875 87.23046875 C37.17587763 87.01267006 35.53434129 86.5831811 33 85 C33 84.34 33 83.68 33 83 C32.01 82.67 31.02 82.34 30 82 C29.505 83.485 29.505 83.485 29 85 C25.99208089 87.04108797 23.57804656 87.19878036 20 87 C20 87.66 20 88.32 20 89 C16.20913543 89.22519106 12.41738942 89.42729249 8.625 89.625 C7.54476563 89.68945312 6.46453125 89.75390625 5.3515625 89.8203125 C4.3203125 89.871875 3.2890625 89.9234375 2.2265625 89.9765625 C1.27346191 90.02893066 0.32036133 90.08129883 -0.66162109 90.13525391 C-3 90 -3 90 -5 88 C-6.6635479 87.32558869 -8.33066942 86.6599679 -10 86 C-13.57055576 84.12970889 -15.8973098 82.46943884 -18 79 C-18.34227417 77.66893378 -18.67751743 76.33599921 -19 75 C-19.66 74.67 -20.32 74.34 -21 74 C-21.05786668 70.20839703 -21.09355054 66.41690689 -21.125 62.625 C-21.14175781 61.54476562 -21.15851563 60.46453125 -21.17578125 59.3515625 C-21.18222656 58.3203125 -21.18867187 57.2890625 -21.1953125 56.2265625 C-21.20578613 55.27346191 -21.21625977 54.32036133 -21.22705078 53.33837891 C-21 51 -21 51 -19 49 C-18.525625 48.195625 -18.05125 47.39125 -17.5625 46.5625 C-14.39606501 41.36954662 -14.39606501 41.36954662 -10.875 40.4375 C-10.25625 40.293125 -9.6375 40.14875 -9 40 C-8.67 39.34 -8.34 38.68 -8 38 C-6.35 38 -4.7 38 -3 38 C-3 37.34 -3 36.68 -3 36 C3.89618858 35.09429581 10.61208545 34.8777016 17.5625 34.9375 C19.07553711 34.94426758 19.07553711 34.94426758 20.61914062 34.95117188 C23.07949147 34.96283231 25.53971239 34.97919622 28 35 C27.40196841 29.64289601 26.58805501 27.05102984 23 23 C23 22.34 23 21.68 23 21 C18.29669569 18.49157103 13.21221812 18.37268879 8 19 C7.34 19.66 6.68 20.32 6 21 C3.8359375 21.1953125 3.8359375 21.1953125 1.375 21.125 C0.55773438 21.10695313 -0.25953125 21.08890625 -1.1015625 21.0703125 C-1.72804688 21.04710938 -2.35453125 21.02390625 -3 21 C-3 21.66 -3 22.32 -3 23 C-6.3125 23.6875 -6.3125 23.6875 -10 24 C-14.18027008 20.9652847 -14.92963958 15.79432272 -16 11 C-16.1875 7.375 -16.1875 7.375 -16 5 C-14.35 5 -12.7 5 -11 5 C-11 4.34 -11 3.68 -11 3 C-7.27569643 2.30710631 -3.78916254 1.88855404 0 2 C0 1.34 0 0.68 0 0 Z M14 48 C14 48.33 14 48.66 14 49 C18.29 49 22.58 49 27 49 C27 48.67 27 48.34 27 48 C22.71 48 18.42 48 14 48 Z M7 49 C7 49.66 7 50.32 7 51 C5.8553125 51.185625 5.8553125 51.185625 4.6875 51.375 C1.79732864 51.88102792 1.79732864 51.88102792 -1 54 C-1.25030977 56.58380177 -1.25030977 56.58380177 -1 59 C-1.66 59 -2.32 59 -3 59 C-3.42653727 63.35068018 -3.57772872 65.29388712 -0.75 68.75 C0.1575 69.4925 1.065 70.235 2 71 C2.8971875 71.8971875 2.8971875 71.8971875 3.8125 72.8125 C7.28581484 74.69801377 10.07966103 74.31615637 14 74 C14.66 73.34 15.32 72.68 16 72 C18.125 71.375 18.125 71.375 20 71 C20 70.34 20 69.68 20 69 C21.1446875 69.0928125 21.1446875 69.0928125 22.3125 69.1875 C25.00449489 69.24402891 25.00449489 69.24402891 26.75 67.6875 C29.17659791 64.41159282 29.13546398 61.36672635 29.125 57.4375 C29.12757812 56.46683594 29.13015625 55.49617188 29.1328125 54.49609375 C29.16650953 52.00047047 29.16650953 52.00047047 28 50 C24.89307322 49.56636799 24.89307322 49.56636799 21.25 49.4375 C14.41891991 49.08737142 14.41891991 49.08737142 11.171875 48.41015625 C8.96328173 47.76609918 8.96328173 47.76609918 7 49 Z " fill="#030403" transform="translate(1114,71)"/>
<path d="M0 0 C1.77508085 2.4254466 3.23436593 4.70547694 4.6875 7.3125 C5.29174805 8.34793945 5.29174805 8.34793945 5.90820312 9.40429688 C7.56072996 12.26923033 8.9497255 14.84917651 10 18 C10.66 18 11.32 18 12 18 C13.07525194 20.65228812 14.09456151 23.28368454 15 26 C15.66 26 16.32 26 17 26 C17.495 27.485 17.495 27.485 18 29 C20.0745356 29.1490712 20.0745356 29.1490712 22 28 C22 27.34 22 26.68 22 26 C22.66 26 23.32 26 24 26 C24.103125 25.236875 24.20625 24.47375 24.3125 23.6875 C25.06799155 20.73421485 25.86992523 20.04132166 28 18 C28.165 17.34 28.33 16.68 28.5 16 C29.11504234 13.53983064 30.03908227 12.56873418 32 11 C32.66 11 33.32 11 34 11 C34.185625 9.8553125 34.185625 9.8553125 34.375 8.6875 C35 6 35 6 37 3 C39.24658203 2.65942383 39.24658203 2.65942383 42.0078125 2.70703125 C42.99394531 2.71669922 43.98007812 2.72636719 44.99609375 2.73632812 C46.02863281 2.76146484 47.06117188 2.78660156 48.125 2.8125 C49.68541016 2.83280273 49.68541016 2.83280273 51.27734375 2.85351562 C53.85207627 2.88894772 56.4257833 2.93834779 59 3 C60.15625 6.6875 60.15625 6.6875 58.75 9.5 C57.88375 10.7375 57.88375 10.7375 57 12 C56.484375 12.763125 55.96875 13.52625 55.4375 14.3125 C54.963125 14.869375 54.48875 15.42625 54 16 C53.34 16 52.68 16 52 16 C51.814375 17.1446875 51.814375 17.1446875 51.625 18.3125 C51 21 51 21 49 24 C48.34 24 47.68 24 47 24 C46.9175 24.78375 46.835 25.5675 46.75 26.375 C46.37875 27.674375 46.37875 27.674375 46 29 C44.66666667 29.66666667 43.33333333 30.33333333 42 31 C41.61781233 32.65614657 41.28604898 34.32457024 41 36 C40.02149805 37.02104551 39.02019573 38.0206121 38 39 C37.67 39.825 37.34 40.65 37 41.5 C36 44 36 44 34.3125 45.5625 C33.879375 46.036875 33.44625 46.51125 33 47 C33.45576937 50.00160069 34.56981996 52.20471331 36.1796875 54.75 C36.61410156 55.4409375 37.04851562 56.131875 37.49609375 56.84375 C38.17865234 57.91109375 38.17865234 57.91109375 38.875 59 C39.32230469 59.7115625 39.76960938 60.423125 40.23046875 61.15625 C42.00795205 63.96666607 43.76204764 66.69770859 45.8203125 69.3125 C47 71 47 71 47 74 C47.66 74.33 48.32 74.66 49 75 C50.2890625 76.55859375 50.2890625 76.55859375 51.625 78.4375 C52.07101562 79.05496094 52.51703125 79.67242187 52.9765625 80.30859375 C54 82 54 82 54 84 C54.66 84 55.32 84 56 84 C56.33 85.98 56.66 87.96 57 90 C53.64650673 90.17576433 50.29421021 90.28132437 46.9375 90.375 C45.99455078 90.42527344 45.05160156 90.47554688 44.08007812 90.52734375 C39.13364536 90.63075349 35.86535845 90.45933956 31.9609375 87.23828125 C29.70543802 84.9656565 27.94049002 82.78760901 26.6875 79.8125 C25.58327699 77.2792825 24.56079093 75.34118639 23 73 C22.87625 72.360625 22.7525 71.72125 22.625 71.0625 C21.77883042 68.27014038 20.13266099 66.92627445 18 65 C15.96758273 65.63979849 15.96758273 65.63979849 14 67 C13.61781233 68.65614657 13.28604898 70.32457024 13 72 C12.02149805 73.02104551 11.02019573 74.0206121 10 75 C8.80972016 77.59915538 8.80972016 77.59915538 8 80 C7.34 80 6.68 80 6 80 C5.9071875 81.0828125 5.9071875 81.0828125 5.8125 82.1875 C4.65726989 86.18637344 3.37966914 87.51494916 0 90 C-3.95394782 90.61892132 -7.82289182 90.4709145 -11.8125 90.3125 C-12.88693359 90.28994141 -13.96136719 90.26738281 -15.06835938 90.24414062 C-17.7136685 90.18535598 -20.35611413 90.10323957 -23 90 C-23 87 -23 87 -21.75 85.75 C-21.1725 85.1725 -20.595 84.595 -20 84 C-19.02162475 82.33676207 -18.04649959 80.67119926 -17.109375 78.984375 C-15.89982212 76.82080858 -14.65473352 74.68535207 -13.375 72.5625 C-12.97023438 71.88316406 -12.56546875 71.20382813 -12.1484375 70.50390625 C-11.57996094 69.75947266 -11.57996094 69.75947266 -11 69 C-10.34 69 -9.68 69 -9 69 C-8.896875 68.236875 -8.79375 67.47375 -8.6875 66.6875 C-7.91839787 63.68100984 -7.17127175 63.0877613 -5 61 C-4.505 59.96875 -4.01 58.9375 -3.5 57.875 C-2 55 -2 55 1 54 C1.12375 53.29875 1.2475 52.5975 1.375 51.875 C2.03838345 48.82343613 2.97211955 45.94659062 4 43 C3.236875 42.46375 2.47375 41.9275 1.6875 41.375 C-1.293848 38.74032037 -2.40885188 36.61624572 -4 33 C-5.47444163 29.7946921 -6.5856948 27.40211976 -9.125 24.9375 C-11 23 -11 23 -11.5 20.375 C-11.665 19.59125 -11.83 18.8075 -12 18 C-13.32407669 17.31513275 -14.65909241 16.65129797 -16 16 C-20 10.66666667 -20 10.66666667 -20 8 C-20.66 7.67 -21.32 7.34 -22 7 C-19.09399739 5.74335022 -17.20395416 5 -14 5 C-14 4.34 -14 3.68 -14 3 C-12.906875 2.87625 -11.81375 2.7525 -10.6875 2.625 C-6.32294604 1.88524509 -4.50672953 0 0 0 Z M53 10 C53.66 10.66 54.32 11.32 55 12 C55 11.34 55 10.68 55 10 C54.34 10 53.68 10 53 10 Z M49 18 C50 20 50 20 50 20 Z M44 26 C45 28 45 28 45 28 Z M9 69 C10.485 69.99 10.485 69.99 12 71 C12 70.34 12 69.68 12 69 C11.01 69 10.02 69 9 69 Z M3 82 C4 84 4 84 4 84 Z " fill="#020302" transform="translate(328,68)"/>
<path d="M0 0 C1.6406543 -0.01836914 1.6406543 -0.01836914 3.31445312 -0.03710938 C4.9009668 -0.04000977 4.9009668 -0.04000977 6.51953125 -0.04296875 C7.48608643 -0.04707764 8.4526416 -0.05118652 9.44848633 -0.05541992 C12.38691016 0.20518545 14.51288887 0.97486212 17.1875 2.1875 C18.0125 2.49429688 18.8375 2.80109375 19.6875 3.1171875 C24.4749024 4.92742403 28.38496627 6.63846852 32.1875 10.1875 C31.89875 10.703125 31.61 11.21875 31.3125 11.75 C30.05019872 14.30361816 30.05019872 14.30361816 29.25 17.6875 C28.27617593 20.89539105 27.36915541 22.70834613 25.1875 25.1875 C24.176875 24.73375 23.16625 24.28 22.125 23.8125 C16.82431062 21.80222067 11.37514514 21.27553252 5.7734375 20.6171875 C2.55581046 20.23163306 -0.62122081 19.74720127 -3.8125 19.1875 C-3.8125 19.8475 -3.8125 20.5075 -3.8125 21.1875 C-5.4625 21.1875 -7.1125 21.1875 -8.8125 21.1875 C-9.080625 21.826875 -9.34875 22.46625 -9.625 23.125 C-10.8125 25.1875 -10.8125 25.1875 -13.8125 26.1875 C-13.8125 26.8475 -13.8125 27.5075 -13.8125 28.1875 C-14.4725 28.5175 -15.1325 28.8475 -15.8125 29.1875 C-16.65004364 31.16658504 -16.65004364 31.16658504 -17.3125 33.5 C-18.03250725 35.86741515 -18.70598667 37.99183964 -19.890625 40.16796875 C-21.0161463 42.63362347 -21.07897236 44.48603347 -21.0625 47.1875 C-21.06765625 48.033125 -21.0728125 48.87875 -21.078125 49.75 C-20.79536061 52.34477915 -20.01297293 53.89998465 -18.8125 56.1875 C-18.6875 59.4375 -18.6875 59.4375 -18.8125 62.1875 C-18.235 62.435 -17.6575 62.6825 -17.0625 62.9375 C-14.8125 64.1875 -14.8125 64.1875 -13.0625 66 C-6.25882468 72.61468433 -0.22526264 74.01493269 9.1875 74.1875 C9.1875 73.5275 9.1875 72.8675 9.1875 72.1875 C10.858125 72.001875 10.858125 72.001875 12.5625 71.8125 C16.21853677 71.5409187 16.21853677 71.5409187 18.1875 69.1875 C20.87589385 68.91758094 23.47891936 69.10012643 26.1875 69.1875 C28.98595727 74.53000933 31.1875 79.09170047 31.1875 85.1875 C30.5275 85.8475 29.8675 86.5075 29.1875 87.1875 C27.8675 87.1875 26.5475 87.1875 25.1875 87.1875 C25.1875 87.8475 25.1875 88.5075 25.1875 89.1875 C17.30906932 92.41243851 10.20591063 92.67248087 1.75 92.625 C0.49123047 92.64498047 -0.76753906 92.66496094 -2.06445312 92.68554688 C-9.81774852 92.68150238 -15.88393299 91.74213856 -22.8125 88.1875 C-22.8125 87.5275 -22.8125 86.8675 -22.8125 86.1875 C-23.369375 86.125625 -23.92625 86.06375 -24.5 86 C-29.63537224 84.19568002 -32.17389998 79.66164786 -34.8125 75.1875 C-35.4725 74.56875 -36.1325 73.95 -36.8125 73.3125 C-42.27604977 67.50747837 -42.82037064 59.72887446 -43.53125 52.17578125 C-43.71502406 50.11784156 -43.71502406 50.11784156 -44.8125 48.1875 C-44.1525 48.1875 -43.4925 48.1875 -42.8125 48.1875 C-42.98394531 47.66285156 -43.15539062 47.13820312 -43.33203125 46.59765625 C-43.94825904 43.50649732 -43.73936912 40.76537996 -43.5 37.625 C-43.42136719 36.48933594 -43.34273437 35.35367188 -43.26171875 34.18359375 C-42.8125 31.1875 -42.8125 31.1875 -40.8125 28.1875 C-40.3484375 26.7334375 -40.3484375 26.7334375 -39.875 25.25 C-38.85368575 22.30621186 -37.6789982 20.62206287 -35.8125 18.1875 C-35.68875 17.5275 -35.565 16.8675 -35.4375 16.1875 C-34.49481057 13.17089382 -32.28217556 12.03975667 -29.8125 10.1875 C-29.4825 9.5275 -29.1525 8.8675 -28.8125 8.1875 C-26.8125 7.6875 -26.8125 7.6875 -24.8125 7.1875 C-24.4825 6.5275 -24.1525 5.8675 -23.8125 5.1875 C-22.1625 5.1875 -20.5125 5.1875 -18.8125 5.1875 C-18.8125 4.5275 -18.8125 3.8675 -18.8125 3.1875 C-17.1625 3.1875 -15.5125 3.1875 -13.8125 3.1875 C-13.8125 2.5275 -13.8125 1.8675 -13.8125 1.1875 C-9.73668744 -0.85040628 -4.47944034 0.00261192 0 0 Z M2.1875 18.1875 C2.1875 18.5175 2.1875 18.8475 2.1875 19.1875 C3.8375 19.1875 5.4875 19.1875 7.1875 19.1875 C7.1875 18.8575 7.1875 18.5275 7.1875 18.1875 C5.5375 18.1875 3.8875 18.1875 2.1875 18.1875 Z " fill="#020302" transform="translate(1050.8125,67.8125)"/>
<path d="M0 0 C1.71413086 -0.02416992 1.71413086 -0.02416992 3.46289062 -0.04882812 C13.70613668 -0.05468476 21.77289531 1.85003182 30.4375 7.3125 C30.5625 9.6875 30.5625 9.6875 30.4375 12.3125 C29.7775 12.9725 29.1175 13.6325 28.4375 14.3125 C28.128125 15.488125 27.81875 16.66375 27.5 17.875 C26.9740625 19.5765625 26.9740625 19.5765625 26.4375 21.3125 C25.4475 21.6425 24.4575 21.9725 23.4375 22.3125 C23.4375 21.6525 23.4375 20.9925 23.4375 20.3125 C22.839375 20.51875 22.24125 20.725 21.625 20.9375 C19.4375 21.3125 19.4375 21.3125 16.4375 19.3125 C14.10592508 18.96708149 11.77241639 18.63455743 9.4375 18.3125 C8.6125 17.94125 7.7875 17.57 6.9375 17.1875 C2.67083604 15.69416762 -1.10303208 16.95574117 -5.375 18 C-7.88226198 19.21113937 -7.88226198 19.21113937 -8.875 22.4375 C-9.101875 23.38625 -9.32875 24.335 -9.5625 25.3125 C-6.38929218 28.84836014 -4.39506305 30.89828031 0.4375 31.3125 C0.4375 31.9725 0.4375 32.6325 0.4375 33.3125 C1.4584375 33.498125 1.4584375 33.498125 2.5 33.6875 C12.18262055 35.74763203 12.18262055 35.74763203 15.4375 39.3125 C17.38353274 39.90320014 17.38353274 39.90320014 19.4375 40.3125 C23.57095475 41.82810007 26.68921173 44.94126639 29.4375 48.3125 C29.4375 48.9725 29.4375 49.6325 29.4375 50.3125 C30.0975 50.3125 30.7575 50.3125 31.4375 50.3125 C34.33543155 59.00629464 36.5004263 67.56158181 32.4375 76.3125 C26.38890323 83.72544191 20.7178401 88.66052124 11.01806641 89.66748047 C7.72009828 89.86177354 4.42922031 90.00048809 1.12646484 90.07592773 C-0.95443482 90.12540264 -3.03328992 90.2009126 -5.11328125 90.27929688 C-12.66284598 90.49828622 -12.66284598 90.49828622 -15.5625 90.3125 C-16.2225 89.6525 -16.8825 88.9925 -17.5625 88.3125 C-19.88565031 87.6111716 -22.22039079 86.94764826 -24.5625 86.3125 C-27.82519071 85.36994491 -29.13213547 84.94011494 -31.0625 82.125 C-31.78031321 78.0873007 -30.47154091 75.86726583 -28.5625 72.3125 C-26.49098495 69.61052385 -24.90148023 68.83163474 -21.5625 68.3125 C-19.16015625 68.8359375 -19.16015625 68.8359375 -16.625 69.6875 C-13.28253814 70.7930438 -10.02814577 71.68012814 -6.5625 72.3125 C-6.5625 72.9725 -6.5625 73.6325 -6.5625 74.3125 C-1.1175 73.8175 -1.1175 73.8175 4.4375 73.3125 C4.4375 72.6525 4.4375 71.9925 4.4375 71.3125 C5.200625 71.168125 5.96375 71.02375 6.75 70.875 C9.51922908 70.3492406 9.51922908 70.3492406 12.4375 69.3125 C10.95803922 62.33412296 10.95803922 62.33412296 6.6328125 57.1171875 C5.94960938 56.81039062 5.26640625 56.50359375 4.5625 56.1875 C3.88445313 55.87554687 3.20640625 55.56359375 2.5078125 55.2421875 C1.82460938 54.93539062 1.14140625 54.62859375 0.4375 54.3125 C-0.2225 53.95800781 -0.8825 53.60351562 -1.5625 53.23828125 C-3.66386363 52.26557973 -5.40381941 51.94943433 -7.6875 51.625 C-13.65216302 50.37909177 -17.84707425 47.01636577 -22.5625 43.3125 C-23.61050781 42.54679687 -23.61050781 42.54679687 -24.6796875 41.765625 C-29.02377895 38.41292371 -30.76062191 35.92564663 -31.5625 30.3125 C-31.79653109 25.96472247 -31.97513959 21.65128388 -31.5625 17.3125 C-30.9025 16.6525 -30.2425 15.9925 -29.5625 15.3125 C-29.335625 14.57 -29.10875 13.8275 -28.875 13.0625 C-26.78865914 8.69111916 -22.8878374 5.4751687 -18.5625 3.3125 C-17.5725 2.9825 -16.5825 2.6525 -15.5625 2.3125 C-10.77547781 -0.87884813 -5.62816122 -0.01550458 0 0 Z M22.4375 18.3125 C23.9225 19.3025 23.9225 19.3025 25.4375 20.3125 C25.4375 19.6525 25.4375 18.9925 25.4375 18.3125 C24.4475 18.3125 23.4575 18.3125 22.4375 18.3125 Z M27.4375 74.3125 C28.9225 75.3025 28.9225 75.3025 30.4375 76.3125 C30.4375 75.6525 30.4375 74.9925 30.4375 74.3125 C29.4475 74.3125 28.4575 74.3125 27.4375 74.3125 Z M19.4375 82.3125 C20.4375 84.3125 20.4375 84.3125 20.4375 84.3125 Z " fill="#010201" transform="translate(965.5625,70.6875)"/>
<path d="M0 0 C1.16273438 -0.01224609 2.32546875 -0.02449219 3.5234375 -0.03710938 C4.6371875 -0.03904297 5.7509375 -0.04097656 6.8984375 -0.04296875 C7.92372559 -0.04707764 8.94901367 -0.05118652 10.00537109 -0.05541992 C12.625 0.1875 12.625 0.1875 15.625 2.1875 C16.615 2.1875 17.605 2.1875 18.625 2.1875 C20.97596976 3.1453025 23.30851201 4.14907435 25.625 5.1875 C26.553125 5.47625 27.48125 5.765 28.4375 6.0625 C30.625 7.1875 30.625 7.1875 31.9375 9.8125 C32.164375 10.59625 32.39125 11.38 32.625 12.1875 C31.965 12.8475 31.305 13.5075 30.625 14.1875 C29.90572705 16.50515729 29.2340107 18.83845874 28.625 21.1875 C27.965 21.1875 27.305 21.1875 26.625 21.1875 C26.295 22.5075 25.965 23.8275 25.625 25.1875 C22.34230785 24.57959405 19.23413939 23.78574687 16.0625 22.75 C5.1675465 19.07976623 5.1675465 19.07976623 -5.75 20.6875 C-11.13818471 24.02143929 -15.54646584 27.97048387 -17.375 34.1875 C-18.035 34.1875 -18.695 34.1875 -19.375 34.1875 C-19.354375 35.13625 -19.33375 36.085 -19.3125 37.0625 C-19.375 40.1875 -19.375 40.1875 -20.375 42.1875 C-21.09001813 51.28319578 -19.36118185 58.56157481 -14.375 66.1875 C-11.97201646 68.37203049 -10.47824142 69.15308619 -7.375 70.1875 C-7.375 70.8475 -7.375 71.5075 -7.375 72.1875 C-1.765 72.8475 3.845 73.5075 9.625 74.1875 C9.625 73.5275 9.625 72.8675 9.625 72.1875 C14.08 71.6925 14.08 71.6925 18.625 71.1875 C18.625 70.5275 18.625 69.8675 18.625 69.1875 C21.265 69.1875 23.905 69.1875 26.625 69.1875 C29.25907931 73.85700422 31.2654739 78.79460845 31.625 84.1875 C29.28967774 87.6904834 28.5046773 87.86675879 24.625 89.1875 C24.04234375 89.42758789 23.4596875 89.66767578 22.859375 89.91503906 C15.88945114 92.59859276 9.09208738 92.77092653 1.6875 92.9375 C0.45708984 92.98003906 -0.77332031 93.02257812 -2.04101562 93.06640625 C-11.07992695 93.33503653 -11.07992695 93.33503653 -13.375 92.1875 C-13.375 91.5275 -13.375 90.8675 -13.375 90.1875 C-15.0146875 90.001875 -15.0146875 90.001875 -16.6875 89.8125 C-20.375 89.1875 -20.375 89.1875 -23.375 87.1875 C-23.375 86.5275 -23.375 85.8675 -23.375 85.1875 C-23.99375 85.043125 -24.6125 84.89875 -25.25 84.75 C-27.375 84.1875 -27.375 84.1875 -29.375 83.1875 C-29.375 82.5275 -29.375 81.8675 -29.375 81.1875 C-30.365 80.8575 -31.355 80.5275 -32.375 80.1875 C-33.04166667 78.52083333 -33.70833333 76.85416667 -34.375 75.1875 C-35.365 74.8575 -36.355 74.5275 -37.375 74.1875 C-37.375 73.5275 -37.375 72.8675 -37.375 72.1875 C-38.035 71.8575 -38.695 71.5275 -39.375 71.1875 C-39.375 69.8675 -39.375 68.5475 -39.375 67.1875 C-40.035 66.5275 -40.695 65.8675 -41.375 65.1875 C-41.871916 62.54309324 -42.25810485 59.9789071 -42.5625 57.3125 C-42.65724609 56.59191406 -42.75199219 55.87132812 -42.84960938 55.12890625 C-43.27471182 51.60477453 -43.6209253 48.56298556 -42.375 45.1875 C-43.035 44.8575 -43.695 44.5275 -44.375 44.1875 C-43.715 44.1875 -43.055 44.1875 -42.375 44.1875 C-42.39820313 43.20007813 -42.42140625 42.21265625 -42.4453125 41.1953125 C-42.46335937 39.91398437 -42.48140625 38.63265625 -42.5 37.3125 C-42.52320313 36.03632812 -42.54640625 34.76015625 -42.5703125 33.4453125 C-42.375 30.1875 -42.375 30.1875 -40.375 28.1875 C-40.25125 27.424375 -40.1275 26.66125 -40 25.875 C-39.21981923 22.52022269 -37.53947747 20.82545692 -35.375 18.1875 C-35.23835937 17.54296875 -35.10171875 16.8984375 -34.9609375 16.234375 C-34.21192298 13.61781762 -33.08625773 12.71213978 -31 11 C-30.39414062 10.49082031 -29.78828125 9.98164062 -29.1640625 9.45703125 C-27.375 8.1875 -27.375 8.1875 -24.375 7.1875 C-24.045 6.5275 -23.715 5.8675 -23.375 5.1875 C-21.725 5.1875 -20.075 5.1875 -18.375 5.1875 C-18.375 4.5275 -18.375 3.8675 -18.375 3.1875 C-17.570625 2.878125 -16.76625 2.56875 -15.9375 2.25 C-10.45065104 -0.02503493 -6.24448059 0.00343859 0 0 Z M2.625 18.1875 C2.625 18.5175 2.625 18.8475 2.625 19.1875 C4.275 19.1875 5.925 19.1875 7.625 19.1875 C7.625 18.8575 7.625 18.5275 7.625 18.1875 C5.975 18.1875 4.325 18.1875 2.625 18.1875 Z M-22.375 53.1875 C-21.375 55.1875 -21.375 55.1875 -21.375 55.1875 Z " fill="#010201" transform="translate(805.375,67.8125)"/>
<path d="M0 0 C6.6 0 13.2 0 20 0 C20 0.66 20 1.32 20 2 C20.66 2 21.32 2 22 2 C22.02332916 18.01993537 22.04097926 34.03986526 22.05181217 50.0598135 C22.05697509 57.4976451 22.06401771 64.93546617 22.07543945 72.37329102 C22.08538641 78.85381342 22.09185346 85.33432819 22.09408849 91.81485802 C22.09539558 95.24830542 22.0984813 98.681731 22.10573006 102.11517143 C22.11374416 105.94193821 22.11399113 109.76868335 22.11352539 113.59545898 C22.11712067 114.74200455 22.12071594 115.88855011 22.12442017 117.06983948 C22.1230455 118.10615509 22.12167084 119.1424707 22.12025452 120.21018982 C22.12117631 121.11631232 22.1220981 122.02243483 22.12304783 122.95601559 C22 125 22 125 21 126 C19.46218409 126.09902107 17.91990556 126.13079567 16.37890625 126.1328125 C14.97608398 126.13474609 14.97608398 126.13474609 13.54492188 126.13671875 C12.06862305 126.13091797 12.06862305 126.13091797 10.5625 126.125 C9.09200195 126.13080078 9.09200195 126.13080078 7.59179688 126.13671875 C6.65529297 126.13542969 5.71878906 126.13414062 4.75390625 126.1328125 C3.45948608 126.13112061 3.45948608 126.13112061 2.13891602 126.12939453 C0 126 0 126 -2 125 C-2 84.41 -2 43.82 -2 2 C-1.01 2 -0.02 2 1 2 C0.67 1.34 0.34 0.68 0 0 Z " fill="#000100" transform="translate(489,32)"/>
<path d="M0 0 C6.6 0 13.2 0 20 0 C21.24679384 2.49358767 21.1230732 4.1575359 21.12025452 6.94802856 C21.12162918 7.994133 21.12300385 9.04023743 21.12442017 10.11804199 C21.12082489 11.27034302 21.11722961 12.42264404 21.11352539 13.60986328 C21.11367142 14.81959808 21.11381744 16.02933289 21.1139679 17.27572632 C21.11338956 20.59784021 21.10836555 23.91989237 21.10139394 27.24199533 C21.09515338 30.71201808 21.09455604 34.1820416 21.09336853 37.65206909 C21.09025729 44.22521398 21.08204669 50.79834229 21.07201904 57.37147987 C21.06085148 64.85384834 21.05534583 72.33621759 21.05032361 79.81859231 C21.03986391 95.21240449 21.02226847 110.60620011 21 126 C17.35418313 126.02887512 13.70839537 126.04675585 10.0625 126.0625 C8.50112305 126.07506836 8.50112305 126.07506836 6.90820312 126.08789062 C5.91884766 126.09111328 4.92949219 126.09433594 3.91015625 126.09765625 C2.53549194 126.10551147 2.53549194 126.10551147 1.13305664 126.11352539 C-1 126 -1 126 -2 125 C-2.09597204 123.40577964 -2.12187924 121.8072955 -2.12025452 120.21018982 C-2.12162918 119.17387421 -2.12300385 118.13755859 -2.12442017 117.06983948 C-2.12082489 115.92329391 -2.11722961 114.77674835 -2.11352539 113.59545898 C-2.11367142 112.39562378 -2.11381744 111.19578857 -2.1139679 109.95959473 C-2.11338894 106.66014809 -2.10835978 103.36076336 -2.10139394 100.0613277 C-2.09515973 96.61665703 -2.09455655 93.17198562 -2.09336853 89.72731018 C-2.09025541 83.2001727 -2.08204229 76.67305189 -2.07201904 70.14592177 C-2.0608573 62.71677984 -2.0553473 55.28763714 -2.05032361 47.85848892 C-2.03985966 32.57231628 -2.0222606 17.28616028 -2 2 C-1.01 2.495 -1.01 2.495 0 3 C0 2.01 0 1.02 0 0 Z " fill="#000100" transform="translate(630,32)"/>
<path d="M0 0 C3.14581423 -0.02888514 6.29159469 -0.04675923 9.4375 -0.0625 C10.33533203 -0.07087891 11.23316406 -0.07925781 12.15820312 -0.08789062 C13.01220703 -0.09111328 13.86621094 -0.09433594 14.74609375 -0.09765625 C15.93223267 -0.10551147 15.93223267 -0.10551147 17.14233398 -0.11352539 C19 0 19 0 20 1 C20.13041584 3.64113192 20.19667028 6.25751879 20.22119141 8.90039062 C20.2326973 9.72798386 20.24420319 10.55557709 20.25605774 11.4082489 C20.29289008 14.1575442 20.32244487 16.90686293 20.3515625 19.65625 C20.37466259 21.55814966 20.39805276 23.46004582 20.42172241 25.36193848 C20.47024691 29.35340435 20.51516999 33.34489079 20.55761719 37.33642578 C20.6124545 42.46498635 20.67627346 47.59338862 20.74279213 52.72180939 C20.79275326 56.65069721 20.83792653 60.57962877 20.88163376 64.5085907 C20.90326941 66.40013904 20.92642696 68.29167059 20.9510994 70.18318176 C20.98480982 72.82196483 21.01208477 75.46073609 21.03759766 78.09960938 C21.05466011 79.28407906 21.05466011 79.28407906 21.07206726 80.49247742 C21.08642944 82.32841927 21.04891015 84.16465356 21 86 C19.44393249 87.55606751 17.94042629 87.12970769 15.78125 87.1328125 C14.50701172 87.13474609 14.50701172 87.13474609 13.20703125 87.13671875 C12.31371094 87.13285156 11.42039062 87.12898438 10.5 87.125 C9.60667969 87.12886719 8.71335937 87.13273437 7.79296875 87.13671875 C6.94347656 87.13542969 6.09398437 87.13414062 5.21875 87.1328125 C4.43435547 87.13168457 3.64996094 87.13055664 2.84179688 87.12939453 C1 87 1 87 0 86 C-0.09512944 83.32212027 -0.12555279 80.67011131 -0.11352539 77.99194336 C-0.11367142 77.15299026 -0.11381744 76.31403717 -0.1139679 75.44966125 C-0.1132685 72.66302956 -0.10547485 69.87646384 -0.09765625 67.08984375 C-0.09579217 65.16313209 -0.09436822 63.23641995 -0.09336853 61.30970764 C-0.08954259 56.22812603 -0.07971166 51.1465728 -0.06866455 46.06500244 C-0.05845206 40.88383366 -0.05387126 35.70266031 -0.04882812 30.52148438 C-0.03808946 20.34764375 -0.02101213 10.17382423 0 0 Z " fill="#000100" transform="translate(273,71)"/>
<path d="M0 0 C3.47081571 1.76482155 4.96845942 4.64510908 6.3046875 8.171875 C6.5546875 11.609375 6.5546875 11.609375 6.3046875 14.171875 C5.3146875 14.501875 4.3246875 14.831875 3.3046875 15.171875 C3.6346875 16.491875 3.9646875 17.811875 4.3046875 19.171875 C0.02559683 23.09611425 -3.97788014 22.7165449 -9.546875 22.59765625 C-14.13727732 21.97686983 -15.75279524 20.6865484 -18.6953125 17.171875 C-20.23410499 12.55549752 -20.97775061 7.75777479 -18.7421875 3.25 C-13.9383953 -2.54768025 -6.7343469 -2.06910368 0 0 Z M-1.6953125 17.171875 C-1.6953125 18.161875 -1.6953125 19.151875 -1.6953125 20.171875 C-1.0353125 19.841875 -0.3753125 19.511875 0.3046875 19.171875 C-0.3553125 18.511875 -1.0153125 17.851875 -1.6953125 17.171875 Z " fill="#020302" transform="translate(289.6953125,35.828125)"/>
<path d="M0 0 C1.93681161 -0.08107583 3.8745934 -0.13922475 5.8125 -0.1875 C6.89144531 -0.22230469 7.97039062 -0.25710937 9.08203125 -0.29296875 C12.34961576 0.03510198 12.97266159 0.56335667 15 3 C15.66 3 16.32 3 17 3 C17.33 3.66 17.66 4.32 18 5 C18.99 5.33 19.98 5.66 21 6 C21 6.66 21 7.32 21 8 C22.485 8.495 22.485 8.495 24 9 C24 9.66 24 10.32 24 11 C22.49609375 12.1484375 22.49609375 12.1484375 20.4375 13.375 C19.70917969 13.80941406 18.98085937 14.24382812 18.23046875 14.69140625 C17.49441406 15.12324219 16.75835937 15.55507812 16 16 C15.35675781 16.40089844 14.71351562 16.80179688 14.05078125 17.21484375 C10.66431327 19.27904657 9.07127641 20 5 20 C5 19.34 5 18.68 5 18 C4.278125 17.87625 3.55625 17.7525 2.8125 17.625 C0.04278106 17.0095069 -2.3970354 16.11555626 -5 15 C-5 14.34 -5 13.68 -5 13 C-6.65 12.67 -8.3 12.34 -10 12 C-9.70540991 8.46491897 -9.25118587 7.23796556 -6.625 4.75 C-4 3 -4 3 -1 2 C-0.67 1.34 -0.34 0.68 0 0 Z M19 8 C19 8.99 19 9.98 19 11 C19.99 10.67 20.98 10.34 22 10 C21.67 9.34 21.34 8.68 21 8 C20.34 8 19.68 8 19 8 Z M11 13 C11.33 13.66 11.66 14.32 12 15 C12.33 14.34 12.66 13.68 13 13 C12.34 13 11.68 13 11 13 Z " fill="#010201" transform="translate(82,86)"/>
<path d="M0 0 C1.02211881 3.37464061 1.12091469 6.44460581 1.11352539 9.96191406 C1.11341209 11.76332855 1.11341209 11.76332855 1.11329651 13.60113525 C1.10813522 14.89291687 1.10297394 16.18469849 1.09765625 17.515625 C1.09579017 18.85512235 1.09436716 20.19462038 1.09336853 21.53411865 C1.08955835 25.05222472 1.07974091 28.57028921 1.06866455 32.08837891 C1.05841817 35.68130939 1.053864 39.27424661 1.04882812 42.8671875 C1.03811725 49.91147529 1.02105887 56.95573493 1 64 C1.66 64 2.32 64 3 64 C2.505 64.99 2.505 64.99 2 66 C-1.17339006 63.40358995 -1.99779472 60.94127479 -3 57 C-3.27847552 53.22771142 -3.25649474 49.46850898 -3.23046875 45.6875 C-3.23001053 44.60041748 -3.22955231 43.51333496 -3.2290802 42.39331055 C-3.22606615 40.10041204 -3.21820529 37.80751543 -3.20581055 35.51464844 C-3.18756406 32.01229567 -3.18530099 28.51020784 -3.18554688 25.0078125 C-3.18063068 22.77603939 -3.17480192 20.54426806 -3.16796875 18.3125 C-3.16685593 17.26860107 -3.1657431 16.22470215 -3.16459656 15.14916992 C-3.10001466 5.21650434 -3.10001466 5.21650434 -2 1 C-1.34 0.67 -0.68 0.34 0 0 Z " fill="#D48037" transform="translate(35,46)"/>
<path d="M0 0 C2.3431213 0.25561323 4.67843403 0.59270772 7 1 C7.33 1.66 7.66 2.32 8 3 C7.67 3.66 7.34 4.32 7 5 C6.34 5 5.68 5 5 5 C4.67 4.34 4.34 3.68 4 3 C3.34 3 2.68 3 2 3 C2 10.26 2 17.52 2 25 C-1 22 -1 22 -1.35644531 19.96289062 C-1.34709961 19.20169922 -1.33775391 18.44050781 -1.328125 17.65625 C-1.32296875 16.82222656 -1.3178125 15.98820313 -1.3125 15.12890625 C-1.291875 14.26136719 -1.27125 13.39382812 -1.25 12.5 C-1.24484375 11.63246094 -1.2396875 10.76492187 -1.234375 9.87109375 C-1.18993514 6.27701967 -1.14535595 3.43606784 0 0 Z " fill="#D68846" transform="translate(33,118)"/>
<path d="M0 0 C1.30538714 3.85682563 1.00269712 7.62779102 0.75 11.625 C0.72292969 12.305625 0.69585937 12.98625 0.66796875 13.6875 C0.546875 15.6640625 0.546875 15.6640625 0 19 C-0.99 19.66 -1.98 20.32 -3 21 C-3.02722517 18.79173622 -3.04649729 16.58337362 -3.0625 14.375 C-3.07410156 13.14523438 -3.08570312 11.91546875 -3.09765625 10.6484375 C-3.00804609 7.30060208 -2.77747393 4.2565889 -2 1 C-1.34 0.67 -0.68 0.34 0 0 Z " fill="#D88E4D" transform="translate(35,46)"/>
<path d="M0 0 C16.83 0 33.66 0 51 0 C51 0.33 51 0.66 51 1 C34.17 1 17.34 1 0 1 C0 0.67 0 0.34 0 0 Z " fill="#FBFDFD" transform="translate(422,120)"/>
<path d="M0 0 C2 2 2 2 2.24291992 4.12304688 C2.23881104 4.97962891 2.23470215 5.83621094 2.23046875 6.71875 C2.22853516 7.65074219 2.22660156 8.58273438 2.22460938 9.54296875 C2.21236328 10.51878906 2.20011719 11.49460937 2.1875 12.5 C2.18685547 13.47582031 2.18621094 14.45164062 2.18554688 15.45703125 C2.14034598 22.71930804 2.14034598 22.71930804 1 25 C0.01 24.67 -0.98 24.34 -2 24 C-1.67 23.34 -1.34 22.68 -1 22 C0.04359682 14.69482225 0.12820527 7.3646804 0 0 Z " fill="#C85C08" transform="translate(143,49)"/>
<path d="M0 0 C3.87990465 1.12086134 6.28003781 2.03276853 9 5 C11.09989652 6.17574711 11.09989652 6.17574711 13 7 C12.67 7.66 12.34 8.32 12 9 C11.401875 8.690625 10.80375 8.38125 10.1875 8.0625 C7.91043228 6.89790296 7.91043228 6.89790296 5 6 C5 5.34 5 4.68 5 4 C4.360625 3.896875 3.72125 3.79375 3.0625 3.6875 C2.381875 3.460625 1.70125 3.23375 1 3 C0.67 2.01 0.34 1.02 0 0 Z " fill="#C85C08" transform="translate(74,142)"/>
<path d="M0 0 C3.59391114 1.33488128 6.75490696 2.96022723 10 5 C9.67 5.99 9.34 6.98 9 8 C7.39125 7.071875 7.39125 7.071875 5.75 6.125 C3.20219016 4.6676321 0.64740645 3.27075509 -2 2 C-1.34 1.34 -0.68 0.68 0 0 Z " fill="#C96110" transform="translate(120,31)"/>
<path d="M0 0 C6.75 0.75 6.75 0.75 9 3 C10.31747324 3.69748583 11.64914193 4.36959957 13 5 C13 5.66 13 6.32 13 7 C11.35 6.67 9.7 6.34 8 6 C8 5.34 8 4.68 8 4 C7.4225 3.896875 6.845 3.79375 6.25 3.6875 C3.67950842 2.90207202 2.06342716 1.69495803 0 0 Z " fill="#C85D08" transform="translate(105,24)"/>
<path d="M0 0 C7.59 0 15.18 0 23 0 C23 0.33 23 0.66 23 1 C15.41 1 7.82 1 0 1 C0 0.67 0 0.34 0 0 Z " fill="#FBFDFD" transform="translate(198,115)"/>
<path d="M0 0 C6.27 0 12.54 0 19 0 C19 0.33 19 0.66 19 1 C12.73 1 6.46 1 0 1 C0 0.67 0 0.34 0 0 Z " fill="#FBFDFD" transform="translate(431,161)"/>
<path d="M0 0 C5.94 0 11.88 0 18 0 C18 0.33 18 0.66 18 1 C12.06 1 6.12 1 0 1 C0 0.67 0 0.34 0 0 Z " fill="#FBFDFD" transform="translate(956,161)"/>
<path d="M0 0 C5.61 0 11.22 0 17 0 C17 0.33 17 0.66 17 1 C11.39 1 5.78 1 0 1 C0 0.67 0 0.34 0 0 Z " fill="#FBFDFD" transform="translate(702,161)"/>
<path d="M0 0 C5.28 0 10.56 0 16 0 C16 0.33 16 0.66 16 1 C10.72 1 5.44 1 0 1 C0 0.67 0 0.34 0 0 Z " fill="#FBFDFD" transform="translate(1044,161)"/>
<path d="M0 0 C5.28 0 10.56 0 16 0 C16 0.33 16 0.66 16 1 C10.72 1 5.44 1 0 1 C0 0.67 0 0.34 0 0 Z " fill="#FBFDFD" transform="translate(799,161)"/>
<path d="M0 0 C4.62 0 9.24 0 14 0 C14 0.33 14 0.66 14 1 C9.38 1 4.76 1 0 1 C0 0.67 0 0.34 0 0 Z " fill="#FBFDFD" transform="translate(1116,161)"/>
<path d="M0 0 C4.62 0 9.24 0 14 0 C14 0.33 14 0.66 14 1 C9.38 1 4.76 1 0 1 C0 0.67 0 0.34 0 0 Z " fill="#FBFDFD" transform="translate(564,161)"/>
<path d="M0 0 C0.33 0 0.66 0 1 0 C1 3.3 1 6.6 1 10 C0.67 10 0.34 10 0 10 C0 6.7 0 3.4 0 0 Z " fill="#000100" transform="translate(1141,123)"/>
<path d="M0 0 C1.98 0 3.96 0 6 0 C6 0.33 6 0.66 6 1 C4.02 1 2.04 1 0 1 C0 0.67 0 0.34 0 0 Z " fill="#FBFDFD" transform="translate(85,176)"/>
<path d="M0 0 C4 1 4 1 4 1 Z " fill="#FBFDFD" transform="translate(281,59)"/>
<path d="M0 0 C3 1 3 1 3 1 Z " fill="#D37B1E" transform="translate(101,103)"/>
<path d="M0 0 C2 1 2 1 2 1 Z " fill="#000100" transform="translate(304,152)"/>
<path d="" fill="#FBFDFD" transform="translate(0,0)"/>
<path d="" fill="#000100" transform="translate(0,0)"/>
<path d="" fill="#000100" transform="translate(0,0)"/>
<path d="M0 0 C2 1 2 1 2 1 Z " fill="#FBFDFD" transform="translate(1225,87)"/>
<path d="M0 0 C2 1 2 1 2 1 Z " fill="#FBFDFD" transform="translate(970,87)"/>
<path d="M0 0 C2 1 2 1 2 1 Z " fill="#FBFDFD" transform="translate(566,87)"/>
<path d="" fill="#FBFDFD" transform="translate(0,0)"/>
<path d="M0 0 C2 1 2 1 2 1 Z " fill="#FBFDFD" transform="translate(86,79)"/>
<path d="M0 0 C2 1 2 1 2 1 Z " fill="#000100" transform="translate(990,74)"/>
<path d="M0 0 C2 1 2 1 2 1 Z " fill="#000100" transform="translate(418,68)"/>
<path d="" fill="#FBFDFD" transform="translate(0,0)"/>
<path d="" fill="#FBFDFD" transform="translate(0,0)"/>
<path d="" fill="#B8B7B5" transform="translate(0,0)"/>
<path d="" fill="#FBFDFD" transform="translate(0,0)"/>
<path d="" fill="#000100" transform="translate(0,0)"/>
<path d="" fill="#000100" transform="translate(0,0)"/>
<path d="" fill="#000100" transform="translate(0,0)"/>
<path d="" fill="#000100" transform="translate(0,0)"/>
<path d="" fill="#000100" transform="translate(0,0)"/>
<path d="" fill="#000100" transform="translate(0,0)"/>
<path d="" fill="#000100" transform="translate(0,0)"/>
<path d="" fill="#FBFDFD" transform="translate(0,0)"/>
<path d="" fill="#FBFDFD" transform="translate(0,0)"/>
<path d="" fill="#000100" transform="translate(0,0)"/>
<path d="" fill="#000100" transform="translate(0,0)"/>
<path d="" fill="#000100" transform="translate(0,0)"/>
<path d="" fill="#000100" transform="translate(0,0)"/>
<path d="" fill="#000100" transform="translate(0,0)"/>
<path d="" fill="#FBFDFD" transform="translate(0,0)"/>
<path d="" fill="#000100" transform="translate(0,0)"/>
<path d="" fill="#FBFDFD" transform="translate(0,0)"/>
<path d="" fill="#000100" transform="translate(0,0)"/>
<path d="" fill="#000100" transform="translate(0,0)"/>
<path d="" fill="#000100" transform="translate(0,0)"/>
<path d="" fill="#C85C08" transform="translate(0,0)"/>
<path d="" fill="#000100" transform="translate(0,0)"/>
<path d="" fill="#000100" transform="translate(0,0)"/>
<path d="" fill="#000100" transform="translate(0,0)"/>
<path d="" fill="#000100" transform="translate(0,0)"/>
<path d="" fill="#000100" transform="translate(0,0)"/>
<path d="" fill="#000100" transform="translate(0,0)"/>
<path d="" fill="#FBFDFD" transform="translate(0,0)"/>
<path d="" fill="#C85C08" transform="translate(0,0)"/>
<path d="" fill="#C85C08" transform="translate(0,0)"/>
<path d="" fill="#FBFDFD" transform="translate(0,0)"/>
<path d="" fill="#FBFDFD" transform="translate(0,0)"/>
<path d="" fill="#C85C08" transform="translate(0,0)"/>
<path d="" fill="#000100" transform="translate(0,0)"/>
<path d="" fill="#FBFDFD" transform="translate(0,0)"/>
<path d="" fill="#FBFDFD" transform="translate(0,0)"/>
<path d="" fill="#000100" transform="translate(0,0)"/>
<path d="" fill="#000100" transform="translate(0,0)"/>
<path d="" fill="#C85C08" transform="translate(0,0)"/>
<path d="" fill="#000100" transform="translate(0,0)"/>
<path d="" fill="#000100" transform="translate(0,0)"/>
<path d="" fill="#000100" transform="translate(0,0)"/>
<path d="" fill="#000100" transform="translate(0,0)"/>
<path d="" fill="#000100" transform="translate(0,0)"/>
<path d="" fill="#000100" transform="translate(0,0)"/>
<path d="" fill="#000100" transform="translate(0,0)"/>
<path d="" fill="#000100" transform="translate(0,0)"/>
<path d="" fill="#FBFDFD" transform="translate(0,0)"/>
<path d="" fill="#C85C08" transform="translate(0,0)"/>
<path d="" fill="#C85C08" transform="translate(0,0)"/>
<path d="" fill="#000100" transform="translate(0,0)"/>
<path d="" fill="#000100" transform="translate(0,0)"/>
<path d="" fill="#D37B1E" transform="translate(0,0)"/>
<path d="" fill="#D37B1E" transform="translate(0,0)"/>
<path d="" fill="#000100" transform="translate(0,0)"/>
<path d="" fill="#000100" transform="translate(0,0)"/>
<path d="" fill="#000100" transform="translate(0,0)"/>
<path d="" fill="#FBFDFD" transform="translate(0,0)"/>
<path d="" fill="#676664" transform="translate(0,0)"/>
<path d="" fill="#434341" transform="translate(0,0)"/>
<path d="" fill="#000100" transform="translate(0,0)"/>
<path d="" fill="#000100" transform="translate(0,0)"/>
<path d="" fill="#FBFDFD" transform="translate(0,0)"/>
<path d="" fill="#FBFDFD" transform="translate(0,0)"/>
<path d="" fill="#FBFDFD" transform="translate(0,0)"/>
<path d="" fill="#FBFDFD" transform="translate(0,0)"/>
<path d="" fill="#000100" transform="translate(0,0)"/>
<path d="" fill="#FBFDFD" transform="translate(0,0)"/>
<path d="" fill="#000100" transform="translate(0,0)"/>
<path d="" fill="#000100" transform="translate(0,0)"/>
<path d="" fill="#FBFDFD" transform="translate(0,0)"/>
<path d="" fill="#FBFDFD" transform="translate(0,0)"/>
<path d="" fill="#FBFDFD" transform="translate(0,0)"/>
<path d="" fill="#FBFDFD" transform="translate(0,0)"/>
<path d="" fill="#FBFDFD" transform="translate(0,0)"/>
<path d="" fill="#000100" transform="translate(0,0)"/>
<path d="" fill="#000100" transform="translate(0,0)"/>
<path d="" fill="#000100" transform="translate(0,0)"/>
<path d="" fill="#FBFDFD" transform="translate(0,0)"/>
<path d="" fill="#000100" transform="translate(0,0)"/>
<path d="" fill="#000100" transform="translate(0,0)"/>
<path d="" fill="#000100" transform="translate(0,0)"/>
<path d="" fill="#000100" transform="translate(0,0)"/>
<path d="" fill="#000100" transform="translate(0,0)"/>
<path d="" fill="#252523" transform="translate(0,0)"/>
<path d="" fill="#000100" transform="translate(0,0)"/>
<path d="" fill="#000100" transform="translate(0,0)"/>
<path d="" fill="#000100" transform="translate(0,0)"/>
<path d="" fill="#000100" transform="translate(0,0)"/>
<path d="" fill="#000100" transform="translate(0,0)"/>
<path d="" fill="#000100" transform="translate(0,0)"/>
<path d="" fill="#000100" transform="translate(0,0)"/>
<path d="" fill="#000100" transform="translate(0,0)"/>
<path d="" fill="#000100" transform="translate(0,0)"/>
<path d="" fill="#000100" transform="translate(0,0)"/>
<path d="" fill="#000100" transform="translate(0,0)"/>
<path d="" fill="#000100" transform="translate(0,0)"/>
<path d="" fill="#000100" transform="translate(0,0)"/>
<path d="" fill="#000100" transform="translate(0,0)"/>
<path d="" fill="#000100" transform="translate(0,0)"/>
<path d="" fill="#000100" transform="translate(0,0)"/>
<path d="" fill="#000100" transform="translate(0,0)"/>
<path d="" fill="#000100" transform="translate(0,0)"/>
<path d="" fill="#C85C08" transform="translate(0,0)"/>
<path d="" fill="#FBFDFD" transform="translate(0,0)"/>
<path d="" fill="#FBFDFD" transform="translate(0,0)"/>
<path d="" fill="#000100" transform="translate(0,0)"/>
<path d="" fill="#000100" transform="translate(0,0)"/>
<path d="" fill="#000100" transform="translate(0,0)"/>
<path d="" fill="#FBFDFD" transform="translate(0,0)"/>
<path d="" fill="#C85C08" transform="translate(0,0)"/>
<path d="" fill="#C85C08" transform="translate(0,0)"/>
</svg>
