<?xml version="1.0" encoding="UTF-8"?>
<!-- Generator: visioncortex VTracer 0.6.1 -->
<svg version="1.1" xmlns="http://www.w3.org/2000/svg" width="1280" height="222">
<path d="M0 0 C0.25828552 1.89505005 0.25828552 1.89505005 0.27124023 4.23095703 C0.28142685 5.10591827 0.29161346 5.98087952 0.30210876 6.88235474 C0.30424881 7.8312558 0.30638885 8.78015686 0.30859375 9.7578125 C0.33377034 11.7656277 0.3591681 13.77344013 0.38476562 15.78125 C0.41342133 18.94758278 0.43743367 22.11386709 0.45629883 25.28027344 C0.47806757 28.33555255 0.51753491 31.39024036 0.55859375 34.4453125 C0.55870956 35.38206818 0.55882538 36.31882385 0.5589447 37.28396606 C0.64705158 43.1882913 1.61433374 47.58784849 4 53 C4.61379517 52.24058105 4.61379517 52.24058105 5.23999023 51.46582031 C7.5507324 48.62698646 9.45436579 46.32478227 12.625 44.4375 C15.764071 42.53753597 17.0269043 40.05511592 19 37 C21.46951765 34.44532657 22.61271144 34.03796947 26.1875 33.6875 C38.27679133 34.67842552 38.27679133 34.67842552 42.0625 38.625 C45.08611899 43.89194922 44.32388643 47.9127319 43.4375 53.625 C41.55582896 58.04283636 38.96213052 60.36996509 35 63 C34.071875 63.350625 33.14375 63.70125 32.1875 64.0625 C29.72779896 64.83790275 29.72779896 64.83790275 28.6875 67.625 C28.3471875 68.800625 28.3471875 68.800625 28 70 C27.34 70 26.68 70 26 70 C24.8856663 73.19998135 24.8856663 73.19998135 25 77 C26.27917929 78.46303404 26.27917929 78.46303404 28.0625 79.6875 C32.59545227 83.03089025 34.27315801 87.15093499 36.58984375 92.1796875 C37.79758722 94.59517444 38.84740709 96.20251487 40.6875 98.125 C43.84458907 102.05002965 44.82414407 106.16273902 46 111 C49.06727955 108.95939822 50.54095976 107.39803339 51.9375 104 C53.64196988 100.33505291 55.16693308 98.61392291 59 97 C59.66 97 60.32 97 61 97 C61 96.34 61 95.68 61 95 C63.65339278 92.95309699 65.23647737 91.98182089 68.625 92.0625 C71.48986359 93.19336721 72.28370813 94.50357546 74 97 C77.56045177 98.18681726 80.43808337 98.09689832 84.1875 98.0625 C85.45980469 98.05347656 86.73210937 98.04445313 88.04296875 98.03515625 C89.01878906 98.02355469 89.99460937 98.01195312 91 98 C91.02698189 96.37509046 91.04638757 94.75005367 91.0625 93.125 C91.07410156 92.22007813 91.08570313 91.31515625 91.09765625 90.3828125 C91.16249257 87.9831415 91.16249257 87.9831415 90 86 C86.51453502 85.2787391 83.04235107 84.73969082 79.52148438 84.23242188 C69.65654094 82.68380543 64.11393434 77.7101384 57 71 C56.44441406 70.50886719 55.88882813 70.01773438 55.31640625 69.51171875 C51.09514948 65.66624152 50.12962363 61.68510714 49.69921875 56.08984375 C49.68478795 54.70579888 49.68103826 53.32160501 49.6875 51.9375 C49.66333008 50.89625977 49.66333008 50.89625977 49.63867188 49.83398438 C49.6344292 45.36644508 50.2354951 42.53206156 53 39 C53.94875 38.38125 54.8975 37.7625 55.875 37.125 C58.73564804 35.17975934 59.7499698 34.14239627 61.5625 31.375 C64.2912336 27.3079703 66.79966291 26.45769724 71.53515625 25.47265625 C83.71830706 23.81069317 102.607721 22.54725715 113.6875 28.625 C118.02300257 33.07767832 119.145807 37.88385643 119.4375 44 C119.25871709 49.80150541 117.26513094 54.3158502 113.54296875 58.7265625 C112 60 112 60 109.125 59.9375 C105.62021497 58.88606449 103.83119474 57.26495579 101 55 C95.80391503 53.54992977 90.35709535 53.9047157 85 54 C85.93983989 58.29218215 87.19455931 61.58489641 90 65 C93.38305816 66.55576039 96.97052834 67.07736335 100.61572266 67.71606445 C108.18012348 69.05908483 112.2571785 71.96846045 117.375 77.625 C118.79639399 79.70242199 119.97896928 81.70268088 121 84 C122.71240112 78.75963995 123.28682667 74.11407883 123.4375 68.625 C123.72593276 62.27329857 124.1512449 56.79925145 127 51 C129.5625 49.8125 129.5625 49.8125 132 49 C133.12949221 46.19623648 133.12949221 46.19623648 134 43 C136.72655811 38.03376916 139.00766624 36.44305695 144 34 C144.7425 32.7625 144.7425 32.7625 145.5 31.5 C147.50710975 28.15481709 149.38904317 27.38882955 153 26 C159.5867507 24.71283174 166.18299084 24.8162808 172.875 24.8125 C174.57462891 24.79413086 174.57462891 24.79413086 176.30859375 24.77539062 C184.1824071 24.76170497 191.54409231 24.78300262 198.3125 29.125 C202.1836065 33.2661837 204.22096187 37.66288561 206 43 C209.3 43 212.6 43 216 43 C216.4125 41.453125 216.825 39.90625 217.25 38.3125 C218.52698088 34.1133117 219.68856214 31.02760033 223 28 C230.95132758 24.46607663 239.77868829 24.79042066 248.3125 24.75 C249.92801758 24.7190625 249.92801758 24.7190625 251.57617188 24.6875 C258.36957916 24.65458222 264.75319051 25.10784513 271 28 C273.5625 30.8125 273.5625 30.8125 274.6484375 32.3828125 C276.93917579 35.12375369 279.9874712 36.76042361 283.01171875 38.60546875 C285.91301499 40.64036611 286.89266716 42.4941408 287.62182617 45.93066406 C289.32940001 59.47057817 289.34079049 73.01294533 289.31567383 86.64257812 C289.30980518 90.09561033 289.32703939 93.54811891 289.3500185 97.0010643 C289.36827572 100.32885707 289.36457289 103.65653244 289.36328125 106.984375 C289.372491 108.21766541 289.38170074 109.45095581 289.39118958 110.72161865 C289.38184639 112.44061371 289.38184639 112.44061371 289.37231445 114.19433594 C289.37294388 115.19785095 289.3735733 116.20136597 289.3742218 117.23529053 C288.93439693 120.48466822 287.91566849 122.36050488 286 125 C281.17612817 128.03214801 276.22498535 126.57523458 270.94140625 125.6328125 C266.3977216 124.94917554 262.5937534 125.12916082 258.0625 125.9375 C247.2721246 127.7992197 233.45619886 128.92658945 223 125 C220.45305084 123.08978813 219.32946327 121.906024 218.25 118.9375 C216.42998279 116.11647333 214.02496174 115.78638637 210.875 114.90625 C209 114 209 114 207.734375 112.3828125 C206.69392265 109.00687667 206.96361943 105.84397204 207.25 102.375 C207.33060669 101.30910645 207.33060669 101.30910645 207.4128418 100.22167969 C208.596118 85.83956952 208.596118 85.83956952 211.8125 81.625 C212.534375 81.08875 213.25625 80.5525 214 80 C217.75156013 77.17664683 217.75156013 77.17664683 220.5 73.4375 C222.397086 70.35473525 223.65815042 69.42206365 227 68 C234.29596247 66.85633679 241.75720868 66.7234003 249.125 66.4375 C250.176875 66.39431641 251.22875 66.35113281 252.3125 66.30664062 C254.87490627 66.20181491 257.43738799 66.09964645 260 66 C259.6564738 63.03737369 259.6564738 63.03737369 259 60 C257.04978917 58.77472052 257.04978917 58.77472052 255 58 C254.67 57.01 254.34 56.02 254 55 C248.80729396 52.96649274 242.41198615 53.17519555 237 54 C234.28487092 55.65682329 232.22298949 57.39765525 230 59.6640625 C228 61 228 61 225.45703125 60.515625 C222.53717118 58.71450305 221.38889486 57.0881528 219.6875 54.125 C219.17574219 53.26132813 218.66398437 52.39765625 218.13671875 51.5078125 C217 49 217 49 217 45 C213.04 45 209.08 45 205 45 C204.938125 45.825 204.87625 46.65 204.8125 47.5 C203.76903197 51.99493922 201.94304142 55.44552338 199 59 C196.1875 60.5 196.1875 60.5 194 61 C193.236875 60.21625 192.47375 59.4325 191.6875 58.625 C187.81883786 54.84630675 185.7800021 53.76007989 180.390625 53.77539062 C179.68421875 53.78763672 178.9778125 53.79988281 178.25 53.8125 C177.21359375 53.8134668 177.21359375 53.8134668 176.15625 53.81445312 C171.6829226 53.85229142 167.41419513 54.27778221 163 55 C162.8453125 55.9590625 162.8453125 55.9590625 162.6875 56.9375 C162.10875981 59.5155245 161.38015937 61.83087993 160.5 64.3125 C157.19889694 74.24849336 158.10011144 81.98083512 162.10546875 91.67578125 C163 94 163 94 163 97 C168.05770187 97.80553476 173.00511312 98.26853732 178.125 98.375 C178.81464844 98.41238281 179.50429687 98.44976562 180.21484375 98.48828125 C184.20603215 98.55696327 185.75886346 98.20902959 188.81640625 95.55859375 C189.53699219 94.71425781 190.25757813 93.86992187 191 93 C193.8125 91.6875 193.8125 91.6875 196 91 C201.52512023 94.37646236 203.38780724 98.95861102 205 105 C205.8461264 111.32714517 205.26153653 116.48912794 202 122 C194.93066123 128.40658826 181.83442757 127.31239809 172.9375 127.25 C171.83083984 127.25773438 170.72417969 127.26546875 169.58398438 127.2734375 C152.69168587 127.23352658 152.69168587 127.23352658 147.0625 122.5625 C146.381875 121.716875 145.70125 120.87125 145 120 C143.06148531 117.89291881 141.60319485 116.77204811 139.0625 115.3125 C135.21217419 112.40511112 133.80704338 109.37942279 132 105 C129.01509622 104.69291094 129.01509622 104.69291094 127.203125 106.3984375 C123.48404114 110.16215036 120.32739088 113.87002667 117.4375 118.3125 C114.34724952 122.89168935 112.32094735 124.54883254 107 126 C100.65060442 127.22544645 94.44679805 127.19101588 88 127.1875 C86.78916748 127.18814453 85.57833496 127.18878906 84.33081055 127.18945312 C76.93603588 127.14570589 69.936436 126.71277906 62.6484375 125.453125 C55.64349978 124.25464008 49.13544375 125.41758952 42.18359375 126.55078125 C35.55782985 127.48570499 26.30790808 128.48093106 20.75 124.3125 C18.42292751 121.23743992 16 117.96716815 16 114 C15.401875 113.731875 14.80375 113.46375 14.1875 113.1875 C10.60423649 111.24229981 9.28185647 109.75695903 7.83203125 105.86328125 C7.49558594 104.69152344 7.15914062 103.51976562 6.8125 102.3125 C6.46832031 101.13300781 6.12414062 99.95351562 5.76953125 98.73828125 C5.51558594 97.83464844 5.26164063 96.93101562 5 96 C4.01 96.33 3.02 96.66 2 97 C1.97083496 97.6705542 1.94166992 98.3411084 1.91162109 99.03198242 C1.76215115 102.08608109 1.56904153 105.13592237 1.375 108.1875 C1.32988281 109.24259766 1.28476562 110.29769531 1.23828125 111.38476562 C0.70859137 119.01711519 0.70859137 119.01711519 -1.30175781 121.80566406 C-8.37479287 127.89032741 -16.10448758 127.13198127 -24.828125 126.484375 C-27.74055303 126.03961998 -29.57390171 125.62481812 -32 124 C-36.51612503 117.22581245 -35.15191355 106.85428809 -35.16113281 98.91650391 C-35.16609772 97.86954346 -35.17106262 96.82258301 -35.17617798 95.74389648 C-35.19064492 92.32144491 -35.19757123 88.89903947 -35.203125 85.4765625 C-35.20736607 83.71378023 -35.20736607 83.71378023 -35.21169281 81.9153862 C-35.22661318 75.71100392 -35.23589103 69.50664452 -35.24023438 63.30224609 C-35.24574572 56.89643122 -35.26984987 50.49082604 -35.29820633 44.08507729 C-35.31680588 39.15061824 -35.32203662 34.21621036 -35.32357025 29.28171921 C-35.32659729 26.91899835 -35.33462751 24.5562784 -35.34775543 22.19359207 C-35.3647787 18.89793896 -35.36294598 15.60280793 -35.35644531 12.30712891 C-35.3656601 11.33250702 -35.37487488 10.35788513 -35.3843689 9.35372925 C-35.353832 4.42044692 -35.25641657 0.98315058 -32 -3 C-23.33827101 -10.34934581 -7.57086305 -7.57086305 0 0 Z M240 87 C239.08400573 89.40404738 239.08400573 89.40404738 238.75 92.125 C238.60046875 93.03507812 238.4509375 93.94515625 238.296875 94.8828125 C238.19890625 95.58148438 238.1009375 96.28015625 238 97 C242.14345411 98.57845871 245.56709907 99.66021929 250 99 C252.666508 96.83411155 252.666508 96.83411155 255 94 C255.9075 93.13375 256.815 92.2675 257.75 91.375 C260.19004674 89.13466888 260.19004674 89.13466888 261 86 C258.97307871 83.97307871 254.96251392 84.81492783 252.1875 84.8125 C251.46240234 84.80025391 250.73730469 84.78800781 249.99023438 84.77539062 C244.60730789 84.64976395 244.60730789 84.64976395 240 87 Z " fill="#FEFEFE" transform="translate(868,35)"/>
<path d="M0 0 C2.22345129 -0.00965354 4.44595724 -0.04064984 6.66918945 -0.07226562 C8.09561628 -0.07880128 9.5220497 -0.08404954 10.94848633 -0.08789062 C12.23972412 -0.09723633 13.53096191 -0.10658203 14.86132812 -0.11621094 C20.16832536 0.39498626 24.11596321 1.71627842 27.87426758 5.67773438 C30.55106857 8.23003299 32.04891197 8.9513613 35.43676758 10.17773438 C39.73606477 11.75033866 42.41161901 13.61773644 45.70629883 16.73242188 C47.91507502 18.52734316 50.17062344 19.60564118 52.74926758 20.80273438 C56.74461969 22.70325901 59.29450544 24.29716978 61.56176758 28.24023438 C62.81684023 33.34461961 62.74562056 38.32656097 62.74926758 43.55273438 C62.76151367 44.46474609 62.77375977 45.37675781 62.78637695 46.31640625 C62.79548635 50.55227468 62.67777826 54.28363991 61.42504883 58.34570312 C60.60671901 62.03744442 60.53434606 62.85166659 61.48901367 66.20581055 C62.89026929 72.02855092 62.86743406 77.72098079 62.86254883 83.68554688 C62.86683395 84.85479706 62.87111908 86.02404724 62.87553406 87.22872925 C62.88125063 89.68779861 62.88179746 92.14688488 62.87744141 94.60595703 C62.87427145 98.36064415 62.89780979 102.11455011 62.9230957 105.86914062 C62.92536801 108.26627505 62.92607251 110.66341159 62.92504883 113.06054688 C62.93425858 114.17736847 62.94346832 115.29419006 62.95295715 116.44485474 C62.89812898 125.70093257 61.14649394 131.0328822 54.74926758 137.99023438 C53.91782227 138.91320312 53.08637695 139.83617187 52.22973633 140.78710938 C49.56176758 143.24023438 49.56176758 143.24023438 46.48754883 144.75585938 C43.42095848 146.05143817 43.42095848 146.05143817 41.58520508 148.77148438 C39.04912731 151.86569509 36.95933353 152.50909397 33.18676758 153.74023438 C27.89135437 155.61791445 24.63892763 157.46886132 20.56176758 161.24023438 C14.66529922 164.1589767 8.56461588 163.6084228 2.12426758 163.61523438 C0.90932617 163.63972656 -0.30561523 163.66421875 -1.55737305 163.68945312 C-11.52216289 163.72221408 -11.52216289 163.72221408 -15.22338867 161.46679688 C-17.38929459 159.28943114 -18.22180804 158.2701757 -18.43823242 155.24023438 C-19.38182617 155.09328125 -19.38182617 155.09328125 -20.34448242 154.94335938 C-26.08420693 153.94063642 -31.6834664 152.79417938 -36.43823242 149.24023438 C-36.76823242 148.37398437 -37.09823242 147.50773438 -37.43823242 146.61523438 C-37.76823242 145.83148438 -38.09823242 145.04773438 -38.43823242 144.24023438 C-40.42601014 143.53158716 -42.39540954 143.16177621 -44.46557617 142.75976562 C-47.35084283 141.99988352 -48.69629593 140.609268 -50.43823242 138.24023438 C-50.58260742 137.53898438 -50.72698242 136.83773437 -50.87573242 136.11523438 C-51.15416992 135.18710937 -51.15416992 135.18710937 -51.43823242 134.24023438 C-52.22198242 133.95148438 -53.00573242 133.66273438 -53.81323242 133.36523438 C-56.43823242 132.24023438 -56.43823242 132.24023438 -58.07885742 129.66601562 C-59.62308588 125.77438242 -59.8833747 122.42164461 -59.81323242 118.30273438 C-59.83063477 117.28663086 -59.83063477 117.28663086 -59.84838867 116.25 C-59.81958739 111.24337799 -58.40448443 107.77047901 -56.43823242 103.24023438 C-56.21300572 100.15951571 -56.21300572 100.15951571 -56.62573242 97.17773438 C-56.77075195 95.70626953 -56.77075195 95.70626953 -56.91870117 94.20507812 C-57.33155163 91.25636622 -57.33155163 91.25636622 -58.4519043 88.69360352 C-59.76761901 84.08697365 -59.74366339 79.78917087 -59.73901367 75.02148438 C-59.7432988 74.04538208 -59.74758392 73.06927979 -59.7519989 72.06359863 C-59.75772511 70.00611139 -59.7582551 67.9486039 -59.75390625 65.89111328 C-59.75074289 62.75062468 -59.77423893 59.61107566 -59.79956055 56.47070312 C-59.80183343 54.46679806 -59.80253709 52.46289047 -59.80151367 50.45898438 C-59.81532829 49.05718933 -59.81532829 49.05718933 -59.829422 47.6270752 C-59.79260089 42.41842172 -59.38862425 38.727482 -56.43823242 34.24023438 C-55.23166992 33.31210938 -55.23166992 33.31210938 -54.00073242 32.36523438 C-50.98663334 29.86573758 -50.01596475 27.56662547 -48.40698242 24.07617188 C-46.54191303 20.54156455 -44.10321614 19.46189561 -40.43823242 18.24023438 C-40.03088867 17.45519531 -39.62354492 16.67015625 -39.20385742 15.86132812 C-36.84732023 12.36301738 -34.02597818 11.58167167 -30.18823242 10.30273438 C-24.16878788 8.1203172 -20.02698762 5.82898957 -15.43823242 1.24023438 C-10.99042005 -0.98367181 -4.94610278 0.01300038 0 0 Z " fill="#FEFEFE" transform="translate(67.438232421875,18.759765625)"/>
<path d="M0 0 C3.50660799 3.56284121 4.50119708 5.879108 4.5300293 10.84423828 C4.54652023 11.99538116 4.56301117 13.14652405 4.58000183 14.33255005 C4.57809341 15.56601166 4.576185 16.79947327 4.57421875 18.0703125 C4.58838333 19.34349335 4.60254791 20.61667419 4.61714172 21.92843628 C4.65195416 25.30419507 4.67034054 28.67918765 4.67993164 32.05505371 C4.69734583 36.81783375 4.74447 41.58040767 4.78999329 46.34298706 C4.81250686 48.87705381 4.82831023 51.41119061 4.83683777 53.94534302 C4.84387222 55.09018158 4.85090668 56.23502014 4.8581543 57.41455078 C4.86163376 58.42317169 4.86511322 59.4317926 4.86869812 60.47097778 C4.89385571 63.1259253 4.89385571 63.1259253 6 66 C8.10584438 66.80563638 8.10584438 66.80563638 10.5625 67.1875 C11.38878906 67.34605469 12.21507812 67.50460938 13.06640625 67.66796875 C13.70449219 67.77753906 14.34257813 67.88710937 15 68 C15.10957031 67.2265625 15.21914063 66.453125 15.33203125 65.65625 C17.68343013 50.20966227 22.56531804 44.46046824 34.5703125 34.69921875 C45.31354192 27.18586699 61.5616601 29.73559085 74 30 C75.23492188 30.00902344 76.46984375 30.01804688 77.7421875 30.02734375 C87.29452575 30.76512597 93.45730877 37.62082364 100 44 C100.91910156 44.84949219 101.83820313 45.69898438 102.78515625 46.57421875 C106.48072189 50.62174303 107.35846606 55.07365505 108.625 60.3125 C108.88539063 61.38113281 109.14578125 62.44976562 109.4140625 63.55078125 C109.60742188 64.35902344 109.80078125 65.16726562 110 66 C110.30292969 65.09636719 110.60585938 64.19273438 110.91796875 63.26171875 C111.33691406 62.08222656 111.75585938 60.90273437 112.1875 59.6875 C112.59355469 58.51574219 112.99960937 57.34398437 113.41796875 56.13671875 C115.21481278 52.57408724 116.58080898 51.85659895 120 50 C121.27672963 48.10225932 121.27672963 48.10225932 122.0625 46 C123.54934079 42.73854279 124.70215615 40.70211296 128 39 C128.99 39 129.98 39 131 39 C131.20625 38.236875 131.4125 37.47375 131.625 36.6875 C133.49196769 33.03842679 135.18613475 32.41254269 139 31 C153.1762491 28.71096201 172.44909563 27.30832768 185.5625 33.75 C190.21998464 38.04921659 191.70167454 43.01674536 192.3125 49.125 C191.90576441 54.16852136 190.42896449 58.556376 188 63 C185 65 185 65 182.625 64.875 C180 64 180 64 177.5625 62 C171.7545559 57.46697046 161.02664861 57.91973141 153.83837891 58.57080078 C150.86776693 59.26433808 149.76795681 60.79275361 148.1875 63.3125 C147.83042969 64.11300781 147.47335937 64.91351563 147.10546875 65.73828125 C146 68 146 68 143.9140625 69.40234375 C141.71149104 70.91072348 141.71149104 70.91072348 141.35546875 73.890625 C141.18685428 77.26291441 141.04077806 80.62357623 141 84 C140.98710938 84.73734375 140.97421875 85.4746875 140.9609375 86.234375 C141.00466425 88.24164104 141.00466425 88.24164104 142 91 C144.50814445 93.36238824 144.50814445 93.36238824 146.33203125 94.46875 C148.9599345 96.88125134 150.3140116 99.86940114 152 103 C154.68777802 103.0544207 157.37443212 103.09387266 160.0625 103.125 C160.81466797 103.14175781 161.56683594 103.15851563 162.34179688 103.17578125 C168.63843604 103.23029761 173.83865217 102.51294348 179.125 98.8125 C182 97 182 97 184.625 96.8125 C188.73325462 98.86662731 190.14740417 102.79746077 191.75 106.9375 C192.55787553 113.60247309 192.30142185 120.00560948 189 126 C181.22541083 133.5717738 168.5113079 132.18085554 158.3125 132.25 C156.8886499 132.26401855 156.8886499 132.26401855 155.43603516 132.27832031 C137.7225419 132.19865402 137.7225419 132.19865402 132.8125 127.5 C131 125 131 125 131 123 C130.2575 122.938125 129.515 122.87625 128.75 122.8125 C125.09267905 121.7319279 124.07473911 120.14788003 122 117 C121.690625 116.13375 121.38125 115.2675 121.0625 114.375 C120.20256765 111.78940189 120.20256765 111.78940189 117.609375 110.76953125 C114.14362999 108.41925806 113.5441158 106.2273056 112.1875 102.3125 C111.55908203 100.54326172 111.55908203 100.54326172 110.91796875 98.73828125 C110.61503906 97.83464844 110.31210937 96.93101563 110 96 C109.63648438 97.51980469 109.63648438 97.51980469 109.265625 99.0703125 C108.92769604 100.42202833 108.58911976 101.77358243 108.25 103.125 C108.09273437 103.79015625 107.93546875 104.4553125 107.7734375 105.140625 C105.24866126 115.04551641 98.83225746 119.96191606 91 126 C89.5459375 127.2065625 89.5459375 127.2065625 88.0625 128.4375 C75.2765071 134.96096576 51.51315071 134.28298166 38 130 C33.39749655 127.71378914 29.98979768 124.39015935 26.375 120.8125 C25.80265625 120.27302734 25.2303125 119.73355469 24.640625 119.17773438 C18.84561691 113.45684848 16.99033276 107.47302174 15.8125 99.5 C15.65394531 98.4584375 15.49539063 97.416875 15.33203125 96.34375 C15.22246094 95.5703125 15.11289062 94.796875 15 94 C13.51793505 94.254496 12.03931385 94.52911762 10.5625 94.8125 C9.32693359 95.03873047 9.32693359 95.03873047 8.06640625 95.26953125 C7.04353516 95.63111328 7.04353516 95.63111328 6 96 C4.9484219 99.15473429 4.82957368 101.52550833 4.75390625 104.83984375 C4.72103516 105.98517578 4.68816406 107.13050781 4.65429688 108.31054688 C4.59320019 110.72451607 4.53589576 113.13858429 4.48242188 115.55273438 C4.44826172 116.69935547 4.41410156 117.84597656 4.37890625 119.02734375 C4.3538501 120.07656006 4.32879395 121.12577637 4.30297852 122.20678711 C3.99870487 125.01194002 3.55136557 126.66226731 2 129 C-4.10133436 132.79638582 -10.97326006 132.90724997 -18 132 C-24.40052716 128.77269194 -24.40052716 128.77269194 -25.61622238 125.17777824 C-26.03604273 122.79547251 -26.1319139 120.57503265 -26.14044189 118.1555481 C-26.14615204 117.18267853 -26.15186218 116.20980896 -26.15774536 115.2074585 C-26.15886322 114.1465802 -26.15998108 113.0857019 -26.16113281 111.99267578 C-26.16609772 110.87031525 -26.17106262 109.74795471 -26.17617798 108.59158325 C-26.19079143 104.87615345 -26.1975998 101.16076633 -26.203125 97.4453125 C-26.20887652 94.86465453 -26.21463425 92.28399657 -26.22039795 89.70333862 C-26.22956239 84.98296609 -26.23586405 80.26261062 -26.2388947 75.54223073 C-26.24337553 68.60212297 -26.26092847 61.66221215 -26.2898953 54.72216427 C-26.31414093 48.7036371 -26.32184014 42.68520292 -26.32357025 36.66662216 C-26.32659854 34.10935264 -26.33463293 31.55208399 -26.34775543 28.99484634 C-26.36479973 25.41844987 -26.36293946 21.84253383 -26.35644531 18.26611328 C-26.3656601 17.20928345 -26.37487488 16.15245361 -26.3843689 15.06359863 C-26.35357663 9.65334771 -26.17246446 5.61206775 -23 1 C-16.49148197 -3.33901202 -7.10002938 -2.78929726 0 0 Z M52 62 C48.26916741 65.84742111 48.26916741 65.84742111 45.92578125 67.17578125 C42.36004163 70.5534697 43.19054133 75.54455349 43.04296875 80.1875 C43.02878906 81.445625 43.01460937 82.70375 43 84 C42.97550781 84.928125 42.95101562 85.85625 42.92578125 86.8125 C43.03034679 90.07054209 43.11997464 92.14705234 45.5234375 94.4765625 C46.74871423 95.31926337 48.00378362 96.12032655 49.28515625 96.875 C51.67902221 98.44546332 52.6843871 100.50725976 54 103 C56.88415883 104.44207941 59.41721528 104.09394887 62.625 104.0625 C64.40777344 104.04896484 64.40777344 104.04896484 66.2265625 104.03515625 C67.14179687 104.02355469 68.05703125 104.01195312 69 104 C69.53625 102.906875 70.0725 101.81375 70.625 100.6875 C72.73668429 96.94096336 74.9786876 95.60852496 79 94 C82.15752728 90.84247272 80.99186159 79.50560616 81.015625 75.109375 C80.92632736 72.49297089 80.92632736 72.49297089 80 69 C77.71495163 67.02872012 77.71495163 67.02872012 75 66 C72.89002661 64.2146379 71.9898701 62.97803518 70.81640625 60.43359375 C69.19013339 57.69508042 69.19013339 57.69508042 66.00390625 57.37109375 C64.86824219 57.39300781 63.73257813 57.41492188 62.5625 57.4375 C61.42941406 57.43621094 60.29632812 57.43492188 59.12890625 57.43359375 C55.43056211 58.10308177 54.34251743 59.13988761 52 62 Z " fill="#FEFEFE" transform="translate(636,30)"/>
<path d="M0 0 C3.50629036 4.77449184 3.02684392 9.08440372 2.96620178 14.8671875 C2.97335709 16.04982178 2.98051239 17.23245605 2.98788452 18.45092773 C3.00188 21.68676656 2.99347927 24.92156765 2.97379422 28.15734863 C2.95738267 31.54761684 2.96622408 34.93783376 2.97131348 38.328125 C2.97583169 44.0209672 2.95998197 49.71348053 2.93202209 55.40625 C2.89997101 61.98260552 2.89998655 68.558368 2.91723686 75.13476562 C2.93311526 81.46784888 2.92636009 87.80071526 2.90929985 94.13378906 C2.9024374 96.82590528 2.90345338 99.51784723 2.9108448 102.20996094 C2.91628901 105.97107801 2.89594468 109.73118542 2.86854553 113.4921875 C2.87833435 115.16462524 2.87833435 115.16462524 2.88832092 116.87084961 C2.79508137 124.39023027 2.79508137 124.39023027 0.48925781 128.34765625 C-4.53207637 132.61811113 -11.43773523 131.58482845 -17.66490173 131.1796875 C-21.89029661 130.33460852 -24.13791117 128.9616735 -26.60240173 125.3046875 C-27.62384228 122.30045061 -27.75483373 120.30085671 -27.66490173 117.1796875 C-31.17249644 116.54450938 -34.18262202 116.32698851 -37.66490173 117.1796875 C-39.85998069 119.53527618 -41.35977159 122.00440731 -43.02037048 124.7578125 C-45.50732384 128.42030913 -47.42872302 129.04499677 -51.66490173 130.1796875 C-65.9867286 132.85309518 -87.58543022 134.21942326 -100.91490173 127.5546875 C-102.27615173 126.3790625 -102.27615173 126.3790625 -103.66490173 125.1796875 C-104.39451111 124.55320312 -105.12412048 123.92671875 -105.87583923 123.28125 C-116.76280409 113.80360098 -119.83088079 107.52820432 -121.66490173 93.1796875 C-122.65490173 92.8496875 -123.64490173 92.5196875 -124.66490173 92.1796875 C-127.10434533 84.86135671 -126.9668104 77.76015569 -125.66490173 70.1796875 C-125.00490173 69.1896875 -124.34490173 68.1996875 -123.66490173 67.1796875 C-123.00490173 67.1796875 -122.34490173 67.1796875 -121.66490173 67.1796875 C-121.55533142 66.27347656 -121.44576111 65.36726563 -121.33287048 64.43359375 C-118.93546968 46.01453878 -118.93546968 46.01453878 -114.83287048 42.69921875 C-113.43678684 41.85742434 -112.01660324 41.05429302 -110.57505798 40.29296875 C-108.42354823 39.19736708 -108.42354823 39.19736708 -106.66490173 36.6171875 C-102.86666816 31.98809033 -97.7125973 30.08551761 -91.84873962 29.35400391 C-87.00282532 28.96719755 -82.14834687 28.99505215 -77.28990173 28.9921875 C-76.20451111 28.97994141 -75.11912048 28.96769531 -74.00083923 28.95507812 C-58.59318007 28.9271657 -58.59318007 28.9271657 -53.22740173 33.0546875 C-51.66490173 35.1796875 -51.66490173 35.1796875 -50.80943298 37.1796875 C-49.42124531 39.60546255 -48.28037534 40.11113977 -45.78990173 41.3046875 C-40.64247295 44.29019619 -39.16393804 48.60761175 -37.66490173 54.1796875 C-37.66490173 54.8396875 -37.66490173 55.4996875 -37.66490173 56.1796875 C-36.36552673 56.0353125 -35.06615173 55.8909375 -33.72740173 55.7421875 C-32.9965033 55.66097656 -32.26560486 55.57976562 -31.51255798 55.49609375 C-29.65349945 55.36082136 -29.65349945 55.36082136 -28.66490173 54.1796875 C-28.55809046 52.70776766 -28.51870297 51.2308722 -28.50718689 49.75512695 C-28.49179367 48.34279533 -28.49179367 48.34279533 -28.47608948 46.90193176 C-28.46878815 45.87597397 -28.46148682 44.85001617 -28.45396423 43.79296875 C-28.42588512 41.63606026 -28.39722059 39.47915932 -28.36802673 37.32226562 C-28.32681655 33.90991509 -28.28994443 30.49770403 -28.26353455 27.08520508 C-28.23588165 23.79999297 -28.18999508 20.51542998 -28.14146423 17.23046875 C-28.13821136 16.21463211 -28.1349585 15.19879547 -28.13160706 14.1521759 C-28.03894808 8.79775441 -27.80891811 4.73553656 -24.66490173 0.1796875 C-17.59058808 -3.9581186 -6.95155419 -4.74839309 0 0 Z M-86.27037048 62.55078125 C-87.66490173 64.1796875 -87.66490173 64.1796875 -90.66490173 65.1796875 C-91.88360102 67.68416266 -91.88360102 67.68416266 -92.66490173 70.1796875 C-90.95405672 71.89053251 -88.7213008 71.30983439 -86.38755798 71.3125 C-84.78170837 71.31443359 -84.78170837 71.31443359 -83.14341736 71.31640625 C-82.0161322 71.31253906 -80.88884705 71.30867188 -79.72740173 71.3046875 C-78.60398376 71.30855469 -77.4805658 71.31242187 -76.32310486 71.31640625 C-75.25124939 71.31511719 -74.17939392 71.31382813 -73.07505798 71.3125 C-72.08642761 71.31137207 -71.09779724 71.31024414 -70.07920837 71.30908203 C-67.65317794 71.33995254 -67.65317794 71.33995254 -65.66490173 70.1796875 C-66.33573222 66.35914814 -67.13000051 62.75211605 -68.66490173 59.1796875 C-71.90960101 57.26453278 -71.90960101 57.26453278 -75.66490173 57.1796875 C-76.67552673 56.9940625 -77.68615173 56.8084375 -78.72740173 56.6171875 C-82.7169407 57.38114177 -83.93142491 59.36131001 -86.27037048 62.55078125 Z M-42.68199158 87.16821289 C-47.86110909 88.33712576 -52.87498448 88.52699191 -58.16880798 88.59375 C-59.61464516 88.62279922 -59.61464516 88.62279922 -61.08969116 88.6524353 C-64.13550774 88.71169562 -67.18136322 88.75840025 -70.22740173 88.8046875 C-72.30619327 88.84291666 -74.3849698 88.88197118 -76.46372986 88.921875 C-81.53066372 89.01735246 -86.59767158 89.10157868 -91.66490173 89.1796875 C-91.99490173 89.8396875 -92.32490173 90.4996875 -92.66490173 91.1796875 C-90.92956615 94.27253297 -90.92956615 94.27253297 -88.22740173 95.5546875 C-85.29139562 97.41654503 -84.32309713 99.17914344 -82.66490173 102.1796875 C-79.31999721 103.85213976 -75.58918814 103.36428063 -71.91490173 103.3671875 C-70.71607361 103.38555664 -70.71607361 103.38555664 -69.49302673 103.40429688 C-63.38266184 103.41937179 -58.6035571 103.07218441 -54.03990173 98.6171875 C-53.25615173 97.8128125 -52.47240173 97.0084375 -51.66490173 96.1796875 C-49.66490173 95.1171875 -49.66490173 95.1171875 -47.66490173 95.1796875 C-43.97005854 97.35869759 -42.32903247 99.72640363 -40.41490173 103.4296875 C-39.28483528 105.56253622 -39.28483528 105.56253622 -37.66490173 107.1796875 C-34.56215336 107.92880997 -31.78529936 107.80505645 -28.66490173 107.1796875 C-27.45994264 106.19561439 -27.45994264 106.19561439 -27.55137634 104.32202148 C-27.55661316 103.53126221 -27.56184998 102.74050293 -27.56724548 101.92578125 C-27.57046814 101.07177734 -27.5736908 100.21777344 -27.57701111 99.33789062 C-27.58539001 98.44005859 -27.59376892 97.54222656 -27.60240173 96.6171875 C-27.60691345 95.71548828 -27.61142517 94.81378906 -27.61607361 93.88476562 C-27.62789949 91.64967436 -27.64437953 89.41471313 -27.66490173 87.1796875 C-29.92378406 86.05024634 -31.21890538 86.01430828 -33.72740173 85.9921875 C-34.79667908 85.97091797 -34.79667908 85.97091797 -35.88755798 85.94921875 C-38.31102876 86.15032251 -40.33800134 86.57514167 -42.68199158 87.16821289 Z " fill="#FEFEFE" transform="translate(497.66490173339844,30.8203125)"/>
<path d="M0 0 C1.96453125 -0.04253906 1.96453125 -0.04253906 3.96875 -0.0859375 C7.5 0.375 7.5 0.375 9.84765625 2.1484375 C11.37106265 4.20125464 12.44377241 6.03035241 13.4375 8.375 C15.20514771 12.13125139 17.21452315 13.81072538 20.5 16.375 C22.32746682 18.95142863 23.93559189 21.63229302 25.5 24.375 C26.26183594 23.27091797 26.26183594 23.27091797 27.0390625 22.14453125 C33.35436355 13.19194156 33.35436355 13.19194156 36.75 10.5625 C39.7779437 8.15390842 41.43649165 5.61765598 43.5 2.375 C46.41000797 0.91999601 49.0089333 1.16602616 52.25 1.125 C53.46171875 1.09921875 54.6734375 1.0734375 55.921875 1.046875 C60.73975504 1.48868933 63.82396559 2.96084597 67.5 6.0625 C69.08692269 9.73225871 67.71965129 12.77474591 66.5 16.375 C66.18482422 17.44234375 66.18482422 17.44234375 65.86328125 18.53125 C64.36896601 23.16103596 62.79113448 25.73430186 58.5 28.375 C57.84 28.375 57.18 28.375 56.5 28.375 C56.4175 29.365 56.335 30.355 56.25 31.375 C55.40722323 37.14567979 53.19193736 41.87979954 48.8125 45.75 C48.049375 46.28625 47.28625 46.8225 46.5 47.375 C44.4458703 51.48325941 45.13121004 56.75232419 46.125 61.125 C47.45570736 63.61137336 47.45570736 63.61137336 50.3125 65.5 C54.16345791 68.44649564 55.3922036 72.28263394 57.20703125 76.6640625 C58.45501644 79.28068401 59.72163053 81.02109127 61.6875 83.125 C64.63009296 86.32745832 66.01661666 88.94398603 66.5 93.375 C65.1875 96.6875 65.1875 96.6875 62.5 99.375 C55.71958103 102.19792344 47.64654247 102.42384749 40.75 100.125 C32.85876836 95.87587527 30.18083623 91.08134146 27.25 82.875 C27.0025 82.05 26.755 81.225 26.5 80.375 C22.91021654 81.70454943 21.06317726 83.8998301 18.7265625 86.8671875 C17.5 88.375 17.5 88.375 15.375 90.375 C13.30447977 92.36635187 13.30447977 92.36635187 12.125 95.4375 C9.97223633 99.32903433 8.76459304 100.05150561 4.5 101.375 C-5.20466712 102.47594963 -16.64926715 101.36110905 -24.90234375 95.73828125 C-25.42957031 95.28839844 -25.95679688 94.83851563 -26.5 94.375 C-27.304375 95.550625 -27.304375 95.550625 -28.125 96.75 C-31.80618798 100.81868145 -35.00494103 101.27854458 -40.375 101.625 C-45.65806666 101.4529461 -50.72869311 101.0660701 -54.70301819 97.27177429 C-56.92730012 93.68618278 -57.05780474 90.80480644 -57.00170898 86.71411133 C-57.00711197 85.95891205 -57.01251495 85.20371277 -57.01808167 84.42562866 C-57.03055969 81.93569392 -57.01407716 79.44691829 -56.99609375 76.95703125 C-56.99624884 75.21693359 -56.9977395 73.47683558 -57.00050354 71.73674011 C-57.00188739 68.08923063 -56.98933832 64.44211438 -56.96655273 60.79467773 C-56.9382737 56.14232027 -56.94087683 51.49062118 -56.95364285 46.83821583 C-56.96063603 43.24257391 -56.95276769 39.64708122 -56.94038582 36.05145836 C-56.93589911 34.33762881 -56.93550995 32.62378306 -56.93945122 30.90995216 C-56.96560856 9.51306738 -56.96560856 9.51306738 -52.08372498 3.68391418 C-47.81148539 0.15300126 -41.70803742 0.9926184 -36.5 1.375 C-33.5625 2.25 -33.5625 2.25 -31.5 4.375 C-28.09737169 11.16864356 -26.39434933 17.40445056 -26.29467773 24.97949219 C-26.28477814 25.63356552 -26.27487854 26.28763885 -26.26467896 26.96153259 C-26.23319149 29.11494374 -26.20835728 31.26837692 -26.18359375 33.421875 C-26.16301319 34.91832032 -26.14201643 36.41475996 -26.12062073 37.91119385 C-26.06551382 41.84352009 -26.01605453 45.77589781 -25.96777344 49.70831299 C-25.91747514 53.72355716 -25.86183261 57.73872689 -25.80664062 61.75390625 C-25.69919832 69.62754116 -25.59772264 77.50123849 -25.5 85.375 C-24.04243074 85.4312145 -22.58424406 85.47159891 -21.12597656 85.50512695 C-20.31404846 85.52928177 -19.50212036 85.55343658 -18.66558838 85.57832336 C-16.27129004 85.59031214 -16.27129004 85.59031214 -14.484375 83.29296875 C-14.07703125 82.39191406 -13.6696875 81.49085938 -13.25 80.5625 C-10.93954121 75.62068536 -10.93954121 75.62068536 -7.94921875 73.94921875 C-4.57061842 71.77764629 -4.44744755 69.84798088 -3.5625 66 C-1.62418448 58.82664381 -1.62418448 58.82664381 1.6875 56.4375 C4.69529028 54.58860962 4.69529028 54.58860962 5.8125 51.4375 C5.82653331 48.41567014 5.82653331 48.41567014 4.125 46.9765625 C2.87676018 46.00272023 1.62106081 45.0383891 0.359375 44.08203125 C-2.79762095 41.18369673 -4.30942582 37.44217889 -5.5 33.375 C-5.5 32.055 -5.5 30.735 -5.5 29.375 C-6.263125 29.148125 -7.02625 28.92125 -7.8125 28.6875 C-11.19770254 27.03426155 -11.84396524 25.73711452 -13.5 22.375 C-14.37109375 18.78125 -14.37109375 18.78125 -14.9375 14.875 C-15.14246094 13.5859375 -15.34742188 12.296875 -15.55859375 10.96875 C-15.5 7.375 -15.5 7.375 -13.78515625 4.53125 C-9.32602202 0.32365667 -6.1371387 0.06040491 0 0 Z " fill="#FEFEFE" transform="translate(307.5,60.625)"/>
<path d="M0 0 C2.45965976 4.05120432 2.11683437 7.96924412 1.3203125 12.47265625 C0.71072329 17.85736093 0.99494906 23.33841881 1.0625 28.75 C1.79774902 28.73952637 2.53299805 28.72905273 3.29052734 28.71826172 C6.67281576 28.67628202 10.05504907 28.6505417 13.4375 28.625 C14.59378906 28.60824219 15.75007812 28.59148438 16.94140625 28.57421875 C34.18312336 28.47680792 34.18312336 28.47680792 39.4375 32.625 C39.97375 33.32625 40.51 34.0275 41.0625 34.75 C43.30698003 37.14411203 45.13342692 38.79074525 48 40.4375 C51.56797424 43.13168463 52.86218133 45.60674478 54.8359375 49.53515625 C56.0850828 52.01210536 56.0850828 52.01210536 58.75 54.5625 C64.16953022 62.03266328 63.24324644 71.98671568 63.3125 80.875 C63.3266394 82.25171875 63.3266394 82.25171875 63.34106445 83.65625 C63.27135972 98.34422122 63.27135972 98.34422122 59.4765625 104.1953125 C58.88617187 104.74960938 58.29578125 105.30390625 57.6875 105.875 C55.12192168 108.48281006 53.4920324 110.63127582 52.0625 114 C50.0444821 118.45718735 47.4769897 119.78800458 43.0625 121.75 C42.4025 121.75 41.7425 121.75 41.0625 121.75 C40.98 122.348125 40.8975 122.94625 40.8125 123.5625 C39.83001478 126.4280819 38.59041056 127.12830365 36.0625 128.75 C29.32767474 130.95636003 22.25510879 131.05761928 15.234375 131.05078125 C14.24173645 131.05506638 13.2490979 131.0593515 12.22637939 131.06376648 C10.14571898 131.06946841 8.06503865 131.07004089 5.984375 131.06567383 C2.80694874 131.06249445 -0.36956214 131.08609191 -3.546875 131.11132812 C-5.57812383 131.11359966 -7.60937515 131.11430529 -9.640625 131.11328125 C-11.05640839 131.12709587 -11.05640839 131.12709587 -12.50079346 131.14118958 C-17.6622653 131.10499408 -21.60121555 130.87763688 -25.9375 127.75 C-27.64189508 124.31306005 -28.18908408 121.51589479 -28.19819641 117.70263672 C-28.20528122 116.71011902 -28.21236603 115.71760132 -28.21966553 114.69500732 C-28.21718811 113.61745178 -28.21471069 112.53989624 -28.2121582 111.4296875 C-28.21726913 110.2860675 -28.22238007 109.14244751 -28.22764587 107.96417236 C-28.24154468 104.184395 -28.24058504 100.40479988 -28.23828125 96.625 C-28.24216761 93.99853446 -28.24650215 91.37206956 -28.25126648 88.74560547 C-28.25947334 83.24119449 -28.25857511 77.73683485 -28.25317383 72.23242188 C-28.24713072 65.87429002 -28.25945596 59.51637928 -28.2807439 53.15828514 C-28.30049135 47.03455544 -28.30353293 40.91092907 -28.30000877 34.78717041 C-28.3005227 32.18442261 -28.30577372 29.58167133 -28.31582069 26.97894287 C-28.32813631 23.34255856 -28.3214225 19.70668838 -28.30981445 16.0703125 C-28.31745819 14.99275696 -28.32510193 13.91520142 -28.33297729 12.80499268 C-28.26783281 3.58711794 -28.26783281 3.58711794 -24.9375 -0.25 C-18.11944954 -4.79536697 -6.9070756 -4.45617781 0 0 Z M7.8125 58.25 C2.90041238 65.26726802 1.34170155 70.98264384 1.4375 79.5625 C1.44152832 80.5321167 1.44555664 81.5017334 1.44970703 82.50073242 C1.66270605 90.09025723 2.93570899 95.866144 8.0625 101.75 C12.07569203 103.75659602 16.95931109 102.85607586 21.3125 102.4375 C25.23285607 100.03182696 25.96138103 97.2579656 27.30859375 92.95703125 C29.32403846 84.38355919 29.83281154 76.16519365 27.0625 67.75 C26.78148437 66.84636719 26.50046875 65.94273438 26.2109375 65.01171875 C24.94346815 61.23129326 24.94346815 61.23129326 23.0625 57.75 C20.67770036 56.89271622 20.67770036 56.89271622 18.0625 56.75 C17.37027344 56.67136719 16.67804687 56.59273437 15.96484375 56.51171875 C12.71237932 56.38886224 10.55275287 56.42316475 7.8125 58.25 Z " fill="#FEFEFE" transform="translate(542.9375,31.25)"/>
<path d="M0 0 C0.91273682 -0.00191345 1.82547363 -0.0038269 2.76586914 -0.00579834 C4.69564083 -0.00715594 6.62542178 -0.00348922 8.55517578 0.00488281 C11.46278253 0.01548924 14.36975735 0.00502453 17.27734375 -0.0078125 C45.25276525 -0.03179255 45.25276525 -0.03179255 51.375 4.765625 C53.5 7.265625 53.5 7.265625 53.5 9.265625 C54.469375 9.389375 55.43875 9.513125 56.4375 9.640625 C62.28493776 11.30791886 66.14791687 16.44538143 69.5 21.265625 C73.26752149 28.39519481 72.95825305 35.76782566 72.89111328 43.63867188 C72.87498631 45.89253809 72.89103953 48.14462479 72.91015625 50.3984375 C72.90817447 51.84635808 72.90433214 53.29427756 72.8984375 54.7421875 C72.89505371 56.04236816 72.89166992 57.34254883 72.88818359 58.68212891 C72.46908372 62.55102702 71.52886993 64.96574385 69.5 68.265625 C68.695625 68.884375 67.89125 69.503125 67.0625 70.140625 C64.45253334 72.3049876 63.93997154 73.26191006 62.6875 76.265625 C60.77827694 80.46436351 58.60865313 81.6021371 54.44921875 83.33203125 C52.19669152 84.27818388 52.19669152 84.27818388 49.875 86.890625 C43.08173734 93.68388766 30.51300415 92.48407415 21.5 92.828125 C20.43910156 92.87130859 19.37820312 92.91449219 18.28515625 92.95898438 C15.69020849 93.06418496 13.09517916 93.16632619 10.5 93.265625 C10.48541748 94.26940186 10.47083496 95.27317871 10.45581055 96.30737305 C10.39767948 100.0443825 10.32044835 103.78079869 10.23754883 107.51733398 C10.2043689 109.13214463 10.17631542 110.74706931 10.15356445 112.36206055 C10.11988975 114.68848092 10.06757037 117.01386283 10.01171875 119.33984375 C10.00213387 120.41669685 10.00213387 120.41669685 9.99235535 121.51530457 C9.86448225 125.91032025 9.20260037 128.76715429 6.5 132.265625 C1.02406909 135.35461167 -5.41171803 134.90730089 -11.5 134.265625 C-14.74280301 133.01339506 -16.90827077 131.44908347 -18.5 128.265625 C-18.59896805 126.66783872 -18.63505481 125.06597302 -18.64044189 123.46513367 C-18.64615204 122.4514975 -18.65186218 121.43786133 -18.65774536 120.39350891 C-18.65886322 119.27711533 -18.65998108 118.16072174 -18.66113281 117.01049805 C-18.66609772 115.83805542 -18.67106262 114.66561279 -18.67617798 113.4576416 C-18.68829915 110.23644679 -18.69574821 107.01528829 -18.70018864 103.79407477 C-18.70311886 101.78156042 -18.7072236 99.76905178 -18.71169281 97.7565403 C-18.72537017 91.45983013 -18.73503526 85.163133 -18.7388947 78.866409 C-18.74337413 71.59800203 -18.76091547 64.32978324 -18.7898953 57.06143349 C-18.81151681 51.4435232 -18.82159925 45.82566583 -18.82293582 40.20771438 C-18.82398366 36.85235318 -18.82988652 33.49716881 -18.84775543 30.14185143 C-18.86477491 26.39740045 -18.86294536 22.65340931 -18.85644531 18.90893555 C-18.8656601 17.79861465 -18.87487488 16.68829376 -18.8843689 15.54432678 C-18.83253828 6.03195639 -18.83253828 6.03195639 -15.5 2.265625 C-10.52582421 -0.21959009 -5.4374585 -0.02542878 0 0 Z M9.5 30.265625 C9.18733144 33.53763139 9.18733144 33.53763139 9.234375 37.390625 C9.23246155 38.0933252 9.2305481 38.79602539 9.22857666 39.52001953 C9.22721525 41.00618854 9.23090868 42.49236945 9.23925781 43.97851562 C9.24995846 46.25678146 9.23936161 48.53425877 9.2265625 50.8125 C9.2278841 52.25521008 9.23044651 53.69791966 9.234375 55.140625 C9.23663086 56.45804688 9.23888672 57.77546875 9.24121094 59.1328125 C9.16834561 62.3649663 9.16834561 62.3649663 11.5 64.265625 C16.16572662 64.62266504 20.82613989 64.42211585 25.5 64.265625 C26.28375 64.24757812 27.0675 64.22953125 27.875 64.2109375 C29.88311978 64.12653285 29.88311978 64.12653285 32.5 63.265625 C34.23666727 61.06729787 34.23666727 61.06729787 35.5 58.265625 C36.386875 57.42 37.27375 56.574375 38.1875 55.703125 C41.45722271 51.92960816 41.0168074 47.74836081 40.96875 42.97265625 C40.4378185 39.90652683 39.77325758 39.25329745 37.5 37.265625 C36.819375 35.5021875 36.819375 35.5021875 36.125 33.703125 C34.87764829 30.23333851 34.87764829 30.23333851 32.47265625 29.06640625 C28.38407545 27.96501458 24.5273439 27.97525938 20.3125 28.015625 C19.08370117 28.00402344 19.08370117 28.00402344 17.83007812 27.9921875 C13.18421961 27.80093788 13.18421961 27.80093788 9.5 30.265625 Z " fill="#FEFEFE" transform="translate(173.5,27.734375)"/>
<path d="M0 0 C4.53572491 4.03175548 6.42273211 8.85372503 8.80078125 14.375 C10.2438934 17.53386439 12.01350761 20.16215373 14 23 C15.10395802 26.31187407 15.15387678 28.83064272 15.19287109 32.31982422 C15.20893402 33.6248288 15.22499695 34.92983337 15.24154663 36.27438354 C15.2530326 37.7011449 15.26364139 39.12791354 15.2734375 40.5546875 C15.27876118 41.27384464 15.28408485 41.99300179 15.28956985 42.73395157 C15.31626954 46.53925764 15.33565601 50.34453124 15.35009766 54.14990234 C15.36344595 57.29668183 15.39131774 60.44281422 15.43212891 63.58935547 C15.4814517 67.39246974 15.50621747 71.19499645 15.51332474 74.9984169 C15.52003467 76.44571475 15.5352504 77.89299961 15.55921555 79.34011459 C15.59087141 81.36697427 15.58790186 83.39428464 15.58349609 85.42138672 C15.59158295 86.57371796 15.5996698 87.72604919 15.60800171 88.91329956 C14.81457858 92.94134668 13.11229367 94.41848964 10 97 C3.56232379 100.03967053 -4.1926417 99.19104562 -11 98 C-15.17522808 96.4162928 -16.52621023 95.71068465 -19 92 C-19.26501465 89.58055115 -19.26501465 89.58055115 -19.28710938 86.67749023 C-19.30052368 85.58883163 -19.31393799 84.50017303 -19.32775879 83.37852478 C-19.33303589 82.20044754 -19.33831299 81.0223703 -19.34375 79.80859375 C-19.3583728 78.59357681 -19.37299561 77.37855988 -19.38806152 76.12672424 C-19.43464598 72.23034985 -19.46876821 68.33402589 -19.5 64.4375 C-19.54131558 59.33184753 -19.59514242 54.22654337 -19.65625 49.12109375 C-19.6615271 47.95718613 -19.6668042 46.7932785 -19.67224121 45.59410095 C-19.75384874 38.83688089 -20.38156539 32.56714092 -22 26 C-28.11268964 25.74575061 -28.11268964 25.74575061 -34 27 C-35.25209959 28.47683542 -36.50093211 29.95897203 -37.66796875 31.50390625 C-39.70866799 33.79595261 -42.22166992 34.80026655 -45 36 C-46.69600446 37.69600446 -46.13358318 39.85350257 -46.1418457 42.17480469 C-46.15239738 43.83222687 -46.15239738 43.83222687 -46.16316223 45.52313232 C-46.16732651 46.72721741 -46.17149078 47.93130249 -46.17578125 49.171875 C-46.19898212 51.69792498 -46.22309956 54.22396667 -46.24804688 56.75 C-46.28317099 60.75070993 -46.31418574 64.75111237 -46.32592773 68.75195312 C-46.34138526 72.60063902 -46.38158972 76.44842591 -46.42578125 80.296875 C-46.42387283 81.49286316 -46.42196442 82.68885132 -46.41999817 83.92108154 C-46.54215764 92.19957714 -46.54215764 92.19957714 -48.84838867 96.23144531 C-52.5097951 99.24100257 -55.78556889 99.18698722 -60.375 99.25 C-62.05722656 99.28867188 -62.05722656 99.28867188 -63.7734375 99.328125 C-67.41055317 98.95824883 -69.14398945 98.25732793 -72 96 C-75.10870052 91.86544532 -75.37883997 88.74243773 -75.38818359 83.63037109 C-75.39344055 82.90603882 -75.39869751 82.18170654 -75.40411377 81.4354248 C-75.41728302 79.04787418 -75.4085814 76.66099461 -75.3984375 74.2734375 C-75.40046044 72.60299554 -75.40337372 70.93255443 -75.40713501 69.26211548 C-75.41155531 65.76010738 -75.40514177 62.258329 -75.39111328 58.75634766 C-75.374101 54.2946744 -75.38381352 49.83354579 -75.40183067 45.37189293 C-75.41274469 41.91948452 -75.40918616 38.46720209 -75.4014473 35.01478958 C-75.39946211 33.3715572 -75.40184466 31.72831295 -75.40888596 30.08509445 C-75.47972523 8.89042465 -75.47972523 8.89042465 -69.6875 0.75 C-67 -1 -67 -1 -64 -1 C-60.96574302 0.01141899 -58.57682123 1.1052785 -56 3 C-56 3.66 -56 4.32 -56 5 C-48.03695665 5.18564316 -48.03695665 5.18564316 -41.4375 1.5625 C-40.633125 0.716875 -39.82875 -0.12875 -39 -1 C-28.48523147 -4.86974753 -10.03967096 -5.39015121 0 0 Z " fill="#FEFEFE" transform="translate(1245,63)"/>
<path d="M0 0 C1.06154297 -0.02416992 1.06154297 -0.02416992 2.14453125 -0.04882812 C6.64401106 -0.05301758 9.65523374 0.37408171 13.125 3.3125 C15.9043698 8.35063257 15.66473841 13.71271404 15.125 19.3125 C13.41391407 23.63524341 11.22404661 25.25723573 7.125 27.3125 C0.60575465 28.14474409 -6.43854556 28.42657363 -11.875 24.3125 C-14.12093213 20.90460993 -14.17355072 17.89704316 -14.1875 13.875 C-14.20425781 12.76253906 -14.22101563 11.65007813 -14.23828125 10.50390625 C-13.83535875 6.96425379 -13.00473576 5.14050977 -10.875 2.3125 C-7.17289441 -0.1555704 -4.28387746 -0.01929675 0 0 Z " fill="#FEFEFE" transform="translate(264.875,28.6875)"/>
</svg>
