<?xml version="1.0" encoding="UTF-8"?>
<!-- Generator: visioncortex VTracer 0.6.1 -->
<svg version="1.1" xmlns="http://www.w3.org/2000/svg" width="1280" height="189">
<path d="M0 0 C0 0.66 0 1.32 0 2 C0.94875 1.95875 1.8975 1.9175 2.875 1.875 C6 2 6 2 8 4 C9.65438613 4.69658363 11.32254318 5.36096883 13 6 C14.34050052 6.65213539 15.67661368 7.31379969 17 8 C17 8.99 17 9.98 17 11 C18.051875 11.103125 19.10375 11.20625 20.1875 11.3125 C24.56745709 12.10232833 27.40948365 13.34321213 30.5 16.5625 C32.46944375 18.44988359 34.44936371 19.05092603 37 20 C39.00751815 20.98482022 41.00934459 21.98152514 43 23 C43 23.66 43 24.32 43 25 C43.763125 25.103125 44.52625 25.20625 45.3125 25.3125 C48.25501204 26.06523564 49.16632954 26.6424237 51 29 C52.0625 30.9375 52.0625 30.9375 53 33 C53.34399841 33.59759628 53.68799683 34.19519257 54.04241943 34.81089783 C55.17396642 37.3977005 55.25373925 39.2697164 55.25878906 42.08813477 C55.26509338 43.09920792 55.27139771 44.11028107 55.27789307 45.1519928 C55.2738446 46.23749924 55.26979614 47.32300568 55.265625 48.44140625 C55.26753845 49.56062973 55.2694519 50.67985321 55.27142334 51.83299255 C55.27278367 54.19750188 55.26909786 56.56201872 55.26074219 58.92651367 C55.25003075 62.55209048 55.26064806 66.17717289 55.2734375 69.80273438 C55.27211608 72.09895943 55.26955404 74.39518418 55.265625 76.69140625 C55.26967346 77.77893692 55.27372192 78.86646759 55.27789307 79.98695374 C55.26843658 81.49883522 55.26843658 81.49883522 55.25878906 83.04125977 C55.25719788 83.92854263 55.25560669 84.8158255 55.25396729 85.72999573 C55 88 55 88 53 91 C52.835 91.9075 52.67 92.815 52.5 93.75 C50.14016355 98.86297897 45.68414405 101.09962295 41 104 C40.15050781 104.56332031 39.30101562 105.12664062 38.42578125 105.70703125 C36 107 36 107 32 107 C32 107.66 32 108.32 32 109 C28.3321148 110.96189209 25.12751449 112.39301257 21 113 C20.505 114.485 20.505 114.485 20 116 C18.00390625 117.16796875 18.00390625 117.16796875 15.5625 118.1875 C14.75941406 118.53167969 13.95632812 118.87585938 13.12890625 119.23046875 C11 120 11 120 9 120 C9 120.66 9 121.32 9 122 C7.35 122 5.7 122 4 122 C4 122.66 4 123.32 4 124 C0.04 124 -3.92 124 -8 124 C-8 123.34 -8 122.68 -8 122 C-9.6396875 121.814375 -9.6396875 121.814375 -11.3125 121.625 C-15 121 -15 121 -18 119 C-18 118.34 -18 117.68 -18 117 C-19.65 116.67 -21.3 116.34 -23 116 C-23 115.34 -23 114.68 -23 114 C-23.56847656 113.84144531 -24.13695312 113.68289062 -24.72265625 113.51953125 C-29.60574822 112.04400596 -33.22587001 110.31919445 -37.23828125 107.1953125 C-39.18524508 105.87431265 -41.03042493 105.14315895 -43.25 104.375 C-46.76621134 103.08572251 -47.62628243 102.55481864 -50 100 C-50.886875 99.319375 -51.77375 98.63875 -52.6875 97.9375 C-53.450625 97.298125 -54.21375 96.65875 -55 96 C-55 95.34 -55 94.68 -55 94 C-55.66 93.67 -56.32 93.34 -57 93 C-58.50923527 88.61620219 -58.18406497 84.01640146 -58.1875 79.4375 C-58.19974609 78.57447266 -58.21199219 77.71144531 -58.22460938 76.82226562 C-58.22654297 75.99275391 -58.22847656 75.16324219 -58.23046875 74.30859375 C-58.23457764 73.55376709 -58.23868652 72.79894043 -58.24291992 72.02124023 C-58 70 -58 70 -56 67 C-53.125 67.3125 -53.125 67.3125 -50 68 C-49.34 68.99 -48.68 69.98 -48 71 C-47.21625 71.309375 -46.4325 71.61875 -45.625 71.9375 C-43 73 -43 73 -41.125 74.9375 C-38.39383323 77.58833834 -35.50053643 78.56227968 -32 80 C-29.95387045 81.40306026 -28.09705658 82.91967732 -26.1875 84.5 C-23.31129391 86.4722556 -20.20187013 87.6362405 -17 89 C-16.01 89.99 -16.01 89.99 -15 91 C-13.7934375 91.4640625 -13.7934375 91.4640625 -12.5625 91.9375 C-9.97017665 93.01236578 -8.9367665 94.0632335 -7 96 C-4.89667109 96.71447643 -4.89667109 96.71447643 -3 97 C-3 97.66 -3 98.32 -3 99 C-2.34 99 -1.68 99 -1 99 C-1 98.34 -1 97.68 -1 97 C-0.13375 96.7525 0.7325 96.505 1.625 96.25 C5.22423275 94.91695083 7.8742461 93.21407568 11 91 C14.38287926 88.63198452 16.98308168 86.89264852 21 86 C21.33 85.34 21.66 84.68 22 84 C24.3140622 83.26924352 26.64828869 82.59861742 29 82 C29.05504137 77.0000269 29.05736093 72.00373628 29.01220703 67.00366211 C29.00412866 65.30542787 29.01010283 63.60706334 29.03076172 61.90893555 C29.46268911 52.19680315 29.46268911 52.19680315 26.27099609 43.34936523 C24.24952873 41.55087777 22.39602216 40.24236067 20 39 C18.88625 38.401875 17.7725 37.80375 16.625 37.1875 C15.75875 36.795625 14.8925 36.40375 14 36 C13.34 35.34 12.68 34.68 12 34 C10.27223156 33.2502137 8.54260841 32.50382489 6.796875 31.796875 C5 31 5 31 2.4375 29.3125 C-0.54522448 27.70641759 -2.66180292 27.76710253 -6 28 C-6.495 29.485 -6.495 29.485 -7 31 C-8.65249487 31.70105843 -10.32367583 32.35800351 -12 33 C-14.04434917 34.28177448 -16.04465981 35.61277682 -18.03515625 36.9765625 C-20 38 -20 38 -24 38 C-24.495 38.99 -24.495 38.99 -25 40 C-25.99 39.505 -25.99 39.505 -27 39 C-27.17492068 34.95888378 -27.28106344 30.91874546 -27.375 26.875 C-27.42527344 25.73289062 -27.47554687 24.59078125 -27.52734375 23.4140625 C-27.69313425 13.90874039 -27.69313425 13.90874039 -24.28125 10.36328125 C-21.73605769 8.34755503 -19.06962374 6.68826683 -16.125 5.3125 C-15.27035156 4.91289063 -14.41570312 4.51328125 -13.53515625 4.1015625 C-4.09574468 0 -4.09574468 0 0 0 Z " fill="#D2791C" transform="translate(90,51)"/>
<path d="M0 0 C0.804375 0.495 1.60875 0.99 2.4375 1.5 C2.4375 2.16 2.4375 2.82 2.4375 3.5 C3.200625 3.603125 3.96375 3.70625 4.75 3.8125 C7.72873061 4.57450085 8.3743354 5.35087021 10.4375 7.5 C12.98147714 8.63809504 15.55011837 9.53839263 18.1875 10.4375 C18.93 10.788125 19.6725 11.13875 20.4375 11.5 C20.9325 12.985 20.9325 12.985 21.4375 14.5 C22.13875 14.5825 22.84 14.665 23.5625 14.75 C27.12277538 15.67876749 29.50780552 17.30272914 32.4375 19.5 C32.9325 20.49 32.9325 20.49 33.4375 21.5 C34.18 21.603125 34.9225 21.70625 35.6875 21.8125 C40.53888705 23.02534676 42.77053491 26.55717618 45.5625 30.50390625 C48.21906256 35.25913451 47.98890159 39.98851945 47.875 45.3125 C47.88208984 46.26576172 47.88917969 47.21902344 47.89648438 48.20117188 C47.84838561 53.42173812 47.84838561 53.42173812 47.4375 55.5 C46.4475 56.16 45.4575 56.82 44.4375 57.5 C41.60373931 55.77153297 38.7705723 54.04209508 35.9375 52.3125 C34.75027344 51.58836914 34.75027344 51.58836914 33.5390625 50.84960938 C29.05109498 48.10900626 24.57657504 45.34888978 20.12207031 42.55419922 C16.63046642 40.36916362 13.14800946 38.29128043 9.4375 36.5 C8.7775 36.17 8.1175 35.84 7.4375 35.5 C7.4375 34.84 7.4375 34.18 7.4375 33.5 C6.7775 33.5 6.1175 33.5 5.4375 33.5 C5.4375 32.84 5.4375 32.18 5.4375 31.5 C4.7775 31.4175 4.1175 31.335 3.4375 31.25 C0.69888474 30.56534618 -1.06742029 29.7290271 -3.5 28.375 C-6.28646103 26.94256037 -7.46711207 26.5 -10.6875 26.5 C-14.06571752 27.67503218 -16.60632778 29.50779698 -19.5625 31.5 C-20.8825 31.5 -22.2025 31.5 -23.5625 31.5 C-23.8925 32.49 -24.2225 33.48 -24.5625 34.5 C-26.20307473 35.22851683 -27.87537828 35.88694003 -29.5625 36.5 C-31.1530087 37.41109336 -32.71690844 38.37029144 -34.25 39.375 C-35.01699219 39.86742187 -35.78398438 40.35984375 -36.57421875 40.8671875 C-38.84746549 42.73401881 -39.52908687 43.75351352 -40.5625 46.5 C-40.83856779 49.99012357 -40.83856779 49.99012357 -40.7578125 53.890625 C-40.75356766 54.94754547 -40.75356766 54.94754547 -40.74923706 56.02581787 C-40.73807801 58.2673876 -40.71298193 60.50855186 -40.6875 62.75 C-40.67746464 64.27343171 -40.66833976 65.79686971 -40.66015625 67.3203125 C-40.63815291 71.04700586 -40.60365272 74.77346333 -40.5625 78.5 C-39.923125 78.78875 -39.28375 79.0775 -38.625 79.375 C-36.5625 80.5 -36.5625 80.5 -35.5625 82.5 C-33.58361039 83.22693904 -31.58295442 83.89816251 -29.5625 84.5 C-29.5625 85.16 -29.5625 85.82 -29.5625 86.5 C-28.799375 86.70625 -28.03625 86.9125 -27.25 87.125 C-22.9647714 88.72288185 -19.25725851 90.90745825 -15.34375 93.2578125 C-12.14768867 94.68526686 -10.02750092 94.8402698 -6.5625 94.5 C-4.88220006 93.52308143 -3.21321396 92.52611949 -1.5625 91.5 C-0.0775 91.995 -0.0775 91.995 1.4375 92.5 C1.1075 91.51 0.7775 90.52 0.4375 89.5 C1.39462891 89.33564453 1.39462891 89.33564453 2.37109375 89.16796875 C3.19738281 89.00941406 4.02367188 88.85085937 4.875 88.6875 C5.69871094 88.53667969 6.52242188 88.38585937 7.37109375 88.23046875 C8.39396484 87.86888672 8.39396484 87.86888672 9.4375 87.5 C9.9325 86.015 9.9325 86.015 10.4375 84.5 C12.4175 84.5 14.3975 84.5 16.4375 84.5 C16.5246142 88.58319884 16.57793048 92.66615864 16.625 96.75 C16.65013672 97.90886719 16.67527344 99.06773438 16.70117188 100.26171875 C16.71083984 101.37675781 16.72050781 102.49179688 16.73046875 103.640625 C16.7461792 104.66704102 16.76188965 105.69345703 16.77807617 106.75097656 C16.38449197 109.92786411 15.76084618 111.30800329 13.4375 113.5 C12.1175 113.5 10.7975 113.5 9.4375 113.5 C9.4375 114.16 9.4375 114.82 9.4375 115.5 C3.90107616 118.39403974 3.90107616 118.39403974 1.25 119 C-0.67768078 119.35918804 -0.67768078 119.35918804 -1.9375 121 C-4.41090082 123.28313922 -6.22194321 123.37394125 -9.5625 123.5 C-12.36459766 122.70733454 -14.87647466 121.65776954 -17.5625 120.5 C-17.5625 119.84 -17.5625 119.18 -17.5625 118.5 C-18.614375 118.4175 -19.66625 118.335 -20.75 118.25 C-24.92407748 117.42887 -26.41407984 116.23415435 -29.5625 113.5 C-31.22322849 112.81867549 -32.890267 112.15257873 -34.5625 111.5 C-37.875 109.5 -37.875 109.5 -40.5625 107.5 C-40.5625 106.84 -40.5625 106.18 -40.5625 105.5 C-41.27664062 105.39171875 -41.99078125 105.2834375 -42.7265625 105.171875 C-47.80604853 103.9684706 -52.09436203 101.12718842 -56.5625 98.5 C-57.65111328 97.87544922 -57.65111328 97.87544922 -58.76171875 97.23828125 C-62.50273893 94.87759556 -64.12834434 92.93677833 -65.20275879 88.66842651 C-65.94533477 84.19237151 -65.84587084 79.68580982 -65.828125 75.16015625 C-65.83003845 74.07923203 -65.8319519 72.9983078 -65.83392334 71.8846283 C-65.83528005 69.60610724 -65.83161964 67.32757832 -65.82324219 65.04907227 C-65.81254609 61.57745846 -65.82314986 58.10636333 -65.8359375 54.63476562 C-65.83461561 52.41406137 -65.83205261 50.19335743 -65.828125 47.97265625 C-65.83217346 46.94221695 -65.83622192 45.91177765 -65.84039307 44.85011292 C-65.75412545 31.46946854 -65.75412545 31.46946854 -61.93359375 26.29296875 C-57.10391717 22.28287365 -52.67433778 19.98551613 -46.5625 18.5 C-46.5625 17.84 -46.5625 17.18 -46.5625 16.5 C-45.82 16.231875 -45.0775 15.96375 -44.3125 15.6875 C-41.65674413 14.54069633 -39.85916764 13.22678556 -37.5625 11.5 C-36.16032396 10.68294253 -34.7428672 9.89163566 -33.3125 9.125 C-30.28886919 7.48204512 -27.3783911 5.7598636 -24.5 3.875 C-16.73409629 -0.99020055 -8.83096179 -3.7182997 0 0 Z M-42.5625 46.5 C-42.5625 56.4 -42.5625 66.3 -42.5625 76.5 C-42.2325 76.5 -41.9025 76.5 -41.5625 76.5 C-41.5625 66.6 -41.5625 56.7 -41.5625 46.5 C-41.8925 46.5 -42.2225 46.5 -42.5625 46.5 Z " fill="#D27A1E" transform="translate(97.5625,16.5)"/>
<path d="M0 0 C0.88042969 -0.01224609 1.76085937 -0.02449219 2.66796875 -0.03710938 C3.50972656 -0.03904297 4.35148438 -0.04097656 5.21875 -0.04296875 C5.99154297 -0.04707764 6.76433594 -0.05118652 7.56054688 -0.05541992 C9.5 0.1875 9.5 0.1875 11.5 2.1875 C11.74543141 4.83537789 11.87349386 7.38653823 11.9140625 10.0390625 C11.93342865 10.81309418 11.9527948 11.58712585 11.9727478 12.38461304 C12.0325983 14.86046275 12.07895011 17.33635883 12.125 19.8125 C12.16317482 21.48960377 12.20222625 23.16668784 12.2421875 24.84375 C12.33830409 28.95817353 12.42231439 33.07268886 12.5 37.1875 C13.985 37.6825 13.985 37.6825 15.5 38.1875 C15.83 37.5275 16.16 36.8675 16.5 36.1875 C41.98730268 35.07219458 41.98730268 35.07219458 51.5 41.1875 C52.84660594 42.84346135 54.18007041 44.51019817 55.5 46.1875 C56.34433594 46.6825 57.18867187 47.1775 58.05859375 47.6875 C61.01714336 49.50523288 61.9659246 51.12776777 63.5625 54.1875 C64.02785156 55.05375 64.49320313 55.92 64.97265625 56.8125 C69.14589556 66.03418482 71.1150035 73.506299 70.875 83.6875 C70.87371094 84.75742188 70.87242187 85.82734375 70.87109375 86.9296875 C70.782291 94.7640635 70.782291 94.7640635 68.5 98.1875 C67.83841957 100.23334079 67.83841957 100.23334079 67.375 102.375 C67.08625 103.633125 66.7975 104.89125 66.5 106.1875 C65.84 106.1875 65.18 106.1875 64.5 106.1875 C64.83 107.1775 65.16 108.1675 65.5 109.1875 C64.21802734 110.45207031 64.21802734 110.45207031 62.91015625 111.7421875 C61.79413953 112.84882593 60.67826128 113.95560402 59.5625 115.0625 C58.71655273 115.89587891 58.71655273 115.89587891 57.85351562 116.74609375 C54.80139972 119.6796571 54.80139972 119.6796571 52.5 123.1875 C50.85 123.1875 49.2 123.1875 47.5 123.1875 C47.005 124.6725 47.005 124.6725 46.5 126.1875 C41.22880985 128.930139 35.68802117 128.71447567 29.875 128.9375 C28.82570313 128.99292969 27.77640625 129.04835937 26.6953125 129.10546875 C25.18710937 129.16927734 25.18710937 129.16927734 23.6484375 129.234375 C22.27437744 129.29383301 22.27437744 129.29383301 20.87255859 129.35449219 C18.5 129.1875 18.5 129.1875 15.5 127.1875 C13.50428677 126.50810826 11.50405227 125.84188441 9.5 125.1875 C8.15278717 124.54934656 6.81252882 123.89424629 5.5 123.1875 C5.14164063 123.67734375 4.78328125 124.1671875 4.4140625 124.671875 C1.60989564 126.89231733 -0.60347095 126.51558268 -4.125 126.4375 C-5.87683594 126.41429687 -5.87683594 126.41429687 -7.6640625 126.390625 C-10.5 126.1875 -10.5 126.1875 -11.5 125.1875 C-11.59600136 123.580608 -11.62187889 121.96948231 -11.62025452 120.35972595 C-11.62162918 119.31499619 -11.62300385 118.27026642 -11.62442017 117.19387817 C-11.62082489 116.03798187 -11.61722961 114.88208557 -11.61352539 113.69116211 C-11.61367142 112.48157333 -11.61381744 111.27198456 -11.6139679 110.02574158 C-11.61338893 106.69943649 -11.60835973 103.37319281 -11.60139394 100.0468986 C-11.59515978 96.57420071 -11.59455655 93.10150207 -11.59336853 89.62879944 C-11.5902554 83.04853807 -11.58204225 76.46829324 -11.57201904 69.88803917 C-11.56085734 62.39843888 -11.55534731 54.90883782 -11.55032361 47.4192313 C-11.53985962 32.00864461 -11.52226053 16.59807443 -11.5 1.1875 C-7.9639604 -0.5805198 -3.89428745 0.00285087 0 0 Z M-10.5 2.1875 C-9.5 4.1875 -9.5 4.1875 -9.5 4.1875 Z M21.5 55.1875 C21.5 55.8475 21.5 56.5075 21.5 57.1875 C19.8603125 57.0946875 19.8603125 57.0946875 18.1875 57 C14.64771415 56.84384175 14.64771415 56.84384175 12.79676819 58.42372131 C11.17471118 60.62993644 11.10409382 61.87252452 11.06420898 64.59545898 C11.04506943 65.48325546 11.02592987 66.37105194 11.00621033 67.28575134 C11.00287186 68.24203934 10.99953339 69.19832733 10.99609375 70.18359375 C10.98610855 71.16868423 10.97612335 72.15377472 10.96583557 73.16871643 C10.95064527 75.2524902 10.94361006 77.33633694 10.9440918 79.42016602 C10.93753063 82.61010772 10.88305931 85.7969375 10.82617188 88.98632812 C10.81736975 91.01040601 10.81141557 93.03449869 10.80859375 95.05859375 C10.7870372 96.01285751 10.76548065 96.96712128 10.74327087 97.95030212 C10.76971588 100.50300289 10.84962273 102.71848522 11.5 105.1875 C17.85615135 110.85077793 24.44284701 110.32830462 32.5 110.1875 C32.5 109.5275 32.5 108.8675 32.5 108.1875 C33.180625 108.166875 33.86125 108.14625 34.5625 108.125 C38.99187144 106.71137082 41.59203373 103.73416688 44.5 100.1875 C45.91190564 97.58312767 45.91190564 97.58312767 46.5 95.1875 C46.83 94.1975 47.16 93.2075 47.5 92.1875 C47.53920815 90.18788436 47.54443347 88.18700636 47.5 86.1875 C47.83 86.1875 48.16 86.1875 48.5 86.1875 C48.58226668 83.14363276 48.47608217 81.11574652 47.5 78.1875 C47.603125 77.341875 47.70625 76.49625 47.8125 75.625 C47.23076309 69.22589403 43.04517206 64.3881996 39.4375 59.25 C35.11947041 56.21819199 26.55752799 52.65873601 21.5 55.1875 Z M61.5 108.1875 C62.5 110.1875 62.5 110.1875 62.5 110.1875 Z " fill="#000100" transform="translate(542.5,31.8125)"/>
<path d="M0 0 C6.6 0 13.2 0 20 0 C21.37332694 2.74665389 21.11964892 4.93624068 21.11352539 8.01025391 C21.11344986 9.27141022 21.11337433 10.53256653 21.11329651 11.8319397 C21.10818949 13.21348103 21.10297349 14.59502196 21.09765625 15.9765625 C21.09579144 17.3861791 21.09436783 18.79579634 21.09336853 20.20541382 C21.08954833 23.91753932 21.07972228 27.62962578 21.06866455 31.34173584 C21.05843975 35.12886019 21.05386862 38.91599083 21.04882812 42.703125 C21.03809958 50.13543448 21.02102911 57.56771177 21 65 C21.66 65.33 22.32 65.66 23 66 C22.67 66.99 22.34 67.98 22 69 C26.89501342 64.94780064 31.43207117 60.6198597 35.85546875 56.06640625 C36.36917023 55.54009613 36.8828717 55.01378601 37.41213989 54.4715271 C39.55167904 52.27786954 41.68932325 50.08288797 43.80834961 47.86938477 C45.37520164 46.23607029 46.95740403 44.61903318 48.54296875 43.00390625 C49.01703659 42.50089493 49.49110443 41.99788361 49.97953796 41.47962952 C52.28112487 39.15977706 53.53804003 38.05085252 56.84106445 37.68725586 C57.55351318 37.79046143 58.26596191 37.89366699 59 38 C59.33 38.99 59.66 39.98 60 41 C60.66 41 61.32 41 62 41 C69 48.875 69 48.875 69 54 C67.64991511 54.95977599 66.28537934 55.90365991 64.86669922 56.75878906 C61.02761349 59.31148483 57.84539395 62.65994662 54.5625 65.875 C53.81806641 66.56980469 53.07363281 67.26460938 52.30664062 67.98046875 C48.0261458 71.95738483 48.0261458 71.95738483 46.90234375 77.4453125 C47.73262586 80.13516204 47.73262586 80.13516204 50 81 C49.67 81.66 49.34 82.32 49 83 C49.99 83.33 50.98 83.66 52 84 C52.70811208 85.64948462 53.37025124 87.31903637 54 89 C55.4032674 90.96954506 55.4032674 90.96954506 57.0625 92.875 C62.09061712 99.13642886 65.96147974 106.08129474 70 113 C71.65940897 115.80547559 73.34161229 118.49777791 75.1875 121.1875 C77 124 77 124 77 126 C73.25006521 126.05811773 69.50024648 126.09363593 65.75 126.125 C64.68652344 126.14175781 63.62304688 126.15851563 62.52734375 126.17578125 C61.50253906 126.18222656 60.47773437 126.18867188 59.421875 126.1953125 C58.47924805 126.20578613 57.53662109 126.21625977 56.56542969 126.22705078 C53.84117776 125.9859436 52.26950169 125.50838063 50 124 C48.4375 121.1015625 48.4375 121.1015625 47 117.625 C45.1466319 113.16281484 43.49397577 110.308202 40 107 C38.98034573 104.67518826 37.97940398 102.34205301 37 100 C35.35507315 98.02608778 34.28731079 97.1436554 32 96 C32 94.02 32 92.04 32 90 C27.55812519 91.2114204 24.85199785 92.33748227 22 96 C21.35856672 99.28116076 21.35856672 99.28116076 21.390625 102.953125 C21.37408875 103.61334656 21.35755249 104.27356812 21.34051514 104.95379639 C21.29211549 107.05262626 21.27068481 109.15073222 21.25 111.25 C21.22183317 112.6771196 21.19190472 114.10420559 21.16015625 115.53125 C21.08636237 119.02067609 21.03673721 122.50996472 21 126 C17.54168414 126.02894547 14.08339928 126.04678 10.625 126.0625 C9.64015625 126.07087891 8.6553125 126.07925781 7.640625 126.08789062 C6.22910156 126.09272461 6.22910156 126.09272461 4.7890625 126.09765625 C3.91975098 126.10289307 3.05043945 126.10812988 2.15478516 126.11352539 C0 126 0 126 -2 125 C-2 84.74 -2 44.48 -2 3 C-1.01 2.67 -0.02 2.34 1 2 C0.67 1.34 0.34 0.68 0 0 Z M66 51 C65.67 51.66 65.34 52.32 65 53 C65.66 53 66.32 53 67 53 C66.67 52.34 66.34 51.68 66 51 Z " fill="#010200" transform="translate(852,32)"/>
<path d="M0 0 C7.38315162 -0.07637444 14.76620046 -0.12873584 22.1496582 -0.16479492 C24.65881152 -0.17983529 27.16793874 -0.20027272 29.67700195 -0.22631836 C33.29384825 -0.26291014 36.91034542 -0.27977448 40.52734375 -0.29296875 C42.19663185 -0.31619453 42.19663185 -0.31619453 43.89964294 -0.33988953 C52.11934237 -0.34164593 58.75785825 1.08682568 66 5 C66.495 5.515625 66.99 6.03125 67.5 6.5625 C68.89086835 8.1643612 68.89086835 8.1643612 70.90234375 8.32421875 C73.79649606 9.25659929 74.4777226 10.69745187 76.0625 13.25 C76.54847656 14.01828125 77.03445312 14.7865625 77.53515625 15.578125 C78.01855469 16.37734375 78.50195312 17.1765625 79 18 C79.79277344 19.11955078 79.79277344 19.11955078 80.6015625 20.26171875 C82.49602119 23.97125937 82.87887388 27.45539083 83.3125 31.5625 C83.41111328 32.31724609 83.50972656 33.07199219 83.61132812 33.84960938 C84.07500727 37.929267 84.12968569 40.47966134 82 44 C81.79697133 46.06643299 81.79697133 46.06643299 81.9375 48.125 C82 52 82 52 81 54 C80.34 54 79.68 54 79 54 C78.94457031 54.70769531 78.88914062 55.41539063 78.83203125 56.14453125 C77.72807617 59.93322216 75.46939536 62.04236016 72.6875 64.6875 C72.20087891 65.17283203 71.71425781 65.65816406 71.21289062 66.15820312 C68.65292903 68.65614681 66.31456632 70.63219861 63 72 C61.8553125 72.556875 61.8553125 72.556875 60.6875 73.125 C57.36839066 74.20564025 54.46804489 74.13600176 51 74 C50.505 75.485 50.505 75.485 50 77 C49.15703369 76.99476318 48.31406738 76.98952637 47.44555664 76.98413086 C44.32772064 76.96712174 41.20990823 76.95456594 38.09204102 76.94506836 C36.74079614 76.94002943 35.38955674 76.93319823 34.03833008 76.92456055 C32.09979566 76.91247581 30.161222 76.90730172 28.22265625 76.90234375 C27.05484619 76.89710693 25.88703613 76.89187012 24.68383789 76.88647461 C22.08108449 76.69338505 22.08108449 76.69338505 21 78 C20.83958807 81.10085221 20.74036598 84.18187579 20.68359375 87.28515625 C20.66281265 88.21597519 20.64203156 89.14679413 20.62062073 90.1058197 C20.55502069 93.09130182 20.49619198 96.07687484 20.4375 99.0625 C20.3943247 101.08138976 20.35071075 103.1002702 20.30664062 105.11914062 C20.19932871 110.07933297 20.09809112 115.03961709 20 120 C16.85418577 120.02888514 13.70840531 120.04675923 10.5625 120.0625 C9.66466797 120.07087891 8.76683594 120.07925781 7.84179688 120.08789062 C6.56079102 120.09272461 6.56079102 120.09272461 5.25390625 120.09765625 C4.46314697 120.10289307 3.6723877 120.10812988 2.85766602 120.11352539 C1 120 1 120 0 119 C-0.09584998 117.45646869 -0.1218807 115.90854892 -0.12025452 114.36204529 C-0.12162918 113.35938629 -0.12300385 112.35672729 -0.12442017 111.32368469 C-0.12082489 110.21454208 -0.11722961 109.10539948 -0.11352539 107.96264648 C-0.11367142 106.80182556 -0.11381744 105.64100464 -0.1139679 104.44500732 C-0.11326817 100.58701748 -0.10547298 96.72907522 -0.09765625 92.87109375 C-0.09579228 90.20451272 -0.09431912 87.53793436 -0.09336853 84.87135315 C-0.09025548 78.5567112 -0.08204244 72.24208649 -0.07201904 65.92745215 C-0.0608571 58.74014367 -0.05534725 51.55283439 -0.05032361 44.3655194 C-0.0398598 29.57700411 -0.02226086 14.78850235 0 0 Z M21 15 C19.86507721 17.26984558 19.86779496 18.530551 19.85473633 21.05078125 C19.84835648 21.88504639 19.84197662 22.71931152 19.83540344 23.57885742 C19.83429062 24.48095947 19.8331778 25.38306152 19.83203125 26.3125 C19.82870285 27.23716064 19.82537445 28.16182129 19.82194519 29.11450195 C19.81687779 31.07144675 19.81453681 33.02840021 19.81469727 34.98535156 C19.81250891 37.98777394 19.79434614 40.98983009 19.77539062 43.9921875 C19.77245711 45.89062374 19.77047203 47.78906173 19.76953125 49.6875 C19.76234573 50.58960205 19.75516022 51.4917041 19.74775696 52.42114258 C19.7523719 53.67254028 19.7523719 53.67254028 19.75708008 54.94921875 C19.75565506 55.68487061 19.75423004 56.42052246 19.75276184 57.1784668 C19.84676461 59.25048317 19.84676461 59.25048317 22 61 C24.08164831 61.30983863 24.08164831 61.30983863 26.46484375 61.265625 C27.34720703 61.26820312 28.22957031 61.27078125 29.13867188 61.2734375 C30.06228516 61.26570313 30.98589844 61.25796875 31.9375 61.25 C32.85724609 61.25773437 33.77699219 61.26546875 34.72460938 61.2734375 C35.60826172 61.27085938 36.49191406 61.26828125 37.40234375 61.265625 C38.61651978 61.26224121 38.61651978 61.26224121 39.85522461 61.25878906 C42.29701389 61.1277371 42.29701389 61.1277371 45 59 C45.598125 58.87625 46.19625 58.7525 46.8125 58.625 C53.39864154 56.74324528 56.58535766 52.5068741 59.875 46.75 C61.62591498 42.46998561 61.52131503 38.53737158 61 34 C60.34 34 59.68 34 59 34 C59.27070313 33.30390625 59.54140625 32.6078125 59.8203125 31.890625 C60.31363819 28.77382826 60.31363819 28.77382826 57.8671875 25.921875 C56.885502 24.84998056 55.88732741 23.793004 54.875 22.75 C54.38773438 22.20859375 53.90046875 21.6671875 53.3984375 21.109375 C50.41808688 17.93878924 48.35141291 16.39147659 44 16 C43.34 15.67 42.68 15.34 42 15 C40.40552536 14.91599471 38.80759455 14.89272533 37.2109375 14.90234375 C35.79941406 14.90717773 35.79941406 14.90717773 34.359375 14.91210938 C33.37453125 14.92048828 32.3896875 14.92886719 31.375 14.9375 C29.88613281 14.94426758 29.88613281 14.94426758 28.3671875 14.95117188 C25.9113984 14.96297855 23.45572896 14.979446 21 15 Z M63 67 C63 67.66 63 68.32 63 69 C63.66 68.67 64.32 68.34 65 68 C64.34 67.67 63.68 67.34 63 67 Z " fill="#000100" transform="translate(176,38)"/>
<path d="M0 0 C1.25554688 -0.03738281 2.51109375 -0.07476562 3.8046875 -0.11328125 C10.78108446 -0.17909632 15.7811327 0.19511897 21.65039062 4.13574219 C23.550724 5.40898561 25.3662634 6.1920907 27.5 7 C28.49 7.45375 29.48 7.9075 30.5 8.375 C30.995 9.86 30.995 9.86 31.5 11.375 C32.49 11.375 33.48 11.375 34.5 11.375 C35.33848804 12.83037568 36.17063934 14.28940373 37 15.75 C37.69609375 16.96816406 37.69609375 16.96816406 38.40625 18.2109375 C39.5 20.375 39.5 20.375 39.5 22.375 C40.16 22.375 40.82 22.375 41.5 22.375 C43.49785435 26.4955746 43.67835515 29.82694365 43.5 34.375 C44.16 34.375 44.82 34.375 45.5 34.375 C46.29091257 37.17107623 46.62818608 39.65975241 46.6328125 42.5625 C46.63410156 43.34367187 46.63539063 44.12484375 46.63671875 44.9296875 C46.63285156 45.73664063 46.62898437 46.54359375 46.625 47.375 C46.62886719 48.18195313 46.63273438 48.98890625 46.63671875 49.8203125 C46.63542969 50.60148437 46.63414062 51.38265625 46.6328125 52.1875 C46.63168457 52.89519531 46.63055664 53.60289063 46.62939453 54.33203125 C46.49511502 56.45212733 46.07716498 58.33457563 45.5 60.375 C44.84 60.375 44.18 60.375 43.5 60.375 C43.561875 61.24125 43.62375 62.1075 43.6875 63 C43.47544498 66.81699033 42.37955693 69.08577536 40.5 72.375 C39.84 72.375 39.18 72.375 38.5 72.375 C38.4071875 73.4578125 38.4071875 73.4578125 38.3125 74.5625 C37.22288901 78.33423034 35.42309668 79.76963122 32.5 82.375 C31.99339844 82.87257813 31.48679687 83.37015625 30.96484375 83.8828125 C22.24860162 92.08391029 12.57639135 93.01337378 1 93.1875 C-0.27359375 93.22552734 -1.5471875 93.26355469 -2.859375 93.30273438 C-12.17857143 93.53571429 -12.17857143 93.53571429 -14.5 92.375 C-14.5 91.715 -14.5 91.055 -14.5 90.375 C-15.469375 90.33375 -16.43875 90.2925 -17.4375 90.25 C-22.50988673 89.55358625 -26.66434262 86.65400869 -30.5 83.375 C-30.5 82.715 -30.5 82.055 -30.5 81.375 C-31.49 81.045 -32.48 80.715 -33.5 80.375 C-34.6875 77.8125 -34.6875 77.8125 -35.5 75.375 C-36.16 75.375 -36.82 75.375 -37.5 75.375 C-40.24375671 72.42018508 -40.5 71.60028092 -40.5 67.375 C-41.16 66.715 -41.82 66.055 -42.5 65.375 C-44.42613087 56.64545952 -44.68918222 47.89492658 -44.25 39 C-44.21156982 38.1737915 -44.17313965 37.34758301 -44.13354492 36.49633789 C-43.75856824 30.63356824 -43.75856824 30.63356824 -41.5 28.375 C-41.14984951 26.71178518 -40.81802943 25.04465451 -40.5 23.375 C-39.625 21.125 -39.625 21.125 -38.5 19.375 C-37.51 19.045 -36.52 18.715 -35.5 18.375 C-35.37625 17.7975 -35.2525 17.22 -35.125 16.625 C-34.18607493 13.24486975 -32.0877354 11.66183594 -29.5 9.375 C-28.18163705 8.67919733 -26.85208914 8.00275567 -25.5 7.375 C-25.17 6.715 -24.84 6.055 -24.5 5.375 C-22.85 5.375 -21.2 5.375 -19.5 5.375 C-19.5 4.715 -19.5 4.055 -19.5 3.375 C-18.695625 3.065625 -17.89125 2.75625 -17.0625 2.4375 C-11.28738699 0.04294095 -6.55375616 0.07223579 0 0 Z M-8.75 20.93359375 C-14.81142115 25.71835665 -14.81142115 25.71835665 -18.4375 32.3125 C-18.458125 32.993125 -18.47875 33.67375 -18.5 34.375 C-19.16 34.375 -19.82 34.375 -20.5 34.375 C-23.43622741 44.28476752 -23.51730206 53.69070529 -19.5 63.375 C-15.93235865 68.95606271 -9.62393134 72.26045868 -3.5 74.375 C-0.35729228 74.7417266 2.32393887 74.63113396 5.5 74.375 C5.5 73.715 5.5 73.055 5.5 72.375 C7.15 72.375 8.8 72.375 10.5 72.375 C10.995 71.385 10.995 71.385 11.5 70.375 C12.0775 70.2925 12.655 70.21 13.25 70.125 C16.72580577 68.96639808 18.72771284 66.47116432 20.5 63.375 C20.91990073 60.12223247 20.91990073 60.12223247 20.5 57.375 C21.49 57.045 22.48 56.715 23.5 56.375 C24.40666507 40.66702871 24.40666507 40.66702871 18.5 26.375 C16.01341012 24.66820867 16.01341012 24.66820867 13.5 23.375 C12.84 22.715 12.18 22.055 11.5 21.375 C1.15963191 17.91558726 1.15963191 17.91558726 -8.75 20.93359375 Z M35.5 74.375 C36.5 76.375 36.5 76.375 36.5 76.375 Z M25.5 83.375 C25.5 84.035 25.5 84.695 25.5 85.375 C26.16 85.045 26.82 84.715 27.5 84.375 C26.84 84.045 26.18 83.715 25.5 83.375 Z " fill="#010201" transform="translate(709.5,67.625)"/>
<path d="M0 0 C0.96486328 -0.020625 1.92972656 -0.04125 2.92382812 -0.0625 C9.4953887 -0.09799796 16.99417351 0.06487197 22.08496094 4.77392578 C22.53129883 5.26103027 22.97763672 5.74813477 23.4375 6.25 C24.53813316 7.12944054 25.64247426 8.00425563 26.75 8.875 C34.73860911 15.67885776 38.21338857 23.85060259 39.15234375 34.09375 C39.38602137 36.43414786 39.38602137 36.43414786 40.5 39.25 C41.76232973 43.28945514 41.60538229 47.05294263 41.4375 51.25 C38.86784588 52.53482706 37.06973169 52.35634626 34.19335938 52.33178711 C32.55155701 52.32199074 32.55155701 52.32199074 30.87658691 52.31199646 C29.69012573 52.30056107 28.50366455 52.28912567 27.28125 52.27734375 C24.79036596 52.26469993 22.29948047 52.25233879 19.80859375 52.24023438 C15.8647008 52.21536653 11.92088184 52.18735965 7.97705078 52.15405273 C4.18261218 52.12396822 0.38826935 52.10611255 -3.40625 52.08984375 C-4.59271118 52.07638412 -5.77917236 52.0629245 -7.00158691 52.04905701 C-8.64338928 52.04398888 -8.64338928 52.04398888 -10.31835938 52.03881836 C-11.28495483 52.03136093 -12.25155029 52.0239035 -13.24743652 52.01622009 C-15.75729879 52.02314212 -15.75729879 52.02314212 -17.5625 54.25 C-17.63270635 57.83052387 -17.31234585 60.29011879 -15.0703125 63.16015625 C-13.29966528 64.94980184 -11.47679835 66.61584287 -9.5625 68.25 C-8.9025 68.848125 -8.2425 69.44625 -7.5625 70.0625 C-1.07960157 73.91172094 6.09936721 73.7476967 13.4375 73.25 C13.7675 72.92 14.0975 72.59 14.4375 72.25 C16.4962768 71.97046781 18.55478432 71.80265649 20.625 71.62890625 C21.223125 71.50386719 21.82125 71.37882812 22.4375 71.25 C22.7675 70.59 23.0975 69.93 23.4375 69.25 C25.0875 69.25 26.7375 69.25 28.4375 69.25 C28.4375 68.59 28.4375 67.93 28.4375 67.25 C30.75 67 30.75 67 33.4375 67.25 C35.3125 69 35.3125 69 36.4375 71.25 C36.125 73.5 36.125 73.5 35.4375 75.25 C36.0975 75.25 36.7575 75.25 37.4375 75.25 C39.04475635 78.46451269 38.49498185 81.68612536 38.4375 85.25 C36.7875 85.25 35.1375 85.25 33.4375 85.25 C32.9425 86.735 32.9425 86.735 32.4375 88.25 C31.1175 88.25 29.7975 88.25 28.4375 88.25 C28.4375 88.91 28.4375 89.57 28.4375 90.25 C22.08876995 92.67437934 16.03345107 92.62217326 9.34448242 92.62060547 C7.27242173 92.62495296 5.2025406 92.66125149 3.13085938 92.69921875 C-7.75978005 92.79097821 -16.76478933 90.95301765 -25.5625 84.25 C-26.490625 83.610625 -27.41875 82.97125 -28.375 82.3125 C-30.5625 80.25 -30.5625 80.25 -31.0625 77.625 C-31.2275 76.84125 -31.3925 76.0575 -31.5625 75.25 C-32.7690625 74.7859375 -32.7690625 74.7859375 -34 74.3125 C-36.5625 73.25 -36.5625 73.25 -37.75 70.5625 C-38.018125 69.469375 -38.28625 68.37625 -38.5625 67.25 C-38.93375 66.1775 -39.305 65.105 -39.6875 64 C-40.77388126 59.3440803 -40.73472143 55.00522501 -40.5625 50.25 C-41.2225 50.25 -41.8825 50.25 -42.5625 50.25 C-42.40402588 49.67475586 -42.24555176 49.09951172 -42.08227539 48.50683594 C-41.58336674 46.34060223 -41.36361676 44.35677317 -41.24609375 42.140625 C-41.20419922 41.38652344 -41.16230469 40.63242188 -41.11914062 39.85546875 C-41.07982422 39.07816406 -41.04050781 38.30085938 -41 37.5 C-40.95681641 36.70722656 -40.91363281 35.91445312 -40.86914062 35.09765625 C-40.76347009 33.14862185 -40.66252034 31.19933252 -40.5625 29.25 C-39.9025 29.25 -39.2425 29.25 -38.5625 29.25 C-38.5625 27.27 -38.5625 25.29 -38.5625 23.25 C-37.9025 22.92 -37.2425 22.59 -36.5625 22.25 C-35.85855388 20.93596724 -35.19904342 19.5979743 -34.5625 18.25 C-31.92422113 12.97344226 -27.72601881 8.78885454 -22.40234375 6.19921875 C-20.38561214 5.38774609 -20.38561214 5.38774609 -19.5625 3.25 C-17.2525 3.25 -14.9425 3.25 -12.5625 3.25 C-12.5625 2.59 -12.5625 1.93 -12.5625 1.25 C-8.77022728 -0.64613636 -4.17208787 0.02168727 0 0 Z M-10.5625 22.25 C-11.80171654 24.30427457 -11.80171654 24.30427457 -12.5625 26.25 C-13.2225 26.25 -13.8825 26.25 -14.5625 26.25 C-14.68625 26.889375 -14.81 27.52875 -14.9375 28.1875 C-15.14375 28.868125 -15.35 29.54875 -15.5625 30.25 C-16.5525 30.745 -16.5525 30.745 -17.5625 31.25 C-17.60504356 33.24954746 -17.60330783 35.25041636 -17.5625 37.25 C-16.40581499 38.63421065 -16.40581499 38.63421065 -13.23608398 38.36352539 C-11.76024444 38.36336629 -10.28439931 38.35767314 -8.80859375 38.34765625 C-8.03314713 38.3462413 -7.2577005 38.34482635 -6.45875549 38.34336853 C-3.97246506 38.33775345 -1.4862634 38.32519846 1 38.3125 C2.68163933 38.30748694 4.36328006 38.3029237 6.04492188 38.29882812 C10.17581566 38.28777913 14.30664276 38.27050445 18.4375 38.25 C18.49588944 34.87071132 18.38437486 32.51210908 16.9375 29.4375 C16.4425 28.385625 15.9475 27.33375 15.4375 26.25 C14.7775 26.25 14.1175 26.25 13.4375 26.25 C12.839375 25.46625 12.24125 24.6825 11.625 23.875 C8.49070041 20.11384049 5.7521861 19.59727557 1.125 18.375 C-3.52612613 18.21733471 -6.86117463 19.41657161 -10.5625 22.25 Z M-41.5625 47.25 C-40.5625 49.25 -40.5625 49.25 -40.5625 49.25 Z " fill="#030403" transform="translate(433.5625,67.75)"/>
<path d="M0 0 C3.41659491 -0.05816623 6.83306205 -0.09365195 10.25 -0.125 C11.21808594 -0.14175781 12.18617187 -0.15851563 13.18359375 -0.17578125 C14.11816406 -0.18222656 15.05273438 -0.18867187 16.015625 -0.1953125 C16.87446289 -0.20578613 17.73330078 -0.21625977 18.61816406 -0.22705078 C21.19807602 0.01888179 22.73035996 0.80492405 25 2 C25.99 2 26.98 2 28 2 C30.73596095 4.39396583 32.90899413 7.03774168 35 10 C35.66 10.86625 36.32 11.7325 37 12.625 C42.28714436 21.54705611 42.42632786 30.57452784 42.328125 40.72265625 C42.32506064 42.11844173 42.32318967 43.51423028 42.32244873 44.91001892 C42.31788015 47.81212354 42.30357727 50.7139453 42.28125 53.6159668 C42.25273152 57.34183483 42.24201104 61.06748349 42.2375679 64.79345036 C42.23342422 67.66466978 42.22361947 70.53584473 42.21169281 73.40704155 C42.20598882 74.78221723 42.20123054 76.15739717 42.19742584 77.53257942 C42.19058834 79.44239999 42.17606277 81.35218844 42.16113281 83.26196289 C42.15430481 84.34876846 42.14747681 85.43557404 42.14044189 86.55531311 C42 89 42 89 41 90 C39.46218409 90.09902107 37.91990556 90.13079567 36.37890625 90.1328125 C35.44369141 90.13410156 34.50847656 90.13539063 33.54492188 90.13671875 C32.06862305 90.13091797 32.06862305 90.13091797 30.5625 90.125 C29.09200195 90.13080078 29.09200195 90.13080078 27.59179688 90.13671875 C26.18704102 90.13478516 26.18704102 90.13478516 24.75390625 90.1328125 C23.45948608 90.13112061 23.45948608 90.13112061 22.13891602 90.12939453 C20 90 20 90 18 89 C18.00666183 87.87366653 18.00666183 87.87366653 18.01345825 86.72457886 C18.05360388 79.63327861 18.08401937 72.54201801 18.10362434 65.45063591 C18.11404243 61.80525726 18.12816533 58.15997286 18.15087891 54.51464844 C18.17267804 50.99387821 18.18458347 47.4731984 18.18975449 43.95236588 C18.19522478 41.96161159 18.21082641 39.97089346 18.22659302 37.98019409 C18.22674408 36.75938141 18.22689514 35.53856873 18.22705078 34.28076172 C18.23371262 32.67525955 18.23371262 32.67525955 18.24050903 31.037323 C17.97668076 27.70550765 17.32097829 25.06884133 16 22 C12.16415206 20.16925439 8.19098752 19.5987125 4 19 C3.67 19.66 3.34 20.32 3 21 C0.69 21 -1.62 21 -4 21 C-4.495 22.485 -4.495 22.485 -5 24 C-6.6635479 24.67441131 -8.33066942 25.3400321 -10 26 C-11.35251497 27.31387169 -12.68945377 28.64426252 -14 30 C-14.66 30 -15.32 30 -16 30 C-16.0154612 31.10540382 -16.0154612 31.10540382 -16.03123474 32.23313904 C-16.12904643 39.16421076 -16.23153716 46.09519902 -16.33933926 53.02612209 C-16.39460027 56.58972968 -16.44802518 60.15334543 -16.49731445 63.71704102 C-16.55400532 67.81015245 -16.61857318 71.9031061 -16.68359375 75.99609375 C-16.70866249 77.92418129 -16.70866249 77.92418129 -16.73423767 79.89122009 C-16.75418289 81.07236893 -16.77412811 82.25351776 -16.79467773 83.47045898 C-16.81022202 84.51636703 -16.8257663 85.56227509 -16.84178162 86.63987732 C-17 89 -17 89 -18 90 C-19.4887186 90.08669432 -20.981445 90.10703494 -22.47265625 90.09765625 C-23.37177734 90.09443359 -24.27089844 90.09121094 -25.19726562 90.08789062 C-26.61555664 90.07532227 -26.61555664 90.07532227 -28.0625 90.0625 C-29.01189453 90.05798828 -29.96128906 90.05347656 -30.93945312 90.04882812 C-33.29303065 90.0370011 -35.64648477 90.02052025 -38 90 C-38.02313508 78.95192216 -38.04092106 67.90385005 -38.05181217 56.85575294 C-38.05703844 51.72609224 -38.06413146 46.59644806 -38.07543945 41.46679688 C-38.0862774 36.51960461 -38.09227877 31.57242828 -38.09487724 26.62522507 C-38.09672985 24.73451868 -38.10034733 22.84381319 -38.10573006 20.95311356 C-38.1129525 18.31198467 -38.11399043 15.67092227 -38.11352539 13.02978516 C-38.11712067 12.24216293 -38.12071594 11.45454071 -38.12442017 10.64305115 C-38.11405216 5.22810432 -38.11405216 5.22810432 -37 3 C-35.2507786 2.91857073 -33.50045458 2.86061459 -31.75 2.8125 C-30.28820313 2.76029297 -30.28820313 2.76029297 -28.796875 2.70703125 C-25.58125642 3.04386281 -24.28809642 3.75427574 -22 6 C-21.25 8.6875 -21.25 8.6875 -21 11 C-20.01 10.67 -19.02 10.34 -18 10 C-17.67 9.34 -17.34 8.68 -17 8 C-15.35 8 -13.7 8 -12 8 C-12 7.34 -12 6.68 -12 6 C-10.35 5.67 -8.7 5.34 -7 5 C-7 4.34 -7 3.68 -7 3 C-3.535 2.505 -3.535 2.505 0 2 C0 1.34 0 0.68 0 0 Z M-17 26 C-17 26.99 -17 27.98 -17 29 C-16.34 28.67 -15.68 28.34 -15 28 C-15 27.34 -15 26.68 -15 26 C-15.66 26 -16.32 26 -17 26 Z " fill="#000100" transform="translate(1220,68)"/>
<path d="M0 0 C4.37487331 -0.08738991 8.74952078 -0.140524 13.125 -0.1875 C14.98125 -0.22520508 14.98125 -0.22520508 16.875 -0.26367188 C18.07382813 -0.27333984 19.27265625 -0.28300781 20.5078125 -0.29296875 C21.60754395 -0.3086792 22.70727539 -0.32438965 23.84033203 -0.34057617 C27.45528969 0.04907504 29.81457619 1.30328795 33 3 C33.99 3 34.98 3 36 3 C43.06122503 9.08049933 49.10440422 16.75456465 51 26 C51.09137517 27.9803773 51.12789808 29.96356127 51.12939453 31.94604492 C51.13254669 33.14376022 51.13569885 34.34147552 51.13894653 35.57548523 C51.13591019 37.50845207 51.13591019 37.50845207 51.1328125 39.48046875 C51.13348626 40.81757118 51.13445689 42.1546735 51.13571167 43.49177551 C51.13718372 46.28839285 51.13504889 49.08497818 51.13037109 51.8815918 C51.1246575 55.47309745 51.12796617 59.06452865 51.13394356 62.65603161 C51.13754835 65.41401231 51.13641126 68.17197521 51.13381577 70.92995644 C51.13282135 72.90042291 51.1358658 74.87089006 51.13894653 76.84135437 C51.13421829 78.6237426 51.13421829 78.6237426 51.12939453 80.44213867 C51.12859894 81.4937468 51.12780334 82.54535492 51.12698364 83.62882996 C51 86 51 86 50 87 C47.89868079 87.12602054 45.79256212 87.1757922 43.6875 87.1875 C42.53636719 87.20167969 41.38523437 87.21585937 40.19921875 87.23046875 C37.17587763 87.01267006 35.53434129 86.5831811 33 85 C33 84.34 33 83.68 33 83 C32.01 82.67 31.02 82.34 30 82 C29.505 83.485 29.505 83.485 29 85 C27.68 85 26.36 85 25 85 C25 85.66 25 86.32 25 87 C23.35 87 21.7 87 20 87 C20 87.66 20 88.32 20 89 C16.20913543 89.22519106 12.41738942 89.42729249 8.625 89.625 C7.54476563 89.68945312 6.46453125 89.75390625 5.3515625 89.8203125 C4.3203125 89.871875 3.2890625 89.9234375 2.2265625 89.9765625 C1.27346191 90.02893066 0.32036133 90.08129883 -0.66162109 90.13525391 C-3 90 -3 90 -5 88 C-6.6635479 87.32558869 -8.33066942 86.6599679 -10 86 C-13.57055576 84.12970889 -15.8973098 82.46943884 -18 79 C-18.34227417 77.66893378 -18.67751743 76.33599921 -19 75 C-19.66 74.67 -20.32 74.34 -21 74 C-21.05786668 70.20839703 -21.09355054 66.41690689 -21.125 62.625 C-21.14175781 61.54476562 -21.15851563 60.46453125 -21.17578125 59.3515625 C-21.18222656 58.3203125 -21.18867187 57.2890625 -21.1953125 56.2265625 C-21.20578613 55.27346191 -21.21625977 54.32036133 -21.22705078 53.33837891 C-21 51 -21 51 -19 49 C-18.525625 48.195625 -18.05125 47.39125 -17.5625 46.5625 C-14.39606501 41.36954662 -14.39606501 41.36954662 -10.875 40.4375 C-10.25625 40.293125 -9.6375 40.14875 -9 40 C-8.67 39.34 -8.34 38.68 -8 38 C-6.35 38 -4.7 38 -3 38 C-3 37.34 -3 36.68 -3 36 C3.89618858 35.09429581 10.61208545 34.8777016 17.5625 34.9375 C19.07553711 34.94426758 19.07553711 34.94426758 20.61914062 34.95117188 C23.07949147 34.96283231 25.53971239 34.97919622 28 35 C27.40196841 29.64289601 26.58805501 27.05102984 23 23 C23 22.34 23 21.68 23 21 C22.360625 20.855625 21.72125 20.71125 21.0625 20.5625 C19 20 19 20 18 19 C16.35769636 18.8754514 14.70947724 18.82431476 13.0625 18.8125 C12.16660156 18.79832031 11.27070312 18.78414062 10.34765625 18.76953125 C7.80885466 18.76805231 7.80885466 18.76805231 6 21 C3.8359375 21.1953125 3.8359375 21.1953125 1.375 21.125 C0.55773438 21.10695313 -0.25953125 21.08890625 -1.1015625 21.0703125 C-1.72804688 21.04710938 -2.35453125 21.02390625 -3 21 C-3 21.66 -3 22.32 -3 23 C-9.44807122 24.33827893 -9.44807122 24.33827893 -11.9375 22.8125 C-13 21 -13 21 -13 17 C-13.66 17 -14.32 17 -15 17 C-15.33 13.04 -15.66 9.08 -16 5 C-14.35 5 -12.7 5 -11 5 C-11 4.34 -11 3.68 -11 3 C-7.27569643 2.30710631 -3.78916254 1.88855404 0 2 C0 1.34 0 0.68 0 0 Z M14 48 C14 48.33 14 48.66 14 49 C18.29 49 22.58 49 27 49 C27 48.67 27 48.34 27 48 C22.71 48 18.42 48 14 48 Z M7 49 C7 49.66 7 50.32 7 51 C5.8553125 50.9071875 5.8553125 50.9071875 4.6875 50.8125 C2.01530686 50.77906825 2.01530686 50.77906825 0.1875 52.1875 C-1.36678206 54.55982525 -1.22537188 56.22041345 -1 59 C-1.66 59 -2.32 59 -3 59 C-3.42653727 63.35068018 -3.57772872 65.29388712 -0.75 68.75 C0.1575 69.4925 1.065 70.235 2 71 C2.8971875 71.8971875 2.8971875 71.8971875 3.8125 72.8125 C7.2048319 74.65405161 10.17785018 74.19110749 14 74 C14.33 73.34 14.66 72.68 15 72 C17.5625 71.375 17.5625 71.375 20 71 C20 70.34 20 69.68 20 69 C20.7425 69.12375 21.485 69.2475 22.25 69.375 C25.18962356 69.24619928 25.18962356 69.24619928 27.3125 66.8125 C30.30677215 61.84609679 29.29728272 55.56579307 29 50 C27.97519531 49.93941406 26.95039062 49.87882812 25.89453125 49.81640625 C24.53384305 49.73194974 23.17316657 49.64730433 21.8125 49.5625 C21.13896484 49.52318359 20.46542969 49.48386719 19.77148438 49.44335938 C16.83630619 49.25722612 14.01845693 49.00385254 11.13671875 48.40234375 C8.95787928 47.76897629 8.95787928 47.76897629 7 49 Z " fill="#030403" transform="translate(1114,71)"/>
<path d="M0 0 C1.77508085 2.4254466 3.23436593 4.70547694 4.6875 7.3125 C5.29174805 8.34793945 5.29174805 8.34793945 5.90820312 9.40429688 C7.56072996 12.26923033 8.9497255 14.84917651 10 18 C10.66 18 11.32 18 12 18 C13.07525194 20.65228812 14.09456151 23.28368454 15 26 C15.66 26 16.32 26 17 26 C17.495 27.485 17.495 27.485 18 29 C19.36893239 29.05270463 19.36893239 29.05270463 22 28 C22 27.34 22 26.68 22 26 C22.66 26 23.32 26 24 26 C24.103125 25.236875 24.20625 24.47375 24.3125 23.6875 C25.06799155 20.73421485 25.86992523 20.04132166 28 18 C28.165 17.34 28.33 16.68 28.5 16 C29.11504234 13.53983064 30.03908227 12.56873418 32 11 C32.66 11 33.32 11 34 11 C34.185625 9.8553125 34.185625 9.8553125 34.375 8.6875 C35 6 35 6 37 3 C39.24658203 2.65942383 39.24658203 2.65942383 42.0078125 2.70703125 C42.99394531 2.71669922 43.98007812 2.72636719 44.99609375 2.73632812 C46.02863281 2.76146484 47.06117188 2.78660156 48.125 2.8125 C49.68541016 2.83280273 49.68541016 2.83280273 51.27734375 2.85351562 C53.85207627 2.88894772 56.4257833 2.93834779 59 3 C60.15625 6.6875 60.15625 6.6875 58.75 9.5 C57.88375 10.7375 57.88375 10.7375 57 12 C56.484375 12.763125 55.96875 13.52625 55.4375 14.3125 C54.963125 14.869375 54.48875 15.42625 54 16 C53.34 16 52.68 16 52 16 C51.896875 16.763125 51.79375 17.52625 51.6875 18.3125 C50.91839787 21.31899016 50.17127175 21.9122387 48 24 C47.505 25.03125 47.01 26.0625 46.5 27.125 C45 30 45 30 42 31 C41.896875 31.763125 41.79375 32.52625 41.6875 33.3125 C40.92549915 36.29123061 40.14912979 36.9368354 38 39 C37.67 39.825 37.34 40.65 37 41.5 C36 44 36 44 34.3125 45.5625 C33.879375 46.036875 33.44625 46.51125 33 47 C33.45576937 50.00160069 34.56981996 52.20471331 36.1796875 54.75 C36.61410156 55.4409375 37.04851562 56.131875 37.49609375 56.84375 C38.17865234 57.91109375 38.17865234 57.91109375 38.875 59 C39.32230469 59.7115625 39.76960938 60.423125 40.23046875 61.15625 C42.00795205 63.96666607 43.76204764 66.69770859 45.8203125 69.3125 C47 71 47 71 47 74 C47.66 74.33 48.32 74.66 49 75 C50.2890625 76.55859375 50.2890625 76.55859375 51.625 78.4375 C52.07101562 79.05496094 52.51703125 79.67242187 52.9765625 80.30859375 C54 82 54 82 54 84 C54.66 84 55.32 84 56 84 C56 84.99 56 85.98 56 87 C56.66 87 57.32 87 58 87 C57.505 88.485 57.505 88.485 57 90 C53.64650673 90.17576433 50.29421021 90.28132437 46.9375 90.375 C45.99455078 90.42527344 45.05160156 90.47554688 44.08007812 90.52734375 C39.13364536 90.63075349 35.86535845 90.45933956 31.9609375 87.23828125 C29.70543802 84.9656565 27.94049002 82.78760901 26.6875 79.8125 C25.58327699 77.2792825 24.56079093 75.34118639 23 73 C22.87625 72.360625 22.7525 71.72125 22.625 71.0625 C21.77883042 68.27014038 20.13266099 66.92627445 18 65 C15.96758273 65.63979849 15.96758273 65.63979849 14 67 C13.61781233 68.65614657 13.28604898 70.32457024 13 72 C12.02149805 73.02104551 11.02019573 74.0206121 10 75 C8.80972016 77.59915538 8.80972016 77.59915538 8 80 C7.34 80 6.68 80 6 80 C5.9071875 81.0828125 5.9071875 81.0828125 5.8125 82.1875 C4.65726989 86.18637344 3.37966914 87.51494916 0 90 C-3.95394782 90.61892132 -7.82289182 90.4709145 -11.8125 90.3125 C-12.88693359 90.28994141 -13.96136719 90.26738281 -15.06835938 90.24414062 C-17.7136685 90.18535598 -20.35611413 90.10323957 -23 90 C-23 86.0410805 -21.56367684 84.75042179 -19.1875 81.625 C-16.12038351 77.56903175 -13.27819573 73.55639147 -11 69 C-10.34 69 -9.68 69 -9 69 C-8.896875 68.236875 -8.79375 67.47375 -8.6875 66.6875 C-7.91839787 63.68100984 -7.17127175 63.0877613 -5 61 C-4.505 59.96875 -4.01 58.9375 -3.5 57.875 C-2 55 -2 55 1 54 C1.12375 53.21625 1.2475 52.4325 1.375 51.625 C2 49 2 49 4 47 C3.98333671 44.49675668 3.98333671 44.49675668 3 42 C1.67732273 40.98594743 0.34275169 39.98731742 -1 39 C-2.44907064 36.38052615 -3.6763191 33.73984205 -4.875 31 C-6.06710578 28.72195135 -6.06710578 28.72195135 -8.5625 26.0625 C-11.01077562 22.98646141 -11.28531892 21.67550268 -12 18 C-13.32407669 17.31513275 -14.65909241 16.65129797 -16 16 C-18.41735738 12.97830327 -19.91155875 11.01707435 -20.25 7.125 C-20.1675 6.42375 -20.085 5.7225 -20 5 C-18.02 5 -16.04 5 -14 5 C-14 4.34 -14 3.68 -14 3 C-12.906875 2.87625 -11.81375 2.7525 -10.6875 2.625 C-6.32294604 1.88524509 -4.50672953 0 0 0 Z M53 10 C53.66 10.66 54.32 11.32 55 12 C55 11.34 55 10.68 55 10 C54.34 10 53.68 10 53 10 Z M49 18 C50 20 50 20 50 20 Z M37 33 C38.485 33.99 38.485 33.99 40 35 C40 34.34 40 33.68 40 33 C39.01 33 38.02 33 37 33 Z M9 69 C10.485 69.99 10.485 69.99 12 71 C12 70.34 12 69.68 12 69 C11.01 69 10.02 69 9 69 Z M3 82 C4 84 4 84 4 84 Z " fill="#020302" transform="translate(328,68)"/>
<path d="M0 0 C1.07958984 -0.00322266 2.15917969 -0.00644531 3.27148438 -0.00976562 C8.14388462 0.0235034 11.4597846 0.07581175 15.8125 2.3125 C16.4725 1.9825 17.1325 1.6525 17.8125 1.3125 C17.8125 1.9725 17.8125 2.6325 17.8125 3.3125 C18.864375 3.580625 19.91625 3.84875 21 4.125 C28.74798387 6.53830645 28.74798387 6.53830645 31.125 10.5 C31.351875 11.098125 31.57875 11.69625 31.8125 12.3125 C31.1525 12.9725 30.4925 13.6325 29.8125 14.3125 C29.12310191 16.63921854 28.45783078 18.97317594 27.8125 21.3125 C27.17049363 22.657881 26.50918546 23.99460334 25.8125 25.3125 C25.29115479 25.11551514 24.76980957 24.91853027 24.23266602 24.71557617 C18.12718606 22.53060487 12.16868111 21.44241033 5.75 20.625 C4.78900391 20.49544922 3.82800781 20.36589844 2.83789062 20.23242188 C0.49701226 19.91797553 -1.84460632 19.61149053 -4.1875 19.3125 C-4.1875 19.9725 -4.1875 20.6325 -4.1875 21.3125 C-5.8375 21.3125 -7.4875 21.3125 -9.1875 21.3125 C-9.414375 21.89 -9.64125 22.4675 -9.875 23.0625 C-11.1875 25.3125 -11.1875 25.3125 -13.625 27 C-16.74858737 29.81884714 -17.40366165 32.12377854 -18.51171875 36.09375 C-19.1875 38.3125 -19.1875 38.3125 -20.25390625 40.28125 C-21.39054446 42.75427037 -21.45403959 44.60000677 -21.4375 47.3125 C-21.44265625 48.158125 -21.4478125 49.00375 -21.453125 49.875 C-21.17036061 52.46977915 -20.38797293 54.02498465 -19.1875 56.3125 C-19.0625 59.5625 -19.0625 59.5625 -19.1875 62.3125 C-18.61 62.56 -18.0325 62.8075 -17.4375 63.0625 C-15.1875 64.3125 -15.1875 64.3125 -13.4375 66.125 C-6.63382468 72.73968433 -0.60026264 74.13993269 8.8125 74.3125 C8.8125 73.6525 8.8125 72.9925 8.8125 72.3125 C10.483125 72.126875 10.483125 72.126875 12.1875 71.9375 C15.84353677 71.6659187 15.84353677 71.6659187 17.8125 69.3125 C20.50089385 69.04258094 23.10391936 69.22512643 25.8125 69.3125 C28.61095727 74.65500933 30.8125 79.21670047 30.8125 85.3125 C30.1525 85.9725 29.4925 86.6325 28.8125 87.3125 C27.4925 87.3125 26.1725 87.3125 24.8125 87.3125 C24.8125 87.9725 24.8125 88.6325 24.8125 89.3125 C16.98714524 92.46473302 9.76063572 92.91330698 1.375 93.125 C0.09689453 93.17591797 -1.18121094 93.22683594 -2.49804688 93.27929688 C-9.49408784 93.49803901 -9.49408784 93.49803901 -12.1875 93.3125 C-13.1775 92.3225 -13.1775 92.3225 -14.1875 91.3125 C-15.49106648 90.9457824 -16.80571325 90.61786836 -18.125 90.3125 C-24.72969595 88.25054614 -29.5840509 83.31053045 -34.1875 78.3125 C-34.5175 77.3225 -34.8475 76.3325 -35.1875 75.3125 C-35.8475 74.714375 -36.5075 74.11625 -37.1875 73.5 C-39.6552215 70.80092961 -39.71358343 68.86687428 -40.1875 65.3125 C-40.8475 64.9825 -41.5075 64.6525 -42.1875 64.3125 C-43.28574559 60.40762678 -43.52716247 56.32858627 -43.90625 52.30078125 C-44.09002406 50.24284156 -44.09002406 50.24284156 -45.1875 48.3125 C-44.5275 48.3125 -43.8675 48.3125 -43.1875 48.3125 C-43.35894531 47.78785156 -43.53039062 47.26320312 -43.70703125 46.72265625 C-44.32325904 43.63149732 -44.11436912 40.89037996 -43.875 37.75 C-43.79636719 36.61433594 -43.71773437 35.47867188 -43.63671875 34.30859375 C-43.1875 31.3125 -43.1875 31.3125 -41.1875 28.3125 C-40.7234375 26.8584375 -40.7234375 26.8584375 -40.25 25.375 C-39.22868575 22.43121186 -38.0539982 20.74706287 -36.1875 18.3125 C-36.06375 17.6525 -35.94 16.9925 -35.8125 16.3125 C-34.86981057 13.29589382 -32.65717556 12.16475667 -30.1875 10.3125 C-29.8575 9.6525 -29.5275 8.9925 -29.1875 8.3125 C-27.1875 7.8125 -27.1875 7.8125 -25.1875 7.3125 C-24.8575 6.6525 -24.5275 5.9925 -24.1875 5.3125 C-22.5375 5.3125 -20.8875 5.3125 -19.1875 5.3125 C-19.1875 4.6525 -19.1875 3.9925 -19.1875 3.3125 C-12.82072373 -0.1297371 -7.14005586 -0.10772565 0 0 Z M2.8125 18.3125 C6.8125 19.3125 6.8125 19.3125 6.8125 19.3125 Z " fill="#020302" transform="translate(1051.1875,67.6875)"/>
<path d="M0 0 C4.12486211 -0.08813808 8.24947739 -0.14077078 12.375 -0.1875 C14.10943359 -0.22520508 14.10943359 -0.22520508 15.87890625 -0.26367188 C26.22618615 -0.35136069 34.24616063 1.48127518 43 7 C43.125 9.375 43.125 9.375 43 12 C42.34 12.66 41.68 13.32 41 14 C40.690625 15.175625 40.38125 16.35125 40.0625 17.5625 C39.5365625 19.2640625 39.5365625 19.2640625 39 21 C38.01 21.33 37.02 21.66 36 22 C36 21.34 36 20.68 36 20 C35.401875 20.20625 34.80375 20.4125 34.1875 20.625 C32 21 32 21 29 19 C26.66842508 18.65458149 24.33491639 18.32205743 22 18 C21.175 17.62875 20.35 17.2575 19.5 16.875 C16.05325205 15.66863822 13.54712845 16.30324263 10 17 C9.030625 17.185625 8.06125 17.37125 7.0625 17.5625 C6.381875 17.706875 5.70125 17.85125 5 18 C4.31292445 20.49064888 4 22.37886292 4 25 C8.27547697 31.41321545 14.64240553 33.11931948 21.8125 35 C24.97532404 35.99225852 25.86191477 36.65828761 28 39 C29.94603274 39.59070014 29.94603274 39.59070014 32 40 C36.13345475 41.51560007 39.25171173 44.62876639 42 48 C42 48.66 42 49.32 42 50 C42.66 50 43.32 50 44 50 C46.89793155 58.69379464 49.0629263 67.24908181 45 76 C37.30933889 85.52447864 37.30933889 85.52447864 31.16796875 86.7890625 C29.59982422 86.89347656 29.59982422 86.89347656 28 87 C28 87.66 28 88.32 28 89 C23.62218616 89.19218929 19.24409441 89.37092139 14.86523438 89.53710938 C13.37517512 89.59556854 11.88525624 89.65772629 10.39550781 89.72363281 C8.25611936 89.81764056 6.11658132 89.89840682 3.9765625 89.9765625 C2.68830566 90.02893066 1.40004883 90.08129883 0.07275391 90.13525391 C-3 90 -3 90 -5 88 C-6.96690374 87.32707499 -6.96690374 87.32707499 -9.125 86.875 C-10.40375 86.58625 -11.6825 86.2975 -13 86 C-13 85.34 -13 84.68 -13 84 C-14.32 84 -15.64 84 -17 84 C-18.1875 81.9375 -18.1875 81.9375 -19 79 C-17.71346706 75.07268893 -16.43718798 71.47477535 -13 69 C-9.5864331 67.75531512 -7.47643194 68.2025776 -4.0625 69.3125 C-3.22847656 69.57675781 -2.39445313 69.84101563 -1.53515625 70.11328125 C1 71 1 71 3.453125 72.09765625 C6.39279614 73.1391655 8.70428118 73.19989684 11.8125 73.125 C13.27623047 73.09792969 13.27623047 73.09792969 14.76953125 73.0703125 C15.50558594 73.04710937 16.24164062 73.02390625 17 73 C17 72.34 17 71.68 17 71 C17.763125 70.855625 18.52625 70.71125 19.3125 70.5625 C22.08172908 70.0367406 22.08172908 70.0367406 25 69 C23.52053922 62.02162296 23.52053922 62.02162296 19.1953125 56.8046875 C18.51210938 56.49789062 17.82890625 56.19109375 17.125 55.875 C16.44695313 55.56304687 15.76890625 55.25109375 15.0703125 54.9296875 C14.38710938 54.62289062 13.70390625 54.31609375 13 54 C12.34128906 53.64679688 11.68257812 53.29359375 11.00390625 52.9296875 C8.89300017 51.95035875 7.10522894 51.60080006 4.8125 51.25 C-0.6942479 50.10879895 -4.5192237 47.25951209 -9 44 C-10.1434551 43.30855173 -11.28896984 42.62048517 -12.4375 41.9375 C-15.3470259 39.73761456 -15.99108393 38.4471299 -17 35 C-17.3403125 34.26007813 -17.680625 33.52015625 -18.03125 32.7578125 C-19.18353256 29.47752424 -19.26582874 26.78295121 -19.25 23.3125 C-19.25515625 22.17425781 -19.2603125 21.03601563 -19.265625 19.86328125 C-19 17 -19 17 -17 15 C-16.773125 14.2575 -16.54625 13.515 -16.3125 12.75 C-14.22615914 8.37861916 -10.3253374 5.1626687 -6 3 C-3 2 -3 2 0 2 C0 1.34 0 0.68 0 0 Z M37 15 C37 15.66 37 16.32 37 17 C36.34 17 35.68 17 35 17 C35.33 17.66 35.66 18.32 36 19 C36.66 19 37.32 19 38 19 C37.67 17.68 37.34 16.36 37 15 Z M40 74 C41.485 74.99 41.485 74.99 43 76 C43 75.34 43 74.68 43 74 C42.01 74 41.02 74 40 74 Z M32 82 C33 84 33 84 33 84 Z " fill="#010201" transform="translate(953,71)"/>
<path d="M0 0 C1.14597656 -0.01224609 2.29195312 -0.02449219 3.47265625 -0.03710938 C4.57996094 -0.03904297 5.68726563 -0.04097656 6.828125 -0.04296875 C8.35034668 -0.04913208 8.35034668 -0.04913208 9.90332031 -0.05541992 C12.89424964 0.19980947 15.03448897 0.94391805 17.75 2.1875 C19.08166763 2.69191956 20.41490512 3.19222287 21.75 3.6875 C22.43320312 3.94789062 23.11640625 4.20828125 23.8203125 4.4765625 C25.40288008 5.05961371 27.01151657 5.57143983 28.625 6.0625 C30.75 7.1875 30.75 7.1875 32.0625 9.8125 C32.289375 10.59625 32.51625 11.38 32.75 12.1875 C32.09 12.8475 31.43 13.5075 30.75 14.1875 C30.03072705 16.50515729 29.3590107 18.83845874 28.75 21.1875 C28.09 21.1875 27.43 21.1875 26.75 21.1875 C26.42 22.5075 26.09 23.8275 25.75 25.1875 C21.87101499 24.49790267 18.23435333 23.43841639 14.5 22.1875 C13.44296875 21.836875 12.3859375 21.48625 11.296875 21.125 C8.75 20.1875 8.75 20.1875 7.75 19.1875 C1.21199979 18.31481288 -3.82678627 19.48049314 -9.25 23.1875 C-15.5187013 28.23649924 -18.54838039 34.33387104 -20.25 42.1875 C-20.93715722 50.88214237 -19.73605669 59.09287731 -14.25 66.1875 C-8.79619085 71.1089135 -3.2689664 73.32910661 4.0625 73.8125 C5.13113281 73.88726562 6.19976563 73.96203125 7.30078125 74.0390625 C8.51314453 74.11253906 8.51314453 74.11253906 9.75 74.1875 C9.75 73.5275 9.75 72.8675 9.75 72.1875 C14.205 71.6925 14.205 71.6925 18.75 71.1875 C18.75 70.5275 18.75 69.8675 18.75 69.1875 C21.39 69.1875 24.03 69.1875 26.75 69.1875 C28.80832429 73.11702819 30.43256255 76.95287962 31.75 81.1875 C32.08 82.1775 32.41 83.1675 32.75 84.1875 C23.29101159 92.06999034 13.84810617 92.52472296 1.875 92.875 C0.64007812 92.92205078 -0.59484375 92.96910156 -1.8671875 93.01757812 C-10.98030415 93.32234793 -10.98030415 93.32234793 -13.25 92.1875 C-13.25 91.5275 -13.25 90.8675 -13.25 90.1875 C-14.8896875 90.001875 -14.8896875 90.001875 -16.5625 89.8125 C-20.25 89.1875 -20.25 89.1875 -23.25 87.1875 C-23.25 86.5275 -23.25 85.8675 -23.25 85.1875 C-23.86875 85.043125 -24.4875 84.89875 -25.125 84.75 C-27.25 84.1875 -27.25 84.1875 -29.25 83.1875 C-29.25 82.5275 -29.25 81.8675 -29.25 81.1875 C-30.24 80.8575 -31.23 80.5275 -32.25 80.1875 C-32.91666667 78.52083333 -33.58333333 76.85416667 -34.25 75.1875 C-35.24 74.8575 -36.23 74.5275 -37.25 74.1875 C-37.25 73.5275 -37.25 72.8675 -37.25 72.1875 C-37.91 71.8575 -38.57 71.5275 -39.25 71.1875 C-39.25 69.8675 -39.25 68.5475 -39.25 67.1875 C-40.14163577 65.07066159 -40.14163577 65.07066159 -41.25 63.1875 C-42.5676312 60.55223759 -42.62393251 58.24640299 -42.875 55.3125 C-42.97039063 54.26320312 -43.06578125 53.21390625 -43.1640625 52.1328125 C-43.24015863 49.52479071 -43.0460989 47.64708914 -42.25 45.1875 C-42.91 44.8575 -43.57 44.5275 -44.25 44.1875 C-43.59 44.1875 -42.93 44.1875 -42.25 44.1875 C-42.27320313 43.20007813 -42.29640625 42.21265625 -42.3203125 41.1953125 C-42.33835937 39.91398437 -42.35640625 38.63265625 -42.375 37.3125 C-42.39820313 36.03632812 -42.42140625 34.76015625 -42.4453125 33.4453125 C-42.25 30.1875 -42.25 30.1875 -40.25 28.1875 C-40.12625 27.424375 -40.0025 26.66125 -39.875 25.875 C-39.09481923 22.52022269 -37.41447747 20.82545692 -35.25 18.1875 C-35.11335937 17.54296875 -34.97671875 16.8984375 -34.8359375 16.234375 C-34.08692298 13.61781762 -32.96125773 12.71213978 -30.875 11 C-30.26914062 10.49082031 -29.66328125 9.98164062 -29.0390625 9.45703125 C-27.25 8.1875 -27.25 8.1875 -24.25 7.1875 C-23.92 6.5275 -23.59 5.8675 -23.25 5.1875 C-21.6 5.1875 -19.95 5.1875 -18.25 5.1875 C-18.25 4.5275 -18.25 3.8675 -18.25 3.1875 C-17.445625 2.878125 -16.64125 2.56875 -15.8125 2.25 C-10.35693401 -0.01206395 -6.21170309 0.00344712 0 0 Z " fill="#010201" transform="translate(805.25,67.8125)"/>
<path d="M0 0 C3.29159316 -0.05790353 6.58305603 -0.09356261 9.875 -0.125 C10.81214844 -0.14175781 11.74929688 -0.15851562 12.71484375 -0.17578125 C13.61074219 -0.18222656 14.50664062 -0.18867188 15.4296875 -0.1953125 C16.25710449 -0.20578613 17.08452148 -0.21625977 17.93701172 -0.22705078 C20 0 20 0 22 2 C22.24888897 4.16423893 22.24888897 4.16423893 22.24723816 6.90333557 C22.25143265 7.93958069 22.25562714 8.97582581 22.25994873 10.04347229 C22.25151947 11.75554115 22.25151947 11.75554115 22.24291992 13.50219727 C22.24481827 14.7005722 22.24671661 15.89894714 22.24867249 17.13363647 C22.25174834 20.42489565 22.24585762 23.71590503 22.23571944 27.00713468 C22.2269511 30.44599335 22.22869614 33.88484764 22.2290802 37.32371521 C22.22814311 43.09823883 22.21945248 48.87270996 22.20581055 54.6472168 C22.19007711 61.33191421 22.18481267 68.01655414 22.1855461 74.70126873 C22.18615556 81.12239162 22.18105809 87.54349571 22.17275429 93.96461296 C22.16921568 96.70184412 22.16739022 99.43906862 22.16686058 102.17630196 C22.16567339 105.9932879 22.15597693 109.81022559 22.14526367 113.62719727 C22.14594345 115.34230247 22.14594345 115.34230247 22.14663696 117.09205627 C22.14237198 118.12548157 22.13810699 119.15890686 22.13371277 120.22364807 C22.13203692 121.12717294 22.13036108 122.0306978 22.12863445 122.96160221 C22 125 22 125 21 126 C19.46218409 126.09902107 17.91990556 126.13079567 16.37890625 126.1328125 C14.97608398 126.13474609 14.97608398 126.13474609 13.54492188 126.13671875 C12.06862305 126.13091797 12.06862305 126.13091797 10.5625 126.125 C9.09200195 126.13080078 9.09200195 126.13080078 7.59179688 126.13671875 C6.65529297 126.13542969 5.71878906 126.13414062 4.75390625 126.1328125 C3.45948608 126.13112061 3.45948608 126.13112061 2.13891602 126.12939453 C0 126 0 126 -2 125 C-2 84.41 -2 43.82 -2 2 C-1.01 2 -0.02 2 1 2 C0.67 1.34 0.34 0.68 0 0 Z " fill="#000100" transform="translate(489,32)"/>
<path d="M0 0 C6.6 0 13.2 0 20 0 C21.2407415 2.481483 21.12582554 4.12683897 21.12698364 6.90333557 C21.12980347 7.93958069 21.13262329 8.97582581 21.13552856 10.04347229 C21.13350433 11.18485153 21.1314801 12.32623077 21.12939453 13.50219727 C21.13114685 14.7005722 21.13289917 15.89894714 21.13470459 17.13363647 C21.13835873 20.42482458 21.13749237 23.71595005 21.1343255 27.00713468 C21.13179888 30.44599573 21.13414024 33.88485405 21.13571167 37.32371521 C21.13753223 43.09822065 21.13512976 48.8727133 21.13037109 54.6472168 C21.12492611 61.33191118 21.12669329 68.01657508 21.1321975 74.70126873 C21.13672878 80.43291471 21.13737918 86.1645515 21.13475883 91.89619869 C21.13319647 95.32290487 21.13300122 98.74959669 21.13629532 102.17630196 C21.13970816 105.99327921 21.13498406 109.81022204 21.12939453 113.62719727 C21.13141876 114.77060074 21.13344299 115.91400421 21.13552856 117.09205627 C21.13129883 118.64219421 21.13129883 118.64219421 21.12698364 120.22364807 C21.12660662 121.12717294 21.12622959 122.0306978 21.12584114 122.96160221 C21 125 21 125 20 126 C18.53521494 126.09883336 17.06577042 126.13079289 15.59765625 126.1328125 C14.70755859 126.13410156 13.81746094 126.13539063 12.90039062 126.13671875 C11.49563477 126.13091797 11.49563477 126.13091797 10.0625 126.125 C9.12986328 126.12886719 8.19722656 126.13273437 7.23632812 126.13671875 C6.34494141 126.13542969 5.45355469 126.13414062 4.53515625 126.1328125 C3.714104 126.13168457 2.89305176 126.13055664 2.04711914 126.12939453 C0 126 0 126 -2 125 C-2 84.41 -2 43.82 -2 2 C-1.01 2.495 -1.01 2.495 0 3 C0 2.01 0 1.02 0 0 Z " fill="#000100" transform="translate(630,32)"/>
<path d="M0 0 C3.14581423 -0.02888514 6.29159469 -0.04675923 9.4375 -0.0625 C10.33533203 -0.07087891 11.23316406 -0.07925781 12.15820312 -0.08789062 C13.01220703 -0.09111328 13.86621094 -0.09433594 14.74609375 -0.09765625 C15.93223267 -0.10551147 15.93223267 -0.10551147 17.14233398 -0.11352539 C19 0 19 0 20 1 C20.13041584 3.64113192 20.19667028 6.25751879 20.22119141 8.90039062 C20.2326973 9.72798386 20.24420319 10.55557709 20.25605774 11.4082489 C20.29289008 14.1575442 20.32244487 16.90686293 20.3515625 19.65625 C20.37466259 21.55814966 20.39805276 23.46004582 20.42172241 25.36193848 C20.47024691 29.35340435 20.51516999 33.34489079 20.55761719 37.33642578 C20.6124545 42.46498635 20.67627346 47.59338862 20.74279213 52.72180939 C20.79275326 56.65069721 20.83792653 60.57962877 20.88163376 64.5085907 C20.90326941 66.40013904 20.92642696 68.29167059 20.9510994 70.18318176 C20.98480982 72.82196483 21.01208477 75.46073609 21.03759766 78.09960938 C21.05466011 79.28407906 21.05466011 79.28407906 21.07206726 80.49247742 C21.08642944 82.32841927 21.04891015 84.16465356 21 86 C19.44393249 87.55606751 17.94042629 87.12970769 15.78125 87.1328125 C14.50701172 87.13474609 14.50701172 87.13474609 13.20703125 87.13671875 C12.31371094 87.13285156 11.42039062 87.12898438 10.5 87.125 C9.60667969 87.12886719 8.71335937 87.13273437 7.79296875 87.13671875 C6.94347656 87.13542969 6.09398437 87.13414062 5.21875 87.1328125 C4.43435547 87.13168457 3.64996094 87.13055664 2.84179688 87.12939453 C1 87 1 87 0 86 C-0.09512944 83.32212027 -0.12555279 80.67011131 -0.11352539 77.99194336 C-0.11367142 77.15299026 -0.11381744 76.31403717 -0.1139679 75.44966125 C-0.1132685 72.66302956 -0.10547485 69.87646384 -0.09765625 67.08984375 C-0.09579217 65.16313209 -0.09436822 63.23641995 -0.09336853 61.30970764 C-0.08954259 56.22812603 -0.07971166 51.1465728 -0.06866455 46.06500244 C-0.05845206 40.88383366 -0.05387126 35.70266031 -0.04882812 30.52148438 C-0.03808946 20.34764375 -0.02101213 10.17382423 0 0 Z " fill="#000100" transform="translate(273,71)"/>
<path d="M0 0 C3.47081571 1.76482155 4.96845942 4.64510908 6.3046875 8.171875 C6.5546875 11.609375 6.5546875 11.609375 6.3046875 14.171875 C5.3146875 14.501875 4.3246875 14.831875 3.3046875 15.171875 C3.6346875 16.491875 3.9646875 17.811875 4.3046875 19.171875 C0.02559683 23.09611425 -3.97788014 22.7165449 -9.546875 22.59765625 C-14.13727732 21.97686983 -15.75279524 20.6865484 -18.6953125 17.171875 C-20.23410499 12.55549752 -20.97775061 7.75777479 -18.7421875 3.25 C-13.9383953 -2.54768025 -6.7343469 -2.06910368 0 0 Z M-1.6953125 17.171875 C-1.6953125 18.161875 -1.6953125 19.151875 -1.6953125 20.171875 C-1.0353125 19.841875 -0.3753125 19.511875 0.3046875 19.171875 C-0.3553125 18.511875 -1.0153125 17.851875 -1.6953125 17.171875 Z " fill="#020302" transform="translate(289.6953125,35.828125)"/>
<path d="M0 0 C1.63671875 1.41796875 1.63671875 1.41796875 3 3 C4.97620986 4.04622875 6.9737129 5.05439935 9 6 C9 6.66 9 7.32 9 8 C10.485 8.495 10.485 8.495 12 9 C12 9.66 12 10.32 12 11 C10.49609375 12.1484375 10.49609375 12.1484375 8.4375 13.375 C7.70917969 13.80941406 6.98085937 14.24382812 6.23046875 14.69140625 C5.49441406 15.12324219 4.75835937 15.55507812 4 16 C3.35675781 16.40089844 2.71351562 16.80179688 2.05078125 17.21484375 C-1.33568673 19.27904657 -2.92872359 20 -7 20 C-7 19.34 -7 18.68 -7 18 C-8.65 17.67 -10.3 17.34 -12 17 C-12 16.34 -12 15.68 -12 15 C-13.32 15.33 -14.64 15.66 -16 16 C-16.33 15.01 -16.66 14.02 -17 13 C-18.65 12.67 -20.3 12.34 -22 12 C-21.71435135 8.57221614 -21.29390456 7.27757653 -18.75 4.875 C-17.8425 4.25625 -16.935 3.6375 -16 3 C-15.29875 2.4225 -14.5975 1.845 -13.875 1.25 C-9.44302018 -0.67694775 -4.75827155 -0.75130603 0 0 Z M7 8 C7 8.99 7 9.98 7 11 C7.99 10.67 8.98 10.34 10 10 C9.67 9.34 9.34 8.68 9 8 C8.34 8 7.68 8 7 8 Z M-1 13 C-0.67 13.66 -0.34 14.32 0 15 C0.33 14.34 0.66 13.68 1 13 C0.34 13 -0.32 13 -1 13 Z " fill="#000100" transform="translate(94,86)"/>
<path d="M0 0 C1.07619365 3.22858094 1.12052496 5.54539279 1.11352539 8.94018555 C1.11341209 10.77174446 1.11341209 10.77174446 1.11329651 12.64030457 C1.10813522 13.95912125 1.10297394 15.27793793 1.09765625 16.63671875 C1.0957908 18.00006559 1.0943675 19.36341311 1.09336853 20.72676086 C1.08955332 24.31228491 1.07973155 27.89776835 1.06866455 31.48327637 C1.05842901 35.1431422 1.05386632 38.8030146 1.04882812 42.46289062 C1.03810838 49.64194558 1.02104393 56.8209671 1 64 C1.66 64 2.32 64 3 64 C2.505 64.99 2.505 64.99 2 66 C-1.17339006 63.40358995 -1.99779472 60.94127479 -3 57 C-3.27847552 53.22771142 -3.25649474 49.46850898 -3.23046875 45.6875 C-3.23001053 44.60041748 -3.22955231 43.51333496 -3.2290802 42.39331055 C-3.22606615 40.10041204 -3.21820529 37.80751543 -3.20581055 35.51464844 C-3.18756406 32.01229567 -3.18530099 28.51020784 -3.18554688 25.0078125 C-3.18063068 22.77603939 -3.17480192 20.54426806 -3.16796875 18.3125 C-3.16685593 17.26860107 -3.1657431 16.22470215 -3.16459656 15.14916992 C-3.10001466 5.21650434 -3.10001466 5.21650434 -2 1 C-1.34 0.67 -0.68 0.34 0 0 Z " fill="#D38036" transform="translate(35,46)"/>
<path d="M0 0 C2.3431213 0.25561323 4.67843403 0.59270772 7 1 C7.33 1.66 7.66 2.32 8 3 C7.67 3.66 7.34 4.32 7 5 C6.34 5 5.68 5 5 5 C4.67 4.34 4.34 3.68 4 3 C3.34 3 2.68 3 2 3 C2 10.26 2 17.52 2 25 C-1 22 -1 22 -1.35644531 19.96289062 C-1.34709961 19.20169922 -1.33775391 18.44050781 -1.328125 17.65625 C-1.32296875 16.82222656 -1.3178125 15.98820313 -1.3125 15.12890625 C-1.291875 14.26136719 -1.27125 13.39382812 -1.25 12.5 C-1.24484375 11.63246094 -1.2396875 10.76492187 -1.234375 9.87109375 C-1.18993514 6.27701967 -1.14535595 3.43606784 0 0 Z " fill="#D58845" transform="translate(33,118)"/>
<path d="M0 0 C1.25847497 3.77542491 0.97805433 7.15447809 0.75 11.0625 C0.72292969 11.79533203 0.69585937 12.52816406 0.66796875 13.28320312 C0.546875 15.41015625 0.546875 15.41015625 0 19 C-0.99 19.66 -1.98 20.32 -3 21 C-3.02722517 18.79173622 -3.04649729 16.58337362 -3.0625 14.375 C-3.07410156 13.14523438 -3.08570312 11.91546875 -3.09765625 10.6484375 C-3.00804609 7.30060208 -2.77747393 4.2565889 -2 1 C-1.34 0.67 -0.68 0.34 0 0 Z " fill="#D78E4E" transform="translate(35,46)"/>
<path d="M0 0 C16.83 0 33.66 0 51 0 C51 0.33 51 0.66 51 1 C34.17 1 17.34 1 0 1 C0 0.67 0 0.34 0 0 Z " fill="#FBFDFD" transform="translate(422,120)"/>
<path d="M0 0 C2.93872655 2.93872655 2.29169002 5.5236662 2.32226562 9.54296875 C2.31904297 10.51878906 2.31582031 11.49460937 2.3125 12.5 C2.32861328 13.47582031 2.34472656 14.45164062 2.36132812 15.45703125 C2.36197266 16.38902344 2.36261719 17.32101563 2.36328125 18.28125 C2.36626221 19.13783203 2.36924316 19.99441406 2.37231445 20.87695312 C2.1880188 21.92786133 2.1880188 21.92786133 2 23 C1.01 23.66 0.02 24.32 -1 25 C-1 22.27566901 -0.78322445 19.70636697 -0.5 17 C0.03844568 11.31977727 0.09924634 5.70115089 0 0 Z " fill="#C65B06" transform="translate(143,49)"/>
<path d="M0 0 C3.87990465 1.12086134 6.28003781 2.03276853 9 5 C11.09989652 6.17574711 11.09989652 6.17574711 13 7 C12.67 7.66 12.34 8.32 12 9 C11.401875 8.690625 10.80375 8.38125 10.1875 8.0625 C7.91043228 6.89790296 7.91043228 6.89790296 5 6 C5 5.34 5 4.68 5 4 C4.360625 3.896875 3.72125 3.79375 3.0625 3.6875 C2.381875 3.460625 1.70125 3.23375 1 3 C0.67 2.01 0.34 1.02 0 0 Z " fill="#C65B06" transform="translate(74,142)"/>
<path d="M0 0 C3.59391114 1.33488128 6.75490696 2.96022723 10 5 C9.67 5.99 9.34 6.98 9 8 C7.39125 7.071875 7.39125 7.071875 5.75 6.125 C3.20219016 4.6676321 0.64740645 3.27075509 -2 2 C-1.34 1.34 -0.68 0.68 0 0 Z " fill="#C7600E" transform="translate(120,31)"/>
<path d="M0 0 C6.75 0.75 6.75 0.75 9 3 C10.31747324 3.69748583 11.64914193 4.36959957 13 5 C13 5.66 13 6.32 13 7 C11.35 6.67 9.7 6.34 8 6 C8 5.34 8 4.68 8 4 C7.4225 3.896875 6.845 3.79375 6.25 3.6875 C3.67950842 2.90207202 2.06342716 1.69495803 0 0 Z " fill="#C65C06" transform="translate(105,24)"/>
<path d="M0 0 C7.59 0 15.18 0 23 0 C23 0.33 23 0.66 23 1 C15.41 1 7.82 1 0 1 C0 0.67 0 0.34 0 0 Z " fill="#FBFDFD" transform="translate(198,115)"/>
<path d="M0 0 C6.27 0 12.54 0 19 0 C19 0.33 19 0.66 19 1 C12.73 1 6.46 1 0 1 C0 0.67 0 0.34 0 0 Z " fill="#FBFDFD" transform="translate(431,161)"/>
<path d="M0 0 C5.94 0 11.88 0 18 0 C18 0.33 18 0.66 18 1 C12.06 1 6.12 1 0 1 C0 0.67 0 0.34 0 0 Z " fill="#FBFDFD" transform="translate(956,161)"/>
<path d="M0 0 C5.61 0 11.22 0 17 0 C17 0.33 17 0.66 17 1 C11.39 1 5.78 1 0 1 C0 0.67 0 0.34 0 0 Z " fill="#FBFDFD" transform="translate(702,161)"/>
<path d="M0 0 C5.28 0 10.56 0 16 0 C16 0.33 16 0.66 16 1 C10.72 1 5.44 1 0 1 C0 0.67 0 0.34 0 0 Z " fill="#FBFDFD" transform="translate(1044,161)"/>
<path d="M0 0 C5.28 0 10.56 0 16 0 C16 0.33 16 0.66 16 1 C10.72 1 5.44 1 0 1 C0 0.67 0 0.34 0 0 Z " fill="#FBFDFD" transform="translate(799,161)"/>
<path d="M0 0 C4.62 0 9.24 0 14 0 C14 0.33 14 0.66 14 1 C9.38 1 4.76 1 0 1 C0 0.67 0 0.34 0 0 Z " fill="#FBFDFD" transform="translate(1116,161)"/>
<path d="M0 0 C4.62 0 9.24 0 14 0 C14 0.33 14 0.66 14 1 C9.38 1 4.76 1 0 1 C0 0.67 0 0.34 0 0 Z " fill="#FBFDFD" transform="translate(564,161)"/>
<path d="M0 0 C1.98 0 3.96 0 6 0 C6 0.33 6 0.66 6 1 C4.02 1 2.04 1 0 1 C0 0.67 0 0.34 0 0 Z " fill="#FBFDFD" transform="translate(85,176)"/>
<path d="M0 0 C1.65 0 3.3 0 5 0 C5 0.33 5 0.66 5 1 C3.35 1 1.7 1 0 1 C0 0.67 0 0.34 0 0 Z " fill="#FBFDFD" transform="translate(808,87)"/>
<path d="M0 0 C4 1 4 1 4 1 Z " fill="#FBFDFD" transform="translate(281,59)"/>
<path d="M0 0 C3 1 3 1 3 1 Z " fill="#D37B1E" transform="translate(101,103)"/>
<path d="M0 0 C2 1 2 1 2 1 Z " fill="#C65B06" transform="translate(111,164)"/>
<path d="M0 0 C2 1 2 1 2 1 Z " fill="#000100" transform="translate(304,152)"/>
<path d="" fill="#000100" transform="translate(0,0)"/>
<path d="" fill="#000100" transform="translate(0,0)"/>
<path d="" fill="#FBFDFD" transform="translate(0,0)"/>
<path d="" fill="#000100" transform="translate(0,0)"/>
<path d="M0 0 C2 1 2 1 2 1 Z " fill="#FBFDFD" transform="translate(1225,87)"/>
<path d="M0 0 C2 1 2 1 2 1 Z " fill="#FBFDFD" transform="translate(970,87)"/>
<path d="M0 0 C2 1 2 1 2 1 Z " fill="#FBFDFD" transform="translate(566,87)"/>
<path d="" fill="#FBFDFD" transform="translate(0,0)"/>
<path d="M0 0 C2 1 2 1 2 1 Z " fill="#FBFDFD" transform="translate(86,79)"/>
<path d="M0 0 C2 1 2 1 2 1 Z " fill="#000100" transform="translate(990,74)"/>
<path d="M0 0 C2 1 2 1 2 1 Z " fill="#000100" transform="translate(1024,73)"/>
<path d="M0 0 C2 1 2 1 2 1 Z " fill="#000100" transform="translate(682,73)"/>
<path d="" fill="#000100" transform="translate(0,0)"/>
<path d="M0 0 C2 1 2 1 2 1 Z " fill="#000100" transform="translate(418,68)"/>
<path d="" fill="#FBFDFD" transform="translate(0,0)"/>
<path d="" fill="#FBFDFD" transform="translate(0,0)"/>
<path d="" fill="#C7C6C4" transform="translate(0,0)"/>
<path d="" fill="#FBFDFD" transform="translate(0,0)"/>
<path d="" fill="#000100" transform="translate(0,0)"/>
<path d="" fill="#000100" transform="translate(0,0)"/>
<path d="" fill="#000100" transform="translate(0,0)"/>
<path d="" fill="#000100" transform="translate(0,0)"/>
<path d="" fill="#000100" transform="translate(0,0)"/>
<path d="" fill="#000100" transform="translate(0,0)"/>
<path d="" fill="#FBFDFD" transform="translate(0,0)"/>
<path d="" fill="#000100" transform="translate(0,0)"/>
<path d="" fill="#FBFDFD" transform="translate(0,0)"/>
<path d="" fill="#000100" transform="translate(0,0)"/>
<path d="" fill="#FBFDFD" transform="translate(0,0)"/>
<path d="" fill="#000100" transform="translate(0,0)"/>
<path d="" fill="#000100" transform="translate(0,0)"/>
<path d="" fill="#000100" transform="translate(0,0)"/>
<path d="" fill="#000100" transform="translate(0,0)"/>
<path d="" fill="#000100" transform="translate(0,0)"/>
<path d="" fill="#000100" transform="translate(0,0)"/>
<path d="" fill="#FBFDFD" transform="translate(0,0)"/>
<path d="" fill="#000100" transform="translate(0,0)"/>
<path d="" fill="#C65B06" transform="translate(0,0)"/>
<path d="" fill="#000100" transform="translate(0,0)"/>
<path d="" fill="#000100" transform="translate(0,0)"/>
<path d="" fill="#FBFDFD" transform="translate(0,0)"/>
<path d="" fill="#C65B06" transform="translate(0,0)"/>
<path d="" fill="#000100" transform="translate(0,0)"/>
<path d="" fill="#000100" transform="translate(0,0)"/>
<path d="" fill="#000100" transform="translate(0,0)"/>
<path d="" fill="#000100" transform="translate(0,0)"/>
<path d="" fill="#000100" transform="translate(0,0)"/>
<path d="" fill="#000100" transform="translate(0,0)"/>
<path d="" fill="#000100" transform="translate(0,0)"/>
<path d="" fill="#FBFDFD" transform="translate(0,0)"/>
<path d="" fill="#C65B06" transform="translate(0,0)"/>
<path d="" fill="#C65B06" transform="translate(0,0)"/>
<path d="" fill="#FBFDFD" transform="translate(0,0)"/>
<path d="" fill="#FBFDFD" transform="translate(0,0)"/>
<path d="" fill="#C65B06" transform="translate(0,0)"/>
<path d="" fill="#000100" transform="translate(0,0)"/>
<path d="" fill="#000100" transform="translate(0,0)"/>
<path d="" fill="#FBFDFD" transform="translate(0,0)"/>
<path d="" fill="#000100" transform="translate(0,0)"/>
<path d="" fill="#FBFDFD" transform="translate(0,0)"/>
<path d="" fill="#000100" transform="translate(0,0)"/>
<path d="" fill="#000100" transform="translate(0,0)"/>
<path d="" fill="#C65B06" transform="translate(0,0)"/>
<path d="" fill="#000100" transform="translate(0,0)"/>
<path d="" fill="#000100" transform="translate(0,0)"/>
<path d="" fill="#000100" transform="translate(0,0)"/>
<path d="" fill="#000100" transform="translate(0,0)"/>
<path d="" fill="#000100" transform="translate(0,0)"/>
<path d="" fill="#000100" transform="translate(0,0)"/>
<path d="" fill="#000100" transform="translate(0,0)"/>
<path d="" fill="#000100" transform="translate(0,0)"/>
<path d="" fill="#000100" transform="translate(0,0)"/>
<path d="" fill="#FBFDFD" transform="translate(0,0)"/>
<path d="" fill="#C65B06" transform="translate(0,0)"/>
<path d="" fill="#C65B06" transform="translate(0,0)"/>
<path d="" fill="#000100" transform="translate(0,0)"/>
<path d="" fill="#000100" transform="translate(0,0)"/>
<path d="" fill="#000100" transform="translate(0,0)"/>
<path d="" fill="#FBFDFD" transform="translate(0,0)"/>
<path d="" fill="#000100" transform="translate(0,0)"/>
<path d="" fill="#000100" transform="translate(0,0)"/>
<path d="" fill="#FBFDFD" transform="translate(0,0)"/>
<path d="" fill="#535250" transform="translate(0,0)"/>
<path d="" fill="#000100" transform="translate(0,0)"/>
<path d="" fill="#000100" transform="translate(0,0)"/>
<path d="" fill="#000100" transform="translate(0,0)"/>
<path d="" fill="#FBFDFD" transform="translate(0,0)"/>
<path d="" fill="#FBFDFD" transform="translate(0,0)"/>
<path d="" fill="#FBFDFD" transform="translate(0,0)"/>
<path d="" fill="#FBFDFD" transform="translate(0,0)"/>
<path d="" fill="#000100" transform="translate(0,0)"/>
<path d="" fill="#000100" transform="translate(0,0)"/>
<path d="" fill="#FBFDFD" transform="translate(0,0)"/>
<path d="" fill="#FBFDFD" transform="translate(0,0)"/>
<path d="" fill="#FBFDFD" transform="translate(0,0)"/>
<path d="" fill="#FBFDFD" transform="translate(0,0)"/>
<path d="" fill="#FBFDFD" transform="translate(0,0)"/>
<path d="" fill="#000100" transform="translate(0,0)"/>
<path d="" fill="#000100" transform="translate(0,0)"/>
<path d="" fill="#000100" transform="translate(0,0)"/>
<path d="" fill="#000100" transform="translate(0,0)"/>
<path d="" fill="#000100" transform="translate(0,0)"/>
<path d="" fill="#FBFDFD" transform="translate(0,0)"/>
<path d="" fill="#000100" transform="translate(0,0)"/>
<path d="" fill="#000100" transform="translate(0,0)"/>
<path d="" fill="#000100" transform="translate(0,0)"/>
<path d="" fill="#000100" transform="translate(0,0)"/>
<path d="" fill="#2A2A28" transform="translate(0,0)"/>
<path d="" fill="#000100" transform="translate(0,0)"/>
<path d="" fill="#000100" transform="translate(0,0)"/>
<path d="" fill="#000100" transform="translate(0,0)"/>
<path d="" fill="#000100" transform="translate(0,0)"/>
<path d="" fill="#000100" transform="translate(0,0)"/>
<path d="" fill="#000100" transform="translate(0,0)"/>
<path d="" fill="#000100" transform="translate(0,0)"/>
<path d="" fill="#000100" transform="translate(0,0)"/>
<path d="" fill="#000100" transform="translate(0,0)"/>
<path d="" fill="#000100" transform="translate(0,0)"/>
<path d="" fill="#000100" transform="translate(0,0)"/>
<path d="" fill="#000100" transform="translate(0,0)"/>
<path d="" fill="#000100" transform="translate(0,0)"/>
<path d="" fill="#000100" transform="translate(0,0)"/>
<path d="" fill="#000100" transform="translate(0,0)"/>
<path d="" fill="#000100" transform="translate(0,0)"/>
<path d="" fill="#000100" transform="translate(0,0)"/>
<path d="" fill="#000100" transform="translate(0,0)"/>
<path d="" fill="#000100" transform="translate(0,0)"/>
<path d="" fill="#000100" transform="translate(0,0)"/>
<path d="" fill="#000100" transform="translate(0,0)"/>
<path d="" fill="#000100" transform="translate(0,0)"/>
<path d="" fill="#000100" transform="translate(0,0)"/>
<path d="" fill="#C65B06" transform="translate(0,0)"/>
<path d="" fill="#FBFDFD" transform="translate(0,0)"/>
<path d="" fill="#FBFDFD" transform="translate(0,0)"/>
<path d="" fill="#000100" transform="translate(0,0)"/>
<path d="" fill="#000100" transform="translate(0,0)"/>
<path d="" fill="#000100" transform="translate(0,0)"/>
<path d="" fill="#FBFDFD" transform="translate(0,0)"/>
<path d="" fill="#C65B06" transform="translate(0,0)"/>
<path d="" fill="#C65B06" transform="translate(0,0)"/>
</svg>
