<?xml version="1.0" encoding="UTF-8"?>
<!-- Generator: visioncortex VTracer 0.6.1 -->
<svg version="1.1" xmlns="http://www.w3.org/2000/svg" width="1280" height="1280">
<path d="M0 0 C0.6794165 0.10538086 1.35883301 0.21076172 2.05883789 0.31933594 C8.45685089 1.50130468 14.96816999 3.93369317 19 9.25 C23.07726347 14.50203915 23.07726347 14.50203915 29.0625 17.125 C29.94421875 17.37378906 30.8259375 17.62257813 31.734375 17.87890625 C32.70890625 18.14574219 33.6834375 18.41257812 34.6875 18.6875 C45.6404816 21.71398176 53.70281118 24.50762326 60.6875 33.6875 C62.95636319 36.2973484 65.0315523 37.44764856 68.25 38.6875 C69.57644531 39.20183594 69.57644531 39.20183594 70.9296875 39.7265625 C73.55890746 40.64269297 76.18169797 41.3624062 78.875 42.0625 C85.22150322 43.90278698 89.02522313 47.43991437 92.90625 52.6875 C95.84323226 56.24128708 99.0772352 57.46120144 103.375 58.875 C104.08325928 59.12636719 104.79151855 59.37773437 105.52124023 59.63671875 C109.39303339 60.99186841 113.28214492 62.1436489 117.25 63.1875 C122.02447006 64.57570726 125.54949031 66.79113797 128.6875 70.6875 C129.17180895 72.05356709 129.62974702 73.429236 130.0625 74.8125 C130.87009646 76.98257 130.87009646 76.98257 132.6875 78.6875 C136.84165506 80.09775004 140.96622193 80.9340997 145.265625 81.76171875 C153.54410905 83.375774 163.14745384 86.47576537 168.09375 93.7578125 C168.82507791 95.13166421 169.55423362 96.50667435 170.28125 97.8828125 C173.19292357 101.61946025 177.93220351 102.03788748 182.35986328 103.03051758 C192.15733519 105.24444689 200.0448487 107.82769919 206.3984375 116.0390625 C210.78925069 121.65398118 215.83845457 123.55489665 222.6875 125.125 C228.36079132 126.50140196 232.56790539 127.91919911 236.24462891 132.72119141 C241.73304488 139.81058205 247.35723462 141.99317694 255.8125 144.4375 C270.14320552 148.74471764 270.14320552 148.74471764 274.6875 153.6875 C275.83984375 156.00390625 275.83984375 156.00390625 276.625 158.25 C278.3507044 161.60184892 279.28492974 162.52706977 282.84375 163.9453125 C285.43459075 164.58231673 288.01522822 165.182126 290.62109375 165.74609375 C301.03260658 168.01357837 309.34952871 171.97046618 315.6875 180.6875 C317.82027763 183.1234647 319.41193586 184.14409366 322.53125 184.9765625 C323.27810059 185.19127197 324.02495117 185.40598145 324.79443359 185.62719727 C325.97900146 185.96642212 325.97900146 185.96642212 327.1875 186.3125 C336.56321605 189.20389215 343.56097775 193.29758923 349.65234375 201.25390625 C351.86127279 203.89529357 353.92178382 205.31528696 356.875 207.0625 C371.74292149 216.26833688 379.25687742 225.75226908 383.6875 242.6875 C384.09561341 245.0191729 384.40374391 247.33594689 384.6875 249.6875 C385.739375 249.9659375 385.739375 249.9659375 386.8125 250.25 C392.06663692 252.87706846 394.88590547 257.05568257 397.4375 262.25 C401.67574236 275.41449145 400.96820098 289.5689116 400.91796875 303.2109375 C400.91677391 305.36894707 400.91632443 307.52695716 400.9165802 309.68496704 C400.91502549 314.18145052 400.90681111 318.67785323 400.89331055 323.17431641 C400.8762607 328.92389257 400.87249861 334.67338086 400.87325573 340.42297935 C400.87298337 344.86858959 400.86749255 349.31418081 400.86025429 353.7597847 C400.85708472 355.87997926 400.85510424 358.00017597 400.85436058 360.12037277 C400.85218224 363.082076 400.84340768 366.0436877 400.83276367 369.00537109 C400.83321686 369.87098663 400.83367004 370.73660217 400.83413696 371.62844849 C400.82987198 372.44380066 400.82560699 373.25915283 400.82121277 374.09921265 C400.81953692 374.79634054 400.81786108 375.49346844 400.81613445 376.21172142 C400.70706346 378.31096947 400.46160242 380.40243065 400.18707943 382.48650742 C399.66613949 386.49176031 399.54723881 390.45595358 399.56051636 394.4916687 C399.55895637 395.23465497 399.55739638 395.97764124 399.55578911 396.74314225 C399.55182956 399.21012988 399.55494908 401.67705498 399.55810547 404.14404297 C399.55674917 405.92207881 399.55496794 407.70011438 399.55279541 409.47814941 C399.54824769 414.29225021 399.54999987 419.1063295 399.5531745 423.92043066 C399.55571264 428.96861166 399.55335643 434.01679085 399.55178833 439.06497192 C399.54997055 447.54348072 399.55236234 456.02198081 399.55712891 464.50048828 C399.56256726 474.28660878 399.56081039 484.07270843 399.5553025 493.85882843 C399.55075604 502.27521406 399.55012843 510.69159343 399.55274117 519.10797989 C399.55429596 524.12834459 399.5545197 529.14869951 399.55120468 534.16906357 C399.54830381 538.89195475 399.55034224 543.61481921 399.55609894 548.33770752 C399.55741483 550.06539999 399.55705244 551.79309473 399.55483627 553.52078629 C399.54583142 561.25760893 399.54183756 568.92128408 400.45885658 576.61654854 C400.81290669 579.8233786 400.83059396 583.01427449 400.84863281 586.23828125 C400.85359772 586.9228389 400.85856262 587.60739655 400.86367798 588.31269836 C400.87808949 590.54180977 400.88506775 592.77084997 400.890625 595 C400.89345238 595.77373962 400.89627975 596.54747925 400.89919281 597.34466553 C400.91410369 601.44381031 400.92338286 605.54292067 400.92773438 609.64208984 C400.93319144 613.81927184 400.95718419 617.99612338 400.98570633 622.17320251 C401.0045743 625.43541303 401.00955105 628.69754795 401.01107025 631.95980835 C401.01404581 633.49679357 401.02189502 635.0337792 401.03525543 636.57070923 C401.17082282 653.37129416 400.44246413 674.48466455 389.15234375 687.87109375 C385.04229846 692.96754991 383.22293869 698.5545188 381.1875 704.6875 C376.60871159 718.48384937 376.60871159 718.48384937 372.09375 721.3125 C370.15625 722.22916667 368.21875 723.14583333 366.28125 724.0625 C362.16541337 726.64109644 360.7766491 730.38056871 358.875 734.6875 C355.19732043 742.04285914 349.04156674 744.82991978 341.6875 747.6875 C340.6975 748.0175 339.7075 748.3475 338.6875 748.6875 C338.56375 749.739375 338.56375 749.739375 338.4375 750.8125 C337.29028347 755.21016335 335.64796628 758.35891955 331.796875 760.96875 C327.85478142 763.06047313 323.86324042 764.66457297 319.60546875 765.98046875 C310.72950534 768.75711824 305.21890492 771.27035965 298.875 778.41796875 C294.39073981 783.0703887 288.66930222 784.42496302 282.625 786.1875 C275.15328483 788.36868393 270.69798941 790.07749141 266.390625 796.75390625 C259.56424575 804.50403866 248.72438064 807.65772766 238.96484375 809.60546875 C233.92468601 811.26950176 231.5543847 814.49862955 228.5 818.6875 C221.55024322 827.0788472 207.721963 829.8501254 197.5 831.625 C196.241875 831.975625 194.98375 832.32625 193.6875 832.6875 C192.31965742 834.93891979 192.31965742 834.93891979 191.6875 837.6875 C186.96199303 845.61960098 177.61453596 848.0655911 169.234375 850.82421875 C161.64922354 853.38555544 157.42222417 856.50531599 152.015625 862.3828125 C146.79855153 867.5473651 139.87810042 869.01078651 132.98828125 870.9609375 C130.04950339 871.88897261 127.41078773 873.25777394 124.6875 874.6875 C124.0275 874.6875 123.3675 874.6875 122.6875 874.6875 C122.33171875 875.79931641 122.33171875 875.79931641 121.96875 876.93359375 C119.04137158 883.22567236 112.05448452 887.37392237 105.8125 890 C102.05534991 891.36515722 98.27369298 892.25650291 94.375 893.125 C87.88877178 894.66776017 85.38177282 897.36392585 81.5 902.6875 C73.87056443 911.92812073 57.91193712 914.80020526 46.6875 916.6875 C46.501875 917.55375 46.31625 918.42 46.125 919.3125 C43.90635736 924.52148707 40.50314729 927.42664455 35.3371582 929.73999023 C27.19572238 932.695993 18.9503624 934.56915123 10.4765625 936.31054688 C4.41113009 937.66128334 0.71977328 938.66498279 -3.3125 943.6875 C-13.60101137 951.60331292 -26.77668607 950.85370015 -39.125 950.9375 C-40.18654297 950.94692627 -41.24808594 950.95635254 -42.34179688 950.96606445 C-58.47720223 950.89904435 -58.47720223 950.89904435 -64.6875 945.75 C-65.31398438 945.24597656 -65.94046875 944.74195313 -66.5859375 944.22265625 C-69.90699789 941.26976771 -69.90699789 941.26976771 -71.3125 939.6875 C-71.3125 939.0275 -71.3125 938.3675 -71.3125 937.6875 C-72.03050781 937.58953125 -72.74851562 937.4915625 -73.48828125 937.390625 C-80.39922241 936.39228232 -87.27135814 935.20908793 -94.125 933.875 C-94.91237549 933.73416992 -95.69975098 933.59333984 -96.51098633 933.44824219 C-103.54545519 932.03054551 -109.23281517 929.36919886 -113.6875 923.625 C-115.3125 920.6875 -115.3125 920.6875 -115.98828125 918.62109375 C-118.06553374 915.58793746 -120.60908576 915.5728934 -124.125 914.8125 C-133.99304225 912.47285173 -144.09092138 909.09424731 -151.3125 901.6875 C-151.93125 900.65625 -152.55 899.625 -153.1875 898.5625 C-156.47083461 894.12034142 -160.89481876 893.28932623 -166.04296875 892.0078125 C-175.74344889 889.31679423 -183.01058931 883.55516898 -189.71728516 876.1328125 C-191.58862788 874.43731986 -193.16571056 873.8141208 -195.55078125 873.00390625 C-196.78151367 872.57174805 -196.78151367 872.57174805 -198.03710938 872.13085938 C-198.89111328 871.84017578 -199.74511719 871.54949219 -200.625 871.25 C-209.28183193 868.30257061 -215.49816017 865.940654 -220.3125 857.6875 C-220.53808594 857.00429687 -220.76367188 856.32109375 -220.99609375 855.6171875 C-223.06500726 852.58441814 -225.61522215 852.57156627 -229.125 851.8125 C-238.98931792 849.47373474 -249.09402166 846.0959383 -256.3125 838.6875 C-256.8075 837.82125 -257.3025 836.955 -257.8125 836.0625 C-260.3532105 832.03970838 -264.27602174 830.95425801 -268.7578125 829.80078125 C-269.97210938 829.53652344 -271.18640625 829.27226563 -272.4375 829 C-282.82946302 826.47065731 -290.3630895 821.61767421 -296.3125 812.6875 C-300.7560606 809.57879934 -306.15592585 808.43765278 -311.375 807.25 C-319.17995761 805.38037137 -323.85653432 802.71295462 -328.625 796.25 C-334.97294251 788.66528142 -346.16102791 787.10349924 -355.41796875 784.97265625 C-363.21210181 783.07678605 -368.39729293 778.14323668 -373.62817383 772.19018555 C-375.73576748 770.30987841 -377.76093247 769.51393639 -380.390625 768.48828125 C-381.88529297 767.88016602 -381.88529297 767.88016602 -383.41015625 767.25976562 C-385.49154662 766.42798323 -387.57746034 765.607421 -389.66796875 764.79882812 C-396.41344517 762.02510906 -401.38885444 758.99290872 -405.3125 752.6875 C-405.48934326 751.97029785 -405.66618652 751.2530957 -405.84838867 750.51416016 C-406.00154541 749.9113623 -406.15470215 749.30856445 -406.3125 748.6875 C-408.59158892 747.45123004 -408.59158892 747.45123004 -411.3125 746.6875 C-418.33038081 744.34079184 -423.38863886 742.20676772 -427.3125 735.6875 C-429.31207667 731.45688441 -430.8345962 727.12121141 -432.3125 722.6875 C-433.17875 722.460625 -434.045 722.23375 -434.9375 722 C-441.12223092 719.59482686 -444.1574837 715.08928623 -446.984375 709.2109375 C-449.40022204 703.50664949 -451.35374544 697.81098592 -452.6875 691.75 C-453.70879713 687.61009911 -455.02110979 685.65398076 -458.1875 682.8125 C-466.76931927 675.05100169 -468.51943988 662.73876737 -469.3125 651.6875 C-469.60191842 644.11614877 -469.55903337 636.53936949 -469.51831055 628.96386719 C-469.4999692 625.4315675 -469.49780205 621.89953006 -469.49804688 618.3671875 C-469.49313298 616.09374776 -469.48730523 613.82030977 -469.48046875 611.546875 C-469.47935593 610.50497009 -469.4782431 609.46306519 -469.47709656 608.3895874 C-469.44815006 603.87448214 -469.33472853 599.44484339 -468.81298828 594.95825195 C-468.10577208 588.57204805 -468.15985683 582.17339409 -468.14383507 575.75637627 C-468.13656379 573.44687681 -468.12082436 571.13757718 -468.10249329 568.82814026 C-468.05049388 562.26932369 -468.00204469 555.71063005 -467.98657227 549.15161133 C-467.97644509 545.11980662 -467.94701909 541.08852832 -467.90525246 537.05693245 C-467.89302283 535.53210506 -467.88780636 534.00720319 -467.89005089 532.48232841 C-467.90130961 522.3460879 -467.34813937 513.48547376 -460.1875 505.6875 C-459.44113281 504.8521875 -459.44113281 504.8521875 -458.6796875 504 C-456.83819876 502.23217081 -455.72661384 501.70392711 -453.16455078 501.60229492 C-425.47220373 502.286842 -425.47220373 502.286842 -418.08203125 508.58984375 C-415.10406395 511.78179672 -413.11771301 514.34129004 -412.3125 518.6875 C-411.64347656 518.81125 -410.97445312 518.935 -410.28515625 519.0625 C-403.65400568 520.48663972 -397.59194671 522.64118084 -391.4375 525.4375 C-390.724729 525.74816406 -390.01195801 526.05882812 -389.27758789 526.37890625 C-383.96365192 528.88104798 -380.87334563 532.08216665 -377.3125 536.6875 C-374.06594573 540.54773221 -370.80053975 541.77160973 -366.0625 543.125 C-356.09223506 546.22717911 -347.88589667 551.22367901 -340.9921875 559.21875 C-338.52133952 561.37930544 -335.78163743 562.33120928 -332.75 563.5625 C-314.36038512 571.23080244 -314.36038512 571.23080244 -309.6171875 579.72265625 C-306.81062672 583.3331302 -305.2186356 583.73482203 -300.8125 584.6875 C-290.36643295 587.33166072 -281.69439741 590.74847246 -275.3125 599.6875 C-271.05927425 605.00403219 -264.66029115 606.58201282 -258.390625 608.65234375 C-252.76630764 610.54485054 -249.2654441 612.09353794 -245.3125 616.6875 C-238.84956636 623.2856581 -231.83902227 626.4097697 -223.35742188 629.77148438 C-216.64513018 632.6018572 -212.62671111 635.83095068 -208.3125 641.6875 C-204.26944833 646.88570929 -200.47700261 647.52877448 -194.3046875 648.89453125 C-185.91404445 651.1181612 -178.52922532 657.82572322 -172.93359375 664.27734375 C-170.59689562 666.30998959 -168.09086282 667.07827936 -165.1875 668.125 C-164.02992188 668.55683594 -162.87234375 668.98867188 -161.6796875 669.43359375 C-160.56851562 669.84738281 -159.45734375 670.26117187 -158.3125 670.6875 C-151.1872551 673.43996341 -146.07078547 675.91914593 -142.67578125 683.1953125 C-141.03342606 686.10663922 -139.8153019 687.23591028 -136.625 688.25390625 C-135.19310734 688.60934178 -133.75500765 688.94044763 -132.3125 689.25 C-122.72080765 691.69028922 -113.27665972 694.27923029 -107.3125 702.6875 C-106.9 703.533125 -106.4875 704.37875 -106.0625 705.25 C-102.23524394 710.58082095 -95.71445766 711.90497784 -89.6875 713.625 C-83.67523406 715.4141172 -79.816997 717.11551248 -76.12109375 722.38671875 C-69.54121395 731.44141901 -57.55419792 732.96251256 -47.125 734.625 C-33.05937289 736.59693578 -18.83224366 735.05731092 -5.3125 730.6875 C-4.08466797 730.29111328 -4.08466797 730.29111328 -2.83203125 729.88671875 C2.56533132 727.83445526 5.23933886 725.08752463 8.8203125 720.6484375 C13.96034411 715.25032899 21.4099188 713.39674457 28.37109375 711.4140625 C33.63730685 709.76226548 37.23285367 707.59669727 40.25 702.875 C45.86459494 694.89244592 56.07014149 691.7903598 65.25 690.0625 C66.36503906 689.90523437 67.48007812 689.74796875 68.62890625 689.5859375 C73.91645232 688.03276305 76.54627238 683.92496374 79.75 679.6875 C85.16282997 673.52288809 92.4378236 671.38527695 100.25390625 669.625 C108.89059717 667.99290237 108.89059717 667.99290237 115.9609375 663.2890625 C117.47347854 660.70178704 117.47347854 660.70178704 118.421875 658.08984375 C120.64040955 653.87873649 123.92088736 652.29362165 128.26269531 650.80395508 C130.25255472 650.20863376 132.24576374 649.62442585 134.24169922 649.04980469 C144.50996577 646.07836132 151.17609939 643.80765535 157.67578125 635.109375 C160.94188661 631.17736467 164.88354541 630.02405334 169.6875 628.6875 C177.4375691 626.5719551 177.4375691 626.5719551 182.6875 620.6875 C182.98785156 620.11386719 183.28820312 619.54023437 183.59765625 618.94921875 C185.95499906 614.49221837 188.08626991 612.12896903 192.6875 609.6875 C193.595 609.5225 194.5025 609.3575 195.4375 609.1875 C196.18 609.0225 196.9225 608.8575 197.6875 608.6875 C199.67509702 605.40364406 200.40666776 602.09523084 201.14944839 598.37188625 C201.48859507 596.67985401 201.84143219 594.99045376 202.2135582 593.30536747 C204.20924678 583.21487788 203.96870341 573.12894421 203.94628906 562.89038086 C203.94900324 560.80123778 203.95256657 558.71209565 203.95690918 556.62295532 C203.96598856 550.975852 203.96250628 545.32882216 203.95615101 539.68171763 C203.9510632 533.74757242 203.9557906 527.8134332 203.95892334 521.87928772 C203.96255689 511.90885294 203.957782 501.93844784 203.94824219 491.96801758 C203.93737975 480.48354419 203.94086961 468.99914195 203.951895 457.51467031 C203.96101035 447.61951498 203.96223186 437.72438092 203.95701766 427.82922274 C203.95391852 421.93504045 203.95343108 416.04089143 203.96009064 410.14671135 C203.96592479 404.59555281 203.96175773 399.04448464 203.95030212 393.49333572 C203.94768676 391.47109819 203.94836618 389.44885288 203.95282745 387.42661858 C204.56407402 357.60152407 204.56407402 357.60152407 195.6875 329.6875 C192.74818718 327.55672156 190.59976013 327.01236316 187.046875 326.3671875 C183.10623307 325.56989483 179.89871675 324.03024171 176.4375 322.0625 C175.5417627 321.55493164 175.5417627 321.55493164 174.62792969 321.03710938 C169.731329 318.07459776 166.891642 314.4523493 163.59375 309.8828125 C160.32910791 306.12312223 156.36266088 305.03093704 151.6875 303.6875 C138.4875 299.82083333 138.4875 299.82083333 133.6875 293.6875 C133.6875 293.0275 133.6875 292.3675 133.6875 291.6875 C132.8521875 291.2853125 132.8521875 291.2853125 132 290.875 C129.6875 289.6875 129.6875 289.6875 127.66015625 288.32421875 C122.78133953 285.63798458 117.46042067 284.15733141 112.16796875 282.46875 C106.81384625 280.68135873 101.65503643 278.85943697 97.6875 274.6875 C96.70556641 272.69824219 96.70556641 272.69824219 95.84375 270.5703125 C94.72485696 268.04450628 94.13941499 266.93947819 91.703125 265.58105469 C89.21509965 264.76235429 86.74281777 264.13695128 84.1875 263.5625 C82.37820585 263.08301428 80.57088034 262.59603699 78.765625 262.1015625 C77.89228516 261.86598633 77.01894531 261.63041016 76.11914062 261.38769531 C66.62947774 258.65512973 61.38653897 254.76395487 55.6640625 246.88671875 C52.31548266 243.16092735 48.43779542 242.66086501 43.6875 241.6875 C34.05503943 239.09366095 26.46825285 235.6621748 20.3125 227.5625 C14.99210981 221.73540598 7.35545472 219.82668548 -0.0625 217.75 C-5.83338759 216.06481829 -9.21065497 214.07552026 -13.3125 209.6875 C-13.3125 209.0275 -13.3125 208.3675 -13.3125 207.6875 C-14.6325 207.0275 -15.9525 206.3675 -17.3125 205.6875 C-17.3125 205.0275 -17.3125 204.3675 -17.3125 203.6875 C-20.63742327 202.97253738 -23.9704461 202.3173667 -27.3125 201.6875 C-28.05371094 201.53539062 -28.79492188 201.38328125 -29.55859375 201.2265625 C-35.36610487 200.26752397 -40.08863026 201.37623003 -45.7109375 202.99609375 C-48.3125 203.6875 -48.3125 203.6875 -51.3125 203.6875 C-51.9725 205.0075 -52.6325 206.3275 -53.3125 207.6875 C-53.9725 207.6875 -54.6325 207.6875 -55.3125 207.6875 C-55.498125 208.244375 -55.68375 208.80125 -55.875 209.375 C-60.05919619 216.10609822 -67.14063512 217.8310335 -74.36181641 219.81225586 C-80.82921427 221.63263306 -86.48636317 224.00713305 -90.625 229.5625 C-97.44778824 237.66550236 -105.8435146 240.44946083 -115.89453125 242.73046875 C-121.05515 244.175442 -124.12368166 245.89630891 -126.875 250.5 C-133.35873976 259.51438308 -147.04242127 263.18384932 -157.546875 265.09375 C-159.61262969 265.41443084 -159.61262969 265.41443084 -162.3125 266.6875 C-163.41297376 268.56656982 -164.21212897 270.49591433 -165.05761719 272.5012207 C-169.1556721 279.64092533 -178.59240614 282.09940824 -186 284.25 C-193.25691435 286.17134842 -193.25691435 286.17134842 -199.3046875 290.3515625 C-203.64071861 293.71902562 -207.39263681 293.56781472 -212.75 293.5 C-213.69415771 293.49154053 -214.63831543 293.48308105 -215.61108398 293.47436523 C-219.603442 293.30966342 -222.5456262 293.09564012 -226.1015625 291.203125 C-227.9931115 289.11992125 -229.13995607 287.2407569 -230.3125 284.6875 C-230.90804687 283.57181641 -230.90804687 283.57181641 -231.515625 282.43359375 C-236.22724615 272.89421994 -236.6153936 263.75828352 -236.61889648 253.29199219 C-236.62652867 251.84231647 -236.63495797 250.39264477 -236.64411926 248.94297791 C-236.66596685 245.02334145 -236.67484998 241.10378297 -236.67994571 237.18409252 C-236.68360087 234.72959419 -236.68984689 232.27511593 -236.6969471 229.82062531 C-236.72140784 221.2415732 -236.73448616 212.66258127 -236.73803711 204.08349609 C-236.74166967 196.11270169 -236.77155356 188.14229294 -236.81344169 180.17161632 C-236.84824127 173.3067675 -236.86358721 166.44204592 -236.86428314 159.57710958 C-236.86507268 155.48655496 -236.87366102 151.39639379 -236.90228081 147.30593109 C-236.92862825 143.45448568 -236.93057518 139.6037553 -236.91462517 135.75226021 C-236.91282381 134.34790284 -236.91938125 132.94350273 -236.93544388 131.53923607 C-237.06285163 119.66606337 -234.7858838 109.38386758 -226.3125 100.6875 C-225.8278125 100.2646875 -225.343125 99.841875 -224.84375 99.40625 C-222.08030203 96.30442064 -220.71078212 92.35256466 -219.0078125 88.59765625 C-216.11562707 83.63296007 -212.5471884 81.53350086 -207.1875 79.8125 C-203.07962931 78.29466319 -203.07962931 78.29466319 -200.5 74.75 C-200.108125 73.739375 -199.71625 72.72875 -199.3125 71.6875 C-194.14142366 65.29969981 -187.08751388 63.29387273 -179.5625 60.6875 C-174.04808952 58.70599874 -170.70815104 56.52178423 -167.125 51.8125 C-160.50824145 43.77930996 -150.70166193 41.34111755 -141.0703125 38.765625 C-135.27407088 37.17487535 -135.27407088 37.17487535 -131.4375 32.875 C-127.45740833 26.9048625 -122.7862843 24.12635887 -116.1875 21.5625 C-115.5387793 21.30879639 -114.89005859 21.05509277 -114.22167969 20.79370117 C-109.14656028 18.86413729 -104.03006919 17.49553644 -98.703125 16.42578125 C-95.27436363 15.36689906 -93.98513376 13.55639294 -91.83984375 10.78515625 C-85.89280882 3.17236706 -79.50665917 0.97782671 -70.15429688 -0.24145508 C-66.21371515 -0.68844266 -62.2661913 -1.00724581 -58.3125 -1.3125 C-57.58450195 -1.37566406 -56.85650391 -1.43882812 -56.10644531 -1.50390625 C-37.60985072 -3.07523918 -18.34542264 -2.93084371 0 0 Z " fill="#FEFEFE" transform="translate(674.3125,310.3125)"/>
<path d="M0 0 C1.26239502 0.13607666 2.52479004 0.27215332 3.82543945 0.41235352 C6.41636938 0.69452434 9.00695014 0.97992018 11.59716797 1.26855469 C14.03041154 1.53839093 16.46429907 1.80251259 18.89892578 2.05957031 C22.12192562 2.40011723 25.34223416 2.75960696 28.5625 3.125 C29.98393311 3.27159058 29.98393311 3.27159058 31.43408203 3.42114258 C40.89056465 4.54514493 49.90590189 7.33625214 56.375 14.6875 C56.7771875 15.6775 56.7771875 15.6775 57.1875 16.6875 C59.49919724 20.58088482 63.63097586 21.49601079 67.8203125 22.57421875 C69.03460937 22.83847656 70.24890625 23.10273437 71.5 23.375 C81.10909931 25.70306984 89.59423111 30.46987304 95.375 38.6875 C95.375 39.3475 95.375 40.0075 95.375 40.6875 C96.20902344 40.95820312 97.04304687 41.22890625 97.90234375 41.5078125 C101.61800325 42.77005004 105.28380535 44.1332714 108.9375 45.5625 C109.58396484 45.80613281 110.23042969 46.04976562 110.89648438 46.30078125 C115.67299723 48.17640074 120.14017092 50.0897855 122.4296875 54.90625 C122.70039062 55.6590625 122.97109375 56.411875 123.25 57.1875 C125.00808187 60.57650688 125.9627194 61.52470461 129.5703125 62.94921875 C132.16914478 63.58158348 134.75783319 64.17364259 137.37109375 64.734375 C145.80100226 66.58191469 154.31309827 70.47016489 160.375 76.6875 C161.2721875 78.234375 161.2721875 78.234375 162.1875 79.8125 C165.29463442 83.89616238 168.54774586 84.40503547 173.375 85.6875 C183.8075808 88.67229832 193.92093382 92.49941968 200.375 101.6875 C200.375 102.3475 200.375 103.0075 200.375 103.6875 C201.2 103.955625 202.025 104.22375 202.875 104.5 C206.01434511 105.56513495 209.0921527 106.72246445 212.1796875 107.92578125 C214.38220453 108.73497491 214.38220453 108.73497491 216.7578125 109.23046875 C224.88519355 111.12855617 230.26511328 115.92383859 235.66113281 122.17822266 C237.90597555 124.15509129 240.12628345 124.94558261 242.92578125 125.9921875 C244.01697266 126.41113281 245.10816406 126.83007812 246.23242188 127.26171875 C248.52296915 128.1240729 250.81462714 128.98348295 253.10742188 129.83984375 C261.07883829 132.90829951 267.45547736 135.63070345 271.375 143.6875 C271.375 144.3475 271.375 145.0075 271.375 145.6875 C272.37917969 145.91824219 273.38335938 146.14898437 274.41796875 146.38671875 C300.31738329 152.49155801 300.31738329 152.49155801 307.375 160.6875 C308.303125 162.2653125 308.303125 162.2653125 309.25 163.875 C312.30532907 167.91881789 315.60744649 168.42089623 320.375 169.6875 C329.5690568 172.31795222 339.9306634 175.46880819 345.4375 183.8125 C349.27675569 189.50946006 356.4537899 191.35801192 362.6875 193.6875 C369.58264552 196.40671232 372.35671919 200.42065435 375.42578125 206.8984375 C377.04691167 209.95390142 379.15449663 211.12992267 382.23046875 212.53515625 C388.62260545 215.49736594 392.07463657 218.43659142 394.71875 225.046875 C395.59518796 227.50293951 396.44426639 229.96899103 397.26171875 232.4453125 C399.22841405 238.2206947 399.22841405 238.2206947 403.75 242 C411.2027924 247.17984534 412.14269521 254.16460164 413.76171875 262.67578125 C415.28318281 272.08606422 415.53230098 281.40601049 415.55200195 290.92700195 C415.55828153 292.33593914 415.56492959 293.74487473 415.57191467 295.15380859 C415.59277039 299.74445482 415.60329584 304.3351007 415.61328125 308.92578125 C415.61733497 310.51600854 415.62145206 312.10623567 415.62563133 313.69646263 C415.64463805 321.16781807 415.65888149 328.63916388 415.6672433 336.11053878 C415.67701542 344.69643162 415.70335329 353.28206666 415.74374419 361.86786872 C415.77400742 368.53233937 415.78872157 375.19673646 415.79202431 381.86127442 C415.79436197 385.82938443 415.80315433 389.79721758 415.82848549 393.76525307 C415.85195313 397.50091049 415.85592557 401.2361123 415.84572411 404.97182465 C415.84500155 406.97433409 415.86395696 408.97682142 415.88378906 410.97923279 C415.81148713 423.71852877 413.18867549 434.23989425 404.375 443.6875 C403.89160156 444.28304688 403.40820312 444.87859375 402.91015625 445.4921875 C401.375 446.6875 401.375 446.6875 399.41015625 446.57421875 C397.04657286 445.54440411 395.68455621 444.27044147 393.8125 442.5 C388.56195678 438.22080728 382.81324277 436.64244772 376.37866211 434.90551758 C368.40527291 432.6856489 362.88205725 429.70445223 357.63671875 423.20703125 C353.03108942 417.77547182 347.76550324 415.76590527 341.1875 413.375 C325.99432978 407.63739795 325.99432978 407.63739795 323.2578125 402.65234375 C323.00773438 401.98332031 322.75765625 401.31429688 322.5 400.625 C321.02257078 397.49053251 320.55329619 396.79371901 317.4375 394.9375 C315.1231301 394.14456813 312.77742979 393.52330634 310.41796875 392.875 C300.50267661 390.05214103 291.49042247 386.37337718 285.375 377.6875 C285.375 377.0275 285.375 376.3675 285.375 375.6875 C284.611875 375.44 283.84875 375.1925 283.0625 374.9375 C259.64223158 366.99842596 259.64223158 366.99842596 254.375 358.6875 C253.71484375 356.46875 253.71484375 356.46875 253.375 354.6875 C252.6221875 354.55214844 251.869375 354.41679687 251.09375 354.27734375 C238.20552668 351.66528878 225.1409452 347.94455818 217.375 336.6875 C213.27610901 331.38305284 208.81772609 330.46628575 202.59375 328.70703125 C194.59584968 326.17371574 187.48770568 320.44393353 182.02734375 314.12890625 C179.67552242 312.07731743 177.17666806 311.30512265 174.25 310.25 C172.51363281 309.60224609 172.51363281 309.60224609 170.7421875 308.94140625 C169.63101563 308.52761719 168.51984375 308.11382812 167.375 307.6875 C160.2497551 304.93503659 155.13328547 302.45585407 151.73828125 295.1796875 C150.09592606 292.26836078 148.8778019 291.13908972 145.6875 290.12109375 C144.25557809 289.76577608 142.817482 289.43467191 141.375 289.125 C139.84675678 288.73509199 138.32068759 288.33656685 136.796875 287.9296875 C136.04728516 287.72956055 135.29769531 287.52943359 134.52539062 287.32324219 C126.71876811 285.01528975 119.86586567 281.57349403 115.375 274.6875 C115.07464844 274.00945312 114.77429688 273.33140625 114.46484375 272.6328125 C111.61755067 267.55054744 103.96391546 266.23373137 98.75 264.75 C92.78529378 262.97503552 88.90170806 261.29507461 85.23413086 256.05859375 C80.8333729 250.00469475 75.29700977 248.2864368 68.375 246 C51.01626889 240.07748606 51.01626889 240.07748606 46.375 231.6875 C46.375 230.6975 46.375 229.7075 46.375 228.6875 C45.62476563 228.51734375 44.87453125 228.3471875 44.1015625 228.171875 C30.72078587 225.00363066 18.86378177 221.11091112 10.765625 209.453125 C7.62782325 205.46917447 3.43599469 204.52238372 -1.38354492 203.8815918 C-6.34813098 203.45169898 -11.33333699 203.54541882 -16.3125 203.5625 C-17.42044922 203.55863281 -18.52839844 203.55476562 -19.66992188 203.55078125 C-35.03906085 202.93006939 -35.03906085 202.93006939 -48.625 208.6875 C-50.00072494 210.66968356 -51.2004988 212.70992605 -52.41015625 214.796875 C-56.63722678 221.37533846 -65.51524538 222.87328675 -72.625 224.6875 C-74.64207554 225.04286567 -76.66286342 225.37810513 -78.6875 225.6875 C-81.77997722 226.21559307 -83.38816083 226.52545215 -86 228.3125 C-87.5992883 230.5532886 -87.5992883 230.5532886 -88.609375 232.55078125 C-92.96999393 240.48053691 -99.82294555 242.97845093 -108.2734375 245.4609375 C-111.15580746 246.28109202 -114.04123252 247.0732325 -116.94140625 247.828125 C-122.00004767 249.14274415 -122.00004767 249.14274415 -125.96582031 252.29785156 C-126.89802749 254.0710613 -127.76233042 255.87943911 -128.625 257.6875 C-132.89056825 261.93489112 -137.05447199 263.96405759 -142.625 265.875 C-143.31078125 266.12185547 -143.9965625 266.36871094 -144.703125 266.62304688 C-147.79521783 267.72947322 -150.81335319 268.7356783 -154 269.55078125 C-156.82884522 270.43104786 -156.82884522 270.43104786 -157.74609375 273.08984375 C-158.18115234 274.37568359 -158.18115234 274.37568359 -158.625 275.6875 C-166.22129649 283.41227508 -175.47286355 286.67361909 -185.828125 288.87890625 C-190.67902805 290.28133213 -193.60465416 292.17820844 -196.1875 296.5 C-203.0758315 306.07688945 -216.983902 308.77260014 -227.8515625 311.49609375 C-230.75225365 312.44307676 -230.75225365 312.44307676 -232.09375 314.89453125 C-232.4340625 315.75433594 -232.774375 316.61414063 -233.125 317.5 C-235.64568206 323.0264165 -238.29625739 326.41037071 -244.16015625 328.66015625 C-245.91035139 329.28216805 -247.67476389 329.86614093 -249.453125 330.40234375 C-251.846679 331.54512794 -251.846679 331.54512794 -252.82421875 334.21875 C-253.82247698 338.54291246 -254.55446571 342.8589526 -255.1875 347.25 C-255.31318359 348.06791016 -255.43886719 348.88582031 -255.56835938 349.72851562 C-257.30088929 361.4571082 -257.80626905 373.15495701 -257.8125 385 C-257.82474609 386.15177734 -257.83699219 387.30355469 -257.84960938 388.49023438 C-257.86317462 397.16746698 -257.37186944 405.75987707 -256.76933479 414.41574669 C-255.59140365 431.47274956 -255.31301323 448.46304157 -255.36425781 465.55712891 C-255.37581215 469.45805785 -255.36894388 473.35871612 -255.35711288 477.25963593 C-255.34981674 480.34330214 -255.35221468 483.42690604 -255.35736847 486.51057434 C-255.35867528 487.94871557 -255.35716546 489.38686299 -255.35240936 490.82499695 C-255.33119545 499.00856283 -255.79205317 506.92499059 -256.90395355 515.01724529 C-257.66793359 520.65889562 -257.9166105 526.17714313 -257.890625 531.86328125 C-257.89349518 533.32655098 -257.89349518 533.32655098 -257.89642334 534.81938171 C-257.89776714 536.85672264 -257.89419919 538.89407267 -257.88574219 540.93139648 C-257.87505228 543.98506693 -257.88568226 547.03814451 -257.8984375 550.09179688 C-258.24416157 579.24402415 -258.24416157 579.24402415 -249.625 606.6875 C-247.07734071 608.75800571 -245.3368971 609.37360499 -242.15625 610.05859375 C-235.45213375 611.72427695 -231.08827241 618.12152649 -227.625 623.6875 C-224.80674694 626.92723889 -222.53058737 628.36902115 -218.44921875 629.65234375 C-217.45599609 629.97783203 -216.46277344 630.30332031 -215.43945312 630.63867188 C-213.36659665 631.29250855 -211.29368065 631.94615657 -209.22070312 632.59960938 C-197.5698238 636.41796478 -197.5698238 636.41796478 -193.625 640.6875 C-192.96228155 642.03731008 -192.34876229 643.41216719 -191.78125 644.8046875 C-190.66235696 647.33049372 -190.07691499 648.43552181 -187.640625 649.79394531 C-185.15259965 650.61264571 -182.68031777 651.23804872 -180.125 651.8125 C-178.31570585 652.29198572 -176.50838034 652.77896301 -174.703125 653.2734375 C-173.82978516 653.50901367 -172.95644531 653.74458984 -172.05664062 653.98730469 C-164.31680086 656.21600554 -158.53695738 658.95263882 -154 665.6875 C-149.8348004 671.55744374 -144.83068514 672.72081438 -138.2097168 674.63623047 C-132.3382338 676.34800816 -128.12633185 678.47348721 -123.625 682.6875 C-122.696875 683.38875 -121.76875 684.09 -120.8125 684.8125 C-118.625 686.6875 -118.625 686.6875 -117.3671875 688.6484375 C-115.05929612 691.34960186 -112.89787366 692.01077699 -109.5625 693.1875 C-108.40492188 693.61289062 -107.24734375 694.03828125 -106.0546875 694.4765625 C-103.96105207 695.21577319 -101.86302602 695.94287547 -99.7578125 696.6484375 C-92.38538537 699.27024289 -88.65049373 702.91703868 -84.9609375 709.78515625 C-81.95452583 713.52054734 -79.13546655 713.99983191 -74.625 714.75 C-73.0961306 715.06028353 -71.56876301 715.37805673 -70.04296875 715.703125 C-68.91834229 715.94192383 -68.91834229 715.94192383 -67.77099609 716.18554688 C-59.3553843 718.15397666 -52.28858062 721.18886497 -47.625 728.6875 C-47.32851563 729.37714844 -47.03203125 730.06679688 -46.7265625 730.77734375 C-45.29030089 733.26788249 -44.33754875 733.73810794 -41.625 734.6875 C-39.10870672 735.1465535 -36.66000149 735.52193143 -34.125 735.8125 C-33.41085937 735.8959668 -32.69671875 735.97943359 -31.9609375 736.06542969 C-22.88918996 737.06120843 -14.17726701 736.87050413 -5.125 735.8125 C-4.44179688 735.73418945 -3.75859375 735.65587891 -3.0546875 735.57519531 C0.42270211 735.12320393 3.46569707 734.71253684 6.375 732.6875 C7.73643802 730.89082922 7.73643802 730.89082922 8.8125 728.8125 C12.4188259 722.20299677 17.74077053 719.8559995 24.5625 717.5625 C25.31772949 717.29663086 26.07295898 717.03076172 26.85107422 716.75683594 C30.92152598 715.36249898 34.70558214 714.40068837 39 713.9375 C42.19363012 713.42782049 43.14979098 712.93713998 45.35546875 710.4921875 C46.56641739 708.72094919 47.73828287 706.92228117 48.8671875 705.09765625 C52.37737761 699.48680832 57.32122647 697.64319776 63.375 695.6875 C64.00035645 695.48447266 64.62571289 695.28144531 65.27001953 695.07226562 C67.42792792 694.37478007 69.58821851 693.68538436 71.75 693 C72.46454346 692.77320557 73.17908691 692.54641113 73.9152832 692.31274414 C79.13487717 690.6875 79.13487717 690.6875 81.375 690.6875 C82.035 689.3675 82.695 688.0475 83.375 686.6875 C84.035 686.6875 84.695 686.6875 85.375 686.6875 C85.601875 685.945 85.82875 685.2025 86.0625 684.4375 C87.94708266 680.48885062 90.31025852 678.5174058 94.38671875 676.87890625 C97.49425862 675.83221306 100.62453267 674.89826436 103.78125 674.01171875 C108.88988159 672.48764366 111.90967613 670.9448979 115.375 666.6875 C115.890625 665.718125 116.40625 664.74875 116.9375 663.75 C124.08163449 654.77403615 137.04890433 652.66951907 147.88378906 651.39160156 C153.01922228 650.83717638 158.15904823 650.35756557 163.30712891 649.93701172 C165.40959539 649.73384668 165.40959539 649.73384668 167.53076172 649.10229492 C169.375 648.6875 169.375 648.6875 171.15625 649.62109375 C177.70336197 655.34981673 181.8886679 662.90632713 182.62947559 671.71252632 C182.63152846 672.78717077 182.63358133 673.86181522 182.63569641 674.96902466 C182.64278122 676.21049255 182.64986603 677.45196045 182.65716553 678.73104858 C182.65487188 680.09429968 182.65236221 681.45755043 182.6496582 682.82080078 C182.65400927 684.26705182 182.65919374 685.71330056 182.66514587 687.1595459 C182.6785197 691.08192203 182.67911525 695.00420168 182.67658257 698.92659616 C182.67550956 702.21559442 182.68040581 705.50457342 182.685188 708.79356754 C182.69628234 716.57186574 182.69672411 724.35011568 182.69067383 732.12841797 C182.68466373 740.10459337 182.69686928 748.08059104 182.7182439 756.05673611 C182.73598943 762.93610497 182.74184019 769.81541799 182.73860615 776.69480884 C182.73681011 780.78888896 182.73925651 784.88284296 182.75332069 788.97690201 C182.84446022 818.24947413 182.84446022 818.24947413 181.22729492 830.40966797 C181.09055217 831.5546812 181.09055217 831.5546812 180.95104694 832.722826 C180.04525133 838.26501851 177.55359447 841.94920848 173.375 845.6875 C171.72702764 846.39912443 170.06334592 847.07781953 168.375 847.6875 C167.67963618 849.00609447 167.01784012 850.34251717 166.375 851.6875 C164.16680837 854.78712518 161.75962887 857.72256268 159.375 860.6875 C158.83746094 861.409375 158.29992187 862.13125 157.74609375 862.875 C150.90036075 871.58475187 141.31503212 874.06249617 130.85766602 876.16894531 C125.66860894 877.29318766 123.10621228 879.01904521 120.2421875 883.43359375 C119.91476562 883.99175781 119.58734375 884.54992187 119.25 885.125 C113.65588083 893.05847809 102.28005486 895.36928797 93.375 897.6875 C91.70921862 897.92301548 90.04263881 898.15301813 88.375 898.375 C85.56104464 898.93881619 84.66233318 899.30180749 82.92578125 901.6328125 C81.66503642 903.95596691 81.66503642 903.95596691 80.73828125 906.30078125 C76.90730114 913.00774069 71.41337775 914.52813894 64.3515625 916.53125 C62.12836914 917.13239319 59.90176808 917.72108101 57.671875 918.296875 C50.47883901 920.36681341 46.96069792 922.67621944 42.3293457 928.51123047 C36.2323013 935.30061883 26.90226018 936.78794218 18.3125 938.3125 C17.22283936 938.5192334 16.13317871 938.7259668 15.01049805 938.93896484 C10.07572995 939.86711844 5.13254628 940.73669893 0.1796875 941.5625 C-0.97261353 941.75658447 -0.97261353 941.75658447 -2.14819336 941.95458984 C-4.16303648 942.2877833 -6.18104106 942.60170133 -8.19921875 942.9140625 C-11.72065679 943.7090964 -14.44317359 945.01773687 -17.625 946.6875 C-19.8125 946.5625 -19.8125 946.5625 -21.625 945.6875 C-22.01945312 945.21570313 -22.41390625 944.74390625 -22.8203125 944.2578125 C-30.38794179 937.67299221 -46.68880924 937.78474087 -56.19799805 936.90234375 C-63.37645962 936.15351356 -69.14179855 934.70142763 -74.68359375 929.90625 C-75.13863281 929.3390625 -75.59367187 928.771875 -76.0625 928.1875 C-76.53558594 927.6203125 -77.00867188 927.053125 -77.49609375 926.46875 C-78.71669537 924.54281803 -79.12302388 922.89516758 -79.625 920.6875 C-80.43952637 920.53716309 -80.43952637 920.53716309 -81.27050781 920.38378906 C-112.83868425 914.49230967 -112.83868425 914.49230967 -119.625 905.6875 C-119.89957031 904.65238281 -120.17414063 903.61726562 -120.45703125 902.55078125 C-120.84246094 901.60589844 -121.22789062 900.66101563 -121.625 899.6875 C-124.35116735 898.55179849 -124.35116735 898.55179849 -127.6875 898.25 C-138.79740156 896.27999684 -151.52458206 893.08473177 -158.3984375 883.484375 C-158.80320312 882.89140625 -159.20796875 882.2984375 -159.625 881.6875 C-161.8992806 878.98277646 -163.72373737 878.13896637 -167.125 877.25 C-178.41456331 874.05019645 -189.183789 870.60639925 -196.6875 861 C-201.3895818 855.14852042 -208.36115429 853.73806781 -215.3125 851.6875 C-222.05594127 849.65115304 -226.2730475 847.46064373 -230.56640625 841.83984375 C-234.94423529 836.79070185 -239.9757264 835.08642746 -246.1875 833 C-261.20354631 827.80397128 -261.20354631 827.80397128 -265.5 820.5 C-266.625 817.6875 -266.625 817.6875 -266.625 815.6875 C-267.35203125 815.50574219 -268.0790625 815.32398438 -268.828125 815.13671875 C-270.94853083 814.60661729 -273.06827543 814.07386681 -275.1875 813.5390625 C-277.39101558 812.9931916 -279.5991492 812.46545129 -281.8125 811.9609375 C-291.11897771 809.80050517 -297.97260297 807.66735463 -303.625 799.6875 C-303.91375 798.98625 -304.2025 798.285 -304.5 797.5625 C-306.90883377 793.54777704 -311.21826685 792.0622522 -315.54296875 790.91015625 C-316.58066406 790.67167969 -317.61835938 790.43320312 -318.6875 790.1875 C-324.35515957 788.84979153 -328.51272412 787.44624226 -332.18212891 782.65380859 C-337.67054488 775.56441795 -343.29473462 773.38182306 -351.75 770.9375 C-366.09128806 766.62710169 -366.09128806 766.62710169 -370.625 761.6875 C-371.7421875 759.37109375 -371.7421875 759.37109375 -372.5 757.125 C-374.29925165 753.59637055 -375.28033674 752.81318694 -379.07421875 751.4296875 C-381.14813849 750.9233915 -383.2284896 750.49173079 -385.32104492 750.06958008 C-394.6719376 748.17806465 -403.19368152 744.83447773 -408.625 736.6875 C-409.5840625 735.2025 -409.5840625 735.2025 -410.5625 733.6875 C-413.78806865 728.99576378 -417.19627384 725.31959918 -422.25 722.625 C-429.55786882 718.42974198 -433.04524305 710.4967575 -435.20605469 702.55078125 C-435.58895207 700.9981027 -435.97026296 699.44503218 -436.35009766 697.89160156 C-438.20619212 690.33453533 -439.65858639 685.6707757 -445.7578125 680.4921875 C-451.29141453 675.14381064 -451.87004002 667.28198127 -452.21456909 659.96595764 C-452.2739534 658.75456213 -452.2739534 658.75456213 -452.33453739 657.51869398 C-452.91285366 643.87998261 -452.76640654 630.21260194 -452.75572467 616.56426871 C-452.75343844 612.23360964 -452.75696603 607.90295442 -452.75970459 603.57229614 C-452.76412699 595.1138905 -452.76320164 586.65549379 -452.76029195 578.19708782 C-452.75802412 571.31697425 -452.75773135 564.43686317 -452.75881577 557.55674934 C-452.758969 556.5737167 -452.75912223 555.59068406 -452.75928011 554.57786255 C-452.75959987 552.58022586 -452.75992408 550.58258917 -452.7602527 548.58495248 C-452.76309711 529.89917642 -452.75983672 511.21340529 -452.75445233 492.52763004 C-452.74998454 476.52793905 -452.75076204 460.52825531 -452.75537109 444.52856445 C-452.76073403 425.9034156 -452.76282325 407.27827105 -452.75975883 388.65312153 C-452.75944031 386.66355932 -452.75912594 384.6739971 -452.75881577 382.68443489 C-452.75866149 381.70578511 -452.75850721 380.72713533 -452.75834826 379.71882949 C-452.75748832 372.8541671 -452.75893469 365.98950747 -452.76129532 359.1248455 C-452.76411261 350.74894639 -452.76331455 342.37305664 -452.75801457 333.99715858 C-452.75540358 329.7316051 -452.7543279 325.46606717 -452.75766373 321.20051384 C-452.79589116 267.66493231 -452.79589116 267.66493231 -444.1875 259 C-438.40257456 253.03722087 -437.35897802 246.60134279 -435.625 238.6875 C-432.45696136 227.6435406 -429.38752872 221.10384528 -419.5625 214.6875 C-415.35763045 211.82461009 -412.89417526 209.4325894 -410.8125 204.8125 C-407.55982939 198.00340744 -402.09503365 194.73630438 -395.46875 191.6015625 C-391.14700799 189.45900396 -388.52848717 186.63102188 -385.8125 182.75 C-378.89257225 173.33120945 -367.93795392 171.18480571 -357.0625 168.5625 C-352.07161989 167.29209415 -349.64805676 166.14346566 -346.8125 161.8125 C-343.95717313 157.88022602 -341.05054838 155.65624863 -336.625 153.6875 C-335.76003906 153.27757812 -334.89507812 152.86765625 -334.00390625 152.4453125 C-327.24235839 149.41024852 -320.7887863 147.75623613 -313.4609375 146.65625 C-310.42979168 145.98149703 -310.42979168 145.98149703 -309.34375 143.28125 C-308.98796875 141.99734375 -308.98796875 141.99734375 -308.625 140.6875 C-303.66228539 132.74715662 -295.21308329 130.60463745 -286.5703125 128.32421875 C-285.68351807 128.08316406 -284.79672363 127.84210938 -283.88305664 127.59375 C-282.11888703 127.12334738 -280.34701777 126.68072319 -278.56811523 126.26953125 C-273.81519161 125.00789836 -271.30264876 123.90352399 -268.671875 119.6328125 C-268.32092773 118.94590332 -267.96998047 118.25899414 -267.60839844 117.55126953 C-264.16091123 111.01747674 -256.03059557 109.49194588 -249.51953125 107.29296875 C-248.84599609 107.05900391 -248.17246094 106.82503906 -247.47851562 106.58398438 C-246.11094142 106.10893228 -244.73835323 105.64808971 -243.36132812 105.20117188 C-238.15917026 103.35362976 -235.91309205 101.10425412 -232.625 96.6875 C-226.59787674 90.739681 -219.60889508 88.92069034 -211.625 86.6875 C-204.2327351 84.56818126 -201.12974828 82.56150196 -197.22265625 75.93359375 C-190.22924259 66.10177748 -174.67467439 63.9348914 -163.625 61.6875 C-163.58375 61.006875 -163.5425 60.32625 -163.5 59.625 C-162.21610509 55.31478137 -160.02687255 52.61473955 -156.625 49.6875 C-152.73789694 47.63232799 -148.68865219 46.13105796 -144.5625 44.625 C-134.67775277 41.07321216 -134.67775277 41.07321216 -127.625 33.6875 C-121.61007478 27.75171853 -114.62485443 25.83356873 -106.625 23.6875 C-104.76903592 23.13095923 -102.91466533 22.56905523 -101.0625 22 C-98.83981409 21.3290712 -96.68015624 20.6984537 -94.40234375 20.24609375 C-93.81582031 20.06175781 -93.22929688 19.87742187 -92.625 19.6875 C-92.33625 18.945 -92.0475 18.2025 -91.75 17.4375 C-89.57168352 12.11272638 -84.19105625 8.95700826 -79.109375 6.59765625 C-69.17563616 2.95840916 -59.00007852 2.43004045 -48.55078125 2.10302734 C-41.37255646 1.83827814 -34.60153497 0.79499322 -27.58203125 -0.69140625 C-18.44972723 -2.35172013 -9.13816282 -0.9977014 0 0 Z " fill="#FEFEFE" transform="translate(659.625,33.3125)"/>
<path d="M0 0 C2.62449494 2.23387244 4.59187701 4.68570799 6.6796875 7.4296875 C9.37004447 10.93770198 12.54581085 11.37252244 16.7421875 12.3671875 C28.43143947 15.28141323 38.0326856 18.71592833 45.6796875 28.4296875 C47.94321468 31.02398799 49.96739483 32.15214823 53.1796875 33.3671875 C54.06140625 33.7075 54.943125 34.0478125 55.8515625 34.3984375 C57.74882833 35.09025819 59.65551859 35.75672278 61.5703125 36.3984375 C68.78090149 38.84136929 73.20290792 41.16086356 77.890625 47.34765625 C80.7415629 50.79584291 83.94118288 52.46638822 87.9296875 54.3671875 C95.5599276 58.22179193 104.34163214 62.73949845 108.6796875 70.4296875 C108.9296875 73.3046875 108.9296875 73.3046875 107.6796875 76.4296875 C105.23462299 79.0437935 102.48037975 81.2094496 99.6796875 83.4296875 C94.55518698 87.7416546 90.28137473 91.98192313 86.23828125 97.33984375 C79.25453634 106.00876145 70.77709232 108.75478359 60.21313477 110.99902344 C56.37151519 111.84362483 53.53005523 112.6605654 50.6796875 115.4296875 C49.23459842 117.99205658 49.23459842 117.99205658 47.90234375 120.61328125 C44.5525391 125.5898281 39.50516995 127.55164734 34.0546875 129.4921875 C33.34900635 129.75547852 32.6433252 130.01876953 31.91625977 130.29003906 C27.84153516 131.77849755 23.88224582 132.84560536 19.6171875 133.6796875 C14.00355441 135.06421584 12.20400938 138.28771213 9.28515625 143.05078125 C5.9363494 148.01288191 0.84730391 149.80504269 -4.91015625 151.05859375 C-14.94918726 152.60431165 -25.18701448 152.67766587 -35.3203125 152.4296875 C-36.51011719 152.40132812 -37.69992187 152.37296875 -38.92578125 152.34375 C-47.12479049 151.96822286 -55.75133498 151.29998838 -62.26171875 145.78515625 C-64.54783067 143.25666138 -66.08286142 141.22403546 -67.06762695 137.9296875 C-68.09521559 135.25402196 -68.09521559 135.25402196 -70.62353516 134.28295898 C-71.5676123 134.04134033 -72.51168945 133.79972168 -73.484375 133.55078125 C-74.52464844 133.26912109 -75.56492187 132.98746094 -76.63671875 132.69726562 C-77.72855469 132.42333984 -78.82039062 132.14941406 -79.9453125 131.8671875 C-99.38078532 126.81490235 -99.38078532 126.81490235 -105.3203125 118.4296875 C-105.6090625 117.7078125 -105.8978125 116.9859375 -106.1953125 116.2421875 C-109.05808834 111.62993753 -116.25946292 110.93116791 -121.1328125 109.6796875 C-132.5973469 106.40583205 -139.24946263 99.76002042 -147.04956055 91.13623047 C-151.52473051 86.19357879 -156.21175314 81.78860117 -161.30859375 77.48046875 C-163.39232847 75.35627316 -164.26116663 74.39881013 -164.3203125 71.4296875 C-159.5781385 62.87912666 -149.07136918 56.20963126 -140.5703125 51.9296875 C-136.99545587 50.0843928 -134.87953387 47.96545747 -132.3203125 44.8671875 C-126.19537691 37.59909104 -118.24895098 35.96516186 -109.3359375 33.45703125 C-104.39361767 31.77331348 -101.21732045 29.64820385 -98.0078125 25.5546875 C-90.86845753 17.22544004 -82.7132664 15.19145147 -72.3203125 12.4296875 C-66.243597 10.74690475 -63.62179312 8.93215519 -60.3203125 3.4296875 C-47.57315591 -9.31746909 -14.49396057 -10.16381467 0 0 Z " fill="#FEFEFE" transform="translate(668.3203125,567.5703125)"/>
</svg>
